<svg viewBox="0 0 32 32" xmlns="http://www.w3.org/2000/svg">
  <g clip-path="url(#clip0_341_51902)">
    <path
      d="M7.00488 17.0462C8.11647 16.5858 9.34046 16.4658 10.5205 16.7005C11.7004 16.9353 12.7841 17.5149 13.6348 18.3655C14.4854 19.2163 15.0651 20.2998 15.2998 21.4798C15.5345 22.6599 15.4136 23.8829 14.9531 24.9945C14.4927 26.106 13.7133 27.0565 12.7129 27.7249C11.7125 28.3933 10.5361 28.7503 9.33301 28.7503H4C3.58589 28.7503 3.25017 28.4144 3.25 28.0003V22.6663C3.25006 21.4634 3.60712 20.2877 4.27539 19.2874C4.94377 18.2871 5.89344 17.5067 7.00488 17.0462ZM4.75 27.2503H9.33301C10.2395 27.2503 11.1262 26.9815 11.8799 26.4779C12.6336 25.9742 13.2205 25.2577 13.5674 24.4202C13.9142 23.5828 14.0049 22.6617 13.8281 21.7728C13.6513 20.8838 13.2151 20.0671 12.5742 19.4261C11.9332 18.7851 11.1166 18.3481 10.2275 18.1712C9.33846 17.9944 8.4166 18.0851 7.5791 18.432C6.74167 18.7789 6.02606 19.3667 5.52246 20.1204C5.01893 20.874 4.75006 21.76 4.75 22.6663V27.2503Z"
    />
    <path
      d="M27.8982 3.25682C28.3086 3.20069 28.6868 3.48803 28.7429 3.89842C28.799 4.3088 28.5117 4.68702 28.1013 4.74315C24.4297 5.24543 20.9614 6.72954 18.0632 9.03905C15.165 11.3486 12.9437 14.3983 11.6345 17.8652C11.4881 18.2524 11.056 18.4478 10.6687 18.3017C10.2812 18.1554 10.0858 17.7225 10.2322 17.3349C11.6368 13.6154 14.0193 10.344 17.1287 7.8662C20.2381 5.38835 23.9589 3.79568 27.8982 3.25682Z"
    />
    <path
      d="M28.1012 3.25682C28.5116 3.31295 28.7989 3.69117 28.7428 4.10155C28.204 8.04077 26.6121 11.7616 24.1344 14.8711C21.6565 17.9806 18.3843 20.3639 14.6647 21.7685C14.2774 21.9146 13.8453 21.7191 13.6989 21.332C13.5525 20.9445 13.7479 20.5116 14.1354 20.3652C17.6022 19.056 20.6511 16.8347 22.9606 13.9365C25.2701 11.0383 26.7542 7.57016 27.2565 3.89842C27.3126 3.48819 27.691 3.20097 28.1012 3.25682Z"
    />
    <path
      d="M13.4527 11.6855C13.6263 11.3096 14.0718 11.1458 14.4478 11.3193C17.2005 12.5899 19.4107 14.8 20.6812 17.5527C20.8545 17.9287 20.69 18.3743 20.314 18.5478C19.938 18.7212 19.4924 18.5566 19.3189 18.1806C18.1978 15.7518 16.2477 13.8017 13.8189 12.6806C13.443 12.507 13.2791 12.0615 13.4527 11.6855Z"
    />
  </g>
  <defs>
    <clipPath id="clip0_341_51902">
      <rect width="32" height="32" />
    </clipPath>
  </defs>
</svg>
