<svg viewBox="0 0 20 20" xmlns="http://www.w3.org/2000/svg">
  <path
    fill-rule="evenodd"
    clip-rule="evenodd"
    d="M8.05453 6.30078C7.58941 6.30078 7.14333 6.48555 6.81444 6.81444C6.48555 7.14333 6.30078 7.58941 6.30078 8.05453V15.2762C6.30078 15.5065 6.34614 15.7346 6.43428 15.9473C6.52241 16.1601 6.65159 16.3534 6.81444 16.5163C6.97729 16.6791 7.17063 16.8083 7.3834 16.8965C7.59617 16.9846 7.82422 17.0299 8.05453 17.0299H15.2762C15.5065 17.0299 15.7346 16.9846 15.9473 16.8965C16.1601 16.8083 16.3534 16.6791 16.5163 16.5163C16.6791 16.3534 16.8083 16.1601 16.8965 15.9473C16.9846 15.7346 17.0299 15.5065 17.0299 15.2762V8.05453C17.0299 7.82422 16.9846 7.59617 16.8965 7.3834C16.8083 7.17063 16.6791 6.97729 16.5163 6.81444C16.3534 6.65159 16.1601 6.52241 15.9473 6.43428C15.7346 6.34614 15.5065 6.30078 15.2762 6.30078H8.05453ZM6.15153 6.15153C6.65624 5.64682 7.34077 5.36328 8.05453 5.36328H15.2762C15.6296 5.36328 15.9796 5.43289 16.3061 5.56814C16.6326 5.70339 16.9293 5.90162 17.1792 6.15153C17.4291 6.40143 17.6273 6.69812 17.7626 7.02463C17.8978 7.35115 17.9674 7.70111 17.9674 8.05453V15.2762C17.9674 15.6296 17.8978 15.9796 17.7626 16.3061C17.6273 16.6326 17.4291 16.9293 17.1792 17.1792C16.9293 17.4291 16.6326 17.6273 16.3061 17.7626C15.9796 17.8978 15.6296 17.9674 15.2762 17.9674H8.05453C7.70111 17.9674 7.35115 17.8978 7.02463 17.7626C6.69812 17.6273 6.40143 17.4291 6.15153 17.1792C5.90162 16.9293 5.70339 16.6326 5.56814 16.3061C5.43289 15.9796 5.36328 15.6296 5.36328 15.2762V8.05453C5.36328 7.34077 5.64682 6.65624 6.15153 6.15153Z"
  />
  <path
    fill-rule="evenodd"
    clip-rule="evenodd"
    d="M4.16667 2.96875C3.50888 2.96875 2.96875 3.50888 2.96875 4.16667V12.4994C2.96935 12.7108 3.02572 12.9184 3.13217 13.1011C3.23871 13.284 3.39163 13.4355 3.57549 13.5403C3.80039 13.6685 3.87877 13.9547 3.75056 14.1797C3.62234 14.4046 3.33608 14.4829 3.11118 14.3547C2.78394 14.1682 2.51175 13.8985 2.32212 13.5731C2.1325 13.2476 2.03216 12.8778 2.03125 12.5011L2.03125 12.5V4.16667C2.03125 2.99112 2.99112 2.03125 4.16667 2.03125H12.5C12.9003 2.03125 13.2405 2.13657 13.5279 2.34513C13.805 2.54633 14.0015 2.82102 14.1597 3.10552C14.2855 3.33177 14.2041 3.61718 13.9778 3.743C13.7516 3.86882 13.4662 3.7874 13.3403 3.56115C13.2135 3.33315 13.0975 3.19117 12.9771 3.10382C12.867 3.02385 12.7247 2.96875 12.5 2.96875H4.16667Z"
  />
  <path
    d="M11.9688 9.65837C12.1576 9.45692 12.4743 9.44607 12.6758 9.63493L15.3418 12.1349C15.4426 12.2295 15.5 12.362 15.5 12.5002C15.5 12.6384 15.4426 12.7709 15.3418 12.8654L12.6758 15.3654C12.4743 15.5543 12.1576 15.5434 11.9688 15.342C11.7799 15.1405 11.7898 14.8238 11.9912 14.6349L13.7354 13.0002H9C8.72386 13.0002 8.5 12.7763 8.5 12.5002C8.5 12.224 8.72386 12.0002 9 12.0002H13.7354L11.9912 10.3654C11.7898 10.1765 11.7799 9.85983 11.9688 9.65837Z"
  />
</svg>
