<svg viewBox="0 0 32 32" xmlns="http://www.w3.org/2000/svg">
  <g clip-path="url(#clip0_15_8401)">
    <path
      d="M27.2495 22.667C27.2495 22.1587 27.0474 21.671 26.688 21.3115C26.3286 20.9523 25.8416 20.7501 25.3335 20.75C24.8252 20.75 24.3375 20.9521 23.978 21.3115C23.6186 21.671 23.4165 22.1587 23.4165 22.667C23.4166 23.1751 23.6188 23.6621 23.978 24.0215C24.3375 24.3809 24.8252 24.583 25.3335 24.583C25.8417 24.5829 26.3286 24.3809 26.688 24.0215C27.0474 23.6621 27.2494 23.1752 27.2495 22.667ZM28.7495 22.667C28.7494 23.573 28.3902 24.4423 27.7495 25.083C27.1088 25.7237 26.2395 26.0829 25.3335 26.083C24.4275 26.083 23.5582 25.7236 22.9175 25.083C22.2768 24.4423 21.9166 23.573 21.9165 22.667C21.9165 21.7608 22.2767 20.8917 22.9175 20.251C23.5582 19.6102 24.4273 19.25 25.3335 19.25C26.2395 19.2501 27.1088 19.6103 27.7495 20.251C28.3901 20.8917 28.7495 21.761 28.7495 22.667Z"
    />
    <path
      d="M28.5835 29.334C28.5835 28.8257 28.3814 28.338 28.022 27.9785C27.6625 27.6191 27.1748 27.417 26.6665 27.417H24.0005C23.4922 27.417 23.0045 27.6191 22.645 27.9785C22.2856 28.338 22.0835 28.8257 22.0835 29.334C22.0833 29.748 21.7476 30.084 21.3335 30.084C20.9194 30.084 20.5837 29.748 20.5835 29.334C20.5835 28.4278 20.9437 27.5587 21.5845 26.918C22.2252 26.2772 23.0943 25.917 24.0005 25.917H26.6665C27.5727 25.917 28.4418 26.2772 29.0825 26.918C29.7233 27.5587 30.0835 28.4278 30.0835 29.334C30.0833 29.748 29.7476 30.084 29.3335 30.084C28.9194 30.084 28.5837 29.748 28.5835 29.334Z"
    />
    <path
      d="M25.9165 8C25.9165 7.73918 25.7781 7.4007 25.3306 7.00391C24.8839 6.60799 24.1945 6.2174 23.2788 5.87402C21.4525 5.18924 18.8795 4.75003 16.0005 4.75C13.1213 4.75 10.5476 5.18916 8.72119 5.87402C7.80537 6.21744 7.11612 6.60794 6.66943 7.00391C6.22187 7.4007 6.0835 7.73918 6.0835 8C6.0835 8.26082 6.22187 8.5993 6.66943 8.99609C7.11612 9.39206 7.80537 9.78256 8.72119 10.126C10.5476 10.8108 13.1213 11.25 16.0005 11.25C18.8795 11.25 21.4525 10.8108 23.2788 10.126C24.1945 9.7826 24.8839 9.39201 25.3306 8.99609C25.7781 8.5993 25.9165 8.26082 25.9165 8ZM27.4165 8C27.4165 8.84385 26.9577 9.55784 26.3257 10.1182C25.6929 10.6791 24.8202 11.15 23.8062 11.5303C21.772 12.2931 19.0118 12.75 16.0005 12.75C12.9891 12.75 10.2291 12.2931 8.19482 11.5303C7.18046 11.1499 6.3072 10.6793 5.67432 10.1182C5.0423 9.55784 4.5835 8.84384 4.5835 8C4.5835 7.15616 5.0423 6.44216 5.67432 5.88184C6.3072 5.32074 7.18046 4.85009 8.19482 4.46973C10.2291 3.70695 12.9891 3.25 16.0005 3.25C19.0118 3.25003 21.772 3.70695 23.8062 4.46973C24.8202 4.85003 25.6929 5.32089 26.3257 5.88184C26.9577 6.44216 27.4165 7.15615 27.4165 8Z"
    />
    <path
      d="M4.5835 16V8C4.5835 7.58579 4.91928 7.25 5.3335 7.25C5.74771 7.25 6.0835 7.58579 6.0835 8V16C6.0835 16.2608 6.22187 16.5993 6.66943 16.9961C7.11612 17.3921 7.80537 17.7826 8.72119 18.126C10.5476 18.8108 13.1213 19.25 16.0005 19.25C16.8897 19.25 17.752 19.2083 18.5737 19.1299C18.986 19.0905 19.3526 19.3925 19.3921 19.8047C19.4315 20.217 19.1286 20.5837 18.7163 20.623C17.8464 20.7061 16.9365 20.75 16.0005 20.75C12.9891 20.75 10.2291 20.2931 8.19482 19.5303C7.18046 19.1499 6.3072 18.6793 5.67432 18.1182C5.0423 17.5578 4.5835 16.8438 4.5835 16Z"
    />
    <path
      d="M25.9165 16V8C25.9165 7.58579 26.2523 7.25 26.6665 7.25C27.0807 7.25 27.4165 7.58579 27.4165 8V16C27.4165 16.4142 27.0807 16.75 26.6665 16.75C26.2523 16.75 25.9165 16.4142 25.9165 16Z"
    />
    <path
      d="M4.5835 24V16C4.5835 15.5858 4.91928 15.25 5.3335 15.25C5.74771 15.25 6.0835 15.5858 6.0835 16V24C6.0835 24.2608 6.22187 24.5993 6.66943 24.9961C7.11612 25.3921 7.80537 25.7826 8.72119 26.126C10.5476 26.8108 13.1213 27.25 16.0005 27.25C16.2034 27.25 16.4049 27.2471 16.6069 27.2432C17.021 27.2351 17.3634 27.5645 17.3716 27.9785C17.3796 28.3926 17.0503 28.735 16.6362 28.7432C16.4278 28.7472 16.216 28.75 16.0005 28.75C12.9891 28.75 10.2291 28.2931 8.19482 27.5303C7.18046 27.1499 6.3072 26.6793 5.67432 26.1182C5.0423 25.5578 4.5835 24.8438 4.5835 24Z"
    />
  </g>
  <defs>
    <clipPath id="clip0_15_8401">
      <rect width="32" height="32" />
    </clipPath>
  </defs>
</svg>
