<svg viewBox="0 0 32 32" xmlns="http://www.w3.org/2000/svg">
  <g clip-path="url(#clip0_15_8392)">
    <path
      fill-rule="evenodd"
      clip-rule="evenodd"
      d="M10.8627 4.79117C11.0202 4.65329 11.2281 4.5875 11.4363 4.6097C12.4544 4.71831 13.439 5.03656 14.3281 5.54437C14.9478 5.89835 15.5118 6.33911 16.0035 6.852C16.4958 6.34413 17.0594 5.90813 17.6779 5.55838C18.5663 5.05595 19.5489 4.74232 20.5642 4.6371C20.7717 4.6156 20.9788 4.68152 21.1358 4.81903L28.4869 11.2606C28.6439 11.3981 28.7364 11.5948 28.7423 11.8034C28.7714 12.8236 28.5895 13.8389 28.2081 14.7857C27.8267 15.7324 27.254 16.5903 26.5258 17.3055C26.5073 17.3237 26.4881 17.3407 26.4683 17.3565L26.245 17.5846C26.0587 17.7748 25.7912 18.0475 25.4664 18.3779C24.8168 19.0387 23.9375 19.9304 23.0192 20.8536C21.2046 22.6778 19.1764 24.6879 18.515 25.2219C17.7456 25.8431 16.8745 26.0985 15.9641 26.0251C15.0763 25.9535 14.1986 25.5741 13.3649 25.015C12.9177 24.7151 12.1924 24.0622 11.4007 23.3081C10.5908 22.5367 9.65984 21.6088 8.78081 20.7172C7.90107 19.8249 7.06999 18.9653 6.45906 18.329C6.15351 18.0108 5.90285 17.7483 5.72848 17.5652L5.52678 17.3531L5.46595 17.289C4.73749 16.5771 4.16342 15.7228 3.77958 14.7792C3.39378 13.8308 3.20852 12.8128 3.23548 11.7892C3.23821 11.6857 3.26234 11.5839 3.30635 11.4902C3.37171 11.351 3.46804 11.2242 3.54475 11.1305C3.63022 11.0262 3.73345 10.9132 3.8466 10.7961C4.0734 10.5615 4.36716 10.2827 4.69973 9.97988C5.36638 9.37286 6.21986 8.64133 7.07575 7.92277C8.07306 7.08547 9.05986 6.27679 9.78462 5.68284C10.3228 5.24184 10.7164 4.91922 10.8627 4.79117ZM6.54502 16.2469L6.61471 16.3204L6.81468 16.5307C6.98784 16.7125 7.23708 16.9736 7.54102 17.2901C8.14907 17.9234 8.97532 18.7779 9.849 19.6641C10.7234 20.5511 11.6419 21.4662 12.4353 22.222C13.247 22.9951 13.8788 23.5536 14.2003 23.7692C14.9039 24.241 15.5364 24.4857 16.0847 24.5299C16.6105 24.5723 17.1014 24.4353 17.5728 24.0547C18.1524 23.5868 20.1023 21.659 21.9557 19.7958C22.8713 18.8753 23.7484 17.9858 24.3967 17.3263C24.7209 16.9967 24.9877 16.7245 25.1735 16.5349L25.4635 16.2386L25.4677 16.2423V16.2423L25.4635 16.2386C25.4877 16.2137 25.5136 16.1906 25.5403 16.1699C26.0901 15.6127 26.524 14.9518 26.8167 14.2252C27.0812 13.5688 27.2254 12.8711 27.2434 12.1654L20.4021 6.17059C19.7049 6.28114 19.0322 6.51572 18.4162 6.86406C17.7074 7.26488 17.089 7.80767 16.5997 8.45848C16.4576 8.64749 16.2346 8.7584 15.9981 8.75775C15.7617 8.75709 15.5394 8.64494 15.3983 8.45514C14.911 7.79957 14.2934 7.25199 13.5841 6.84688C12.9653 6.49346 12.2886 6.25514 11.5867 6.14254C11.3749 6.31839 11.0709 6.56776 10.7077 6.86562C9.9698 7.47073 8.9879 8.27597 8.04024 9.07158C7.18871 9.78648 6.35361 10.5026 5.70963 11.089C5.38688 11.3829 5.11981 11.6372 4.92515 11.8386C4.84463 11.9219 4.78107 11.9915 4.73325 12.0475C4.74114 12.79 4.88875 13.525 5.16902 14.214C5.4768 14.9706 5.9379 15.6553 6.52329 16.2249C6.53067 16.2321 6.53794 16.2395 6.54502 16.2469Z"
    />
    <path
      fill-rule="evenodd"
      clip-rule="evenodd"
      d="M16.5306 7.46942C16.8235 7.76231 16.8235 8.23719 16.5306 8.53008L12.14 12.9207V12.9207C12.0307 13.03 11.9692 13.1784 11.9692 13.3331C11.9692 13.4877 12.0306 13.636 12.1399 13.7454V13.7454L12.8639 14.4694C13.491 15.0965 14.5095 15.0965 15.1366 14.4694L16.4699 13.1361C17.4062 12.1998 18.6761 11.6738 20.0002 11.6738C21.3227 11.6738 22.591 12.1985 23.527 13.1325C24.3686 13.9528 25.032 14.7104 25.3453 15.5913C25.6746 16.5167 25.5812 17.4607 25.1913 18.5701C25.054 18.9609 24.6259 19.1664 24.2351 19.0291C23.8443 18.8917 23.6389 18.4636 23.7762 18.0728C24.1018 17.1461 24.1046 16.5789 23.9321 16.0941C23.7442 15.5658 23.3094 15.0148 22.4768 14.2036L22.4699 14.1968C21.8149 13.5418 20.9265 13.1738 20.0002 13.1738C19.0739 13.1738 18.1856 13.5418 17.5306 14.1967V14.1967L16.1972 15.5301C14.9843 16.743 13.0161 16.743 11.8032 15.5301L11.0792 14.8061C10.6887 14.4154 10.4692 13.8855 10.4692 13.3331C10.4692 12.7807 10.6886 12.2508 11.0792 11.8602L15.4699 7.46942C15.7628 7.17652 16.2377 7.17653 16.5306 7.46942Z"
    />
    <path
      fill-rule="evenodd"
      clip-rule="evenodd"
      d="M16.1366 20.1361C16.4295 19.8432 16.9043 19.8432 17.1972 20.1361L19.8639 22.8028C20.1568 23.0956 20.1568 23.5705 19.8639 23.8634C19.571 24.1563 19.0961 24.1563 18.8032 23.8634L16.1366 21.1967C15.8437 20.9039 15.8437 20.429 16.1366 20.1361Z"
    />
    <path
      fill-rule="evenodd"
      clip-rule="evenodd"
      d="M19.4699 16.8028C19.7628 16.5099 20.2377 16.5099 20.5306 16.8028L23.1972 19.4694C23.4901 19.7623 23.4901 20.2372 23.1972 20.5301C22.9043 20.823 22.4295 20.823 22.1366 20.5301L19.4699 17.8634C19.177 17.5705 19.177 17.0956 19.4699 16.8028Z"
    />
  </g>
  <defs>
    <clipPath id="clip0_15_8392">
      <rect width="32" height="32" />
    </clipPath>
  </defs>
</svg>
