<svg viewBox="0 0 32 32" xmlns="http://www.w3.org/2000/svg">
  <path
    d="M8.30956 4.62785C9.79014 4.13928 11.39 4.12375 12.8799 4.58391C14.0764 4.95351 15.1537 5.61593 16.0156 6.50285C16.5092 6.00085 17.0726 5.56849 17.6924 5.22355C18.5799 4.72962 19.5612 4.4216 20.5742 4.31828C21.5872 4.21501 22.6112 4.31886 23.582 4.62297C24.5528 4.92709 25.4502 5.42499 26.2178 6.08684C26.9854 6.74887 27.6065 7.56092 28.042 8.4716C28.4774 9.38225 28.7179 10.3719 28.7471 11.3788C28.7762 12.3859 28.5941 13.3884 28.2119 14.3222C27.8297 15.2558 27.2556 16.1006 26.5273 16.8046C26.506 16.8252 26.483 16.8437 26.4599 16.8612L16.5351 26.537C16.2439 26.8209 15.7786 26.8209 15.4873 26.537L11.6289 22.7753C11.3323 22.4862 11.3261 22.0114 11.6152 21.7148C11.9044 21.4184 12.3792 21.4121 12.6758 21.7011L16.0107 24.9521L25.4824 15.7206C25.5008 15.7027 25.5194 15.6855 25.5391 15.6698C26.0923 15.1205 26.53 14.4701 26.8232 13.7538C27.1262 13.0136 27.271 12.2198 27.248 11.4228C27.225 10.6256 27.0349 9.84053 26.6894 9.11809C26.344 8.39568 25.8499 7.75005 25.2383 7.22258C24.6267 6.69518 23.9103 6.29688 23.1338 6.05363C22.3573 5.81039 21.5375 5.72782 20.7266 5.81047C19.9155 5.89319 19.1306 6.13968 18.4219 6.5341C17.7131 6.92856 17.0956 7.46258 16.6074 8.10148C16.4651 8.2878 16.2432 8.39707 16.0088 8.39641C15.7746 8.39565 15.5543 8.28528 15.4131 8.09855C14.6705 7.11511 13.6286 6.38567 12.4365 6.0175C11.2445 5.64942 9.96468 5.66185 8.78026 6.05266C7.5958 6.44352 6.56865 7.19205 5.84569 8.18938C5.12303 9.18642 4.74018 10.3815 4.74999 11.6034C4.75332 12.0176 4.42005 12.356 4.00585 12.3593C3.59198 12.3624 3.25357 12.03 3.24999 11.6161C3.23755 10.0718 3.7221 8.5635 4.63183 7.30852C5.54134 6.05398 6.82912 5.11645 8.30956 4.62785ZM12.0137 10.8232C12.3349 10.8233 12.6204 11.0277 12.7236 11.332L13.8838 14.7577H17.3437C17.758 14.7577 18.0937 15.0935 18.0937 15.5077C18.0936 15.9218 17.7579 16.2577 17.3437 16.2577H13.3457C13.0243 16.2576 12.7388 16.0524 12.6357 15.748L12.0127 13.9101L10.0586 19.6825C9.96722 19.9523 9.73046 20.1473 9.44823 20.1855C9.16631 20.2235 8.88724 20.0986 8.72753 19.8632L6.28515 16.2577H4.01757C3.60343 16.2577 3.26769 15.9218 3.26757 15.5077C3.26757 15.0935 3.60335 14.7577 4.01757 14.7577H6.68261L6.77538 14.7636C6.98838 14.7901 7.18164 14.9067 7.3037 15.0868L9.12108 17.7704L11.3027 11.332C11.4059 11.0276 11.6922 10.8232 12.0137 10.8232Z"
  />
</svg>
