<svg viewBox="0 0 32 32" xmlns="http://www.w3.org/2000/svg">
  <g clip-path="url(#clip0_15_8389)">
    <path
      fill-rule="evenodd"
      clip-rule="evenodd"
      d="M12.5835 4C12.5835 3.58579 12.9193 3.25 13.3335 3.25H18.6668C19.081 3.25 19.4168 3.58579 19.4168 4V9.33333C19.4168 9.74755 19.081 10.0833 18.6668 10.0833H13.3335C12.9193 10.0833 12.5835 9.74755 12.5835 9.33333V4ZM14.0835 4.75V8.58333H17.9168V4.75H14.0835Z"
    />
    <path
      fill-rule="evenodd"
      clip-rule="evenodd"
      d="M3.25 22.667C3.25 22.2528 3.58579 21.917 4 21.917H9.33333C9.74755 21.917 10.0833 22.2528 10.0833 22.667V28.0003C10.0833 28.4145 9.74755 28.7503 9.33333 28.7503H4C3.58579 28.7503 3.25 28.4145 3.25 28.0003V22.667ZM4.75 23.417V27.2503H8.58333V23.417H4.75Z"
    />
    <path
      fill-rule="evenodd"
      clip-rule="evenodd"
      d="M12.5835 22.667C12.5835 22.2528 12.9193 21.917 13.3335 21.917H18.6668C19.081 21.917 19.4168 22.2528 19.4168 22.667V28.0003C19.4168 28.4145 19.081 28.7503 18.6668 28.7503H13.3335C12.9193 28.7503 12.5835 28.4145 12.5835 28.0003V22.667ZM14.0835 23.417V27.2503H17.9168V23.417H14.0835Z"
    />
    <path
      fill-rule="evenodd"
      clip-rule="evenodd"
      d="M9.42544 18.4806C7.99167 19.5097 7.26562 20.9082 7.26562 22.4846C7.26562 22.8988 6.92984 23.2346 6.51562 23.2346C6.10141 23.2346 5.76562 22.8988 5.76562 22.4846C5.76562 20.388 6.75549 18.5506 8.55078 17.262C10.3285 15.986 12.8675 15.2628 16 15.2627C19.1324 15.2626 21.6379 15.9864 23.3811 17.2676C23.6057 17.4326 23.817 17.6066 24.0147 17.7887C24.4678 18.2062 24.0801 19.4174 23.1102 18.9978C22.9223 18.8148 22.7165 18.6407 22.4927 18.4762C21.0818 17.4392 18.9201 16.7626 16 16.7627C13.08 16.7628 10.8767 17.439 9.42544 18.4806Z"
    />
    <path
      fill-rule="evenodd"
      clip-rule="evenodd"
      d="M16 8.58301C16.4142 8.58301 16.75 8.91879 16.75 9.33301V22.6698C16.75 23.084 16.4142 23.4198 16 23.4198C15.5858 23.4198 15.25 23.084 15.25 22.6698V9.33301C15.25 8.91879 15.5858 8.58301 16 8.58301Z"
    />
    <path
      fill-rule="evenodd"
      clip-rule="evenodd"
      d="M25.7112 21.0538L22.7201 22.8186C22.6293 22.8713 22.5835 22.9608 22.5835 23.04V26.28C22.5835 26.3881 22.6338 26.4549 22.6954 26.4876C22.7122 26.4966 22.7287 26.5061 22.7448 26.5163L25.7238 28.4031C25.7891 28.4356 25.8679 28.4356 25.9332 28.4031L28.9122 26.5163C28.9203 26.5112 28.9286 26.5062 28.9369 26.5014C29.0277 26.4486 29.0735 26.3591 29.0735 26.28V23.04C29.0735 22.9466 29.0252 22.864 28.9469 22.8186C28.9091 22.7966 28.8739 22.7718 28.8413 22.7445L25.9758 21.0538C25.894 21.012 25.793 21.012 25.7112 21.0538ZM29.8606 21.6267C29.82 21.588 29.7745 21.5535 29.7246 21.524L26.7246 19.754C26.7178 19.75 26.711 19.7461 26.7041 19.7424C26.1695 19.4492 25.5175 19.4492 24.9829 19.7424C24.976 19.7461 24.9692 19.75 24.9624 19.754L21.9643 21.5229C21.4366 21.8305 21.0835 22.4001 21.0835 23.04V26.28C21.0835 26.9014 21.4024 27.4853 21.963 27.7967L24.9422 29.6836C24.9526 29.6901 24.9631 29.6964 24.9737 29.7025C25.5031 30.0025 26.1539 30.0025 26.6833 29.7025C26.6939 29.6964 26.7044 29.6901 26.7148 29.6836L29.7043 27.7902C30.2255 27.4811 30.5735 26.9151 30.5735 26.28V23.04C30.5735 22.4778 30.3066 21.9553 29.8606 21.6267ZM23.7435 24.72C23.7435 23.5757 24.6793 22.64 25.8235 22.64C26.9677 22.64 27.9035 23.5757 27.9035 24.72C27.9035 25.8642 26.9677 26.8 25.8235 26.8C24.683 26.8 23.7435 25.8778 23.7435 24.72ZM25.8235 24.14C25.5077 24.14 25.2435 24.4042 25.2435 24.72C25.2435 25.0421 25.504 25.3 25.8235 25.3C26.1393 25.3 26.4035 25.0357 26.4035 24.72C26.4035 24.4042 26.1393 24.14 25.8235 24.14Z"
    />
  </g>
  <defs>
    <clipPath id="clip0_15_8389">
      <rect width="32" height="32" />
    </clipPath>
  </defs>
</svg>
