<svg viewBox="0 0 32 32" xmlns="http://www.w3.org/2000/svg">
  <path
    fill-rule="evenodd"
    clip-rule="evenodd"
    d="M5.9165 2.66699C5.9165 2.25278 6.25229 1.91699 6.6665 1.91699H13.3332C13.7474 1.91699 14.0832 2.25278 14.0832 2.66699V8.00033C14.0832 8.41454 13.7474 8.75033 13.3332 8.75033H6.6665C6.25229 8.75033 5.9165 8.41454 5.9165 8.00033V2.66699ZM7.4165 3.41699V7.25033H12.5832V3.41699H7.4165Z"
  />
  <path
    fill-rule="evenodd"
    clip-rule="evenodd"
    d="M19.25 13.333C19.25 12.9188 19.5858 12.583 20 12.583H26.6667C27.0809 12.583 27.4167 12.9188 27.4167 13.333V18.6663C27.4167 19.0806 27.0809 19.4163 26.6667 19.4163H20C19.5858 19.4163 19.25 19.0806 19.25 18.6663V13.333ZM20.75 14.083V17.9163H25.9167V14.083H20.75Z"
  />
  <path
    fill-rule="evenodd"
    clip-rule="evenodd"
    d="M5.9165 24C5.9165 23.5858 6.25229 23.25 6.6665 23.25H13.3332C13.7474 23.25 14.0832 23.5858 14.0832 24V29.3333C14.0832 29.7475 13.7474 30.0833 13.3332 30.0833H6.6665C6.25229 30.0833 5.9165 29.7475 5.9165 29.3333V24ZM7.4165 24.75V28.5833H12.5832V24.75H7.4165Z"
  />
  <path
    fill-rule="evenodd"
    clip-rule="evenodd"
    d="M5.9165 13.333C5.9165 12.9188 6.25229 12.583 6.6665 12.583H13.3332C13.7474 12.583 14.0832 12.9188 14.0832 13.333V18.6663C14.0832 19.0806 13.7474 19.4163 13.3332 19.4163H6.6665C6.25229 19.4163 5.9165 19.0806 5.9165 18.6663V13.333ZM7.4165 14.083V17.9163H12.5832V14.083H7.4165Z"
  />
  <path
    fill-rule="evenodd"
    clip-rule="evenodd"
    d="M12.5835 16C12.5835 15.5858 12.9193 15.25 13.3335 15.25H20.0002C20.4144 15.25 20.7502 15.5858 20.7502 16C20.7502 16.4142 20.4144 16.75 20.0002 16.75H13.3335C12.9193 16.75 12.5835 16.4142 12.5835 16Z"
  />
  <path
    fill-rule="evenodd"
    clip-rule="evenodd"
    d="M10 7.25C10.4142 7.25 10.75 7.58579 10.75 8V13.3333C10.75 13.7475 10.4142 14.0833 10 14.0833C9.58579 14.0833 9.25 13.7475 9.25 13.3333V8C9.25 7.58579 9.58579 7.25 10 7.25Z"
  />
  <path
    fill-rule="evenodd"
    clip-rule="evenodd"
    d="M10 17.917C10.4142 17.917 10.75 18.2528 10.75 18.667V24.0003C10.75 24.4145 10.4142 24.7503 10 24.7503C9.58579 24.7503 9.25 24.4145 9.25 24.0003V18.667C9.25 18.2528 9.58579 17.917 10 17.917Z"
  />
</svg>
