<svg viewBox="0 0 32 32" xmlns="http://www.w3.org/2000/svg">
  <g clip-path="url(#clip0_15_8383)">
    <path
      d="M21.3337 11.2497L21.4098 11.2536C21.7881 11.2919 22.0837 11.6113 22.0837 11.9997C22.0837 12.3881 21.7881 12.7074 21.4098 12.7458L21.3337 12.7497H10.6667C10.2525 12.7497 9.91667 12.4139 9.91667 11.9997C9.91667 11.5855 10.2525 11.2497 10.6667 11.2497H21.3337Z"
    />
    <path
      d="M18.6667 16.583C19.0809 16.583 19.4167 16.9188 19.4167 17.333C19.4167 17.7472 19.0809 18.083 18.6667 18.083H10.6667C10.2525 18.083 9.91667 17.7472 9.91667 17.333C9.91667 16.9188 10.2525 16.583 10.6667 16.583H18.6667Z"
    />
    <path
      d="M27.25 17.666V9.33301C27.25 8.47105 26.9073 7.64465 26.2979 7.03516C25.6884 6.42566 24.862 6.08301 24 6.08301H8C7.13805 6.08301 6.31164 6.42566 5.70215 7.03516C5.09266 7.64465 4.75 8.47105 4.75 9.33301V20C4.75009 20.8618 5.09273 21.6884 5.70215 22.2979C6.31163 22.9072 7.13812 23.25 8 23.25H10.667C11.0811 23.2502 11.417 23.5859 11.417 24V26.6748L14.6279 24.1484C14.9831 23.9356 15.4432 24.0512 15.6562 24.4062C15.8691 24.7613 15.7543 25.2214 15.3994 25.4346L11.0527 28.6426C10.821 28.7816 10.532 28.7855 10.2969 28.6523C10.062 28.5192 9.91711 28.27 9.91699 28V24.75H8C6.7403 24.75 5.53238 24.2491 4.6416 23.3584C3.75088 22.4677 3.25009 21.2597 3.25 20V9.33301C3.25 8.07323 3.7508 6.86541 4.6416 5.97461C5.5324 5.08381 6.74022 4.58301 8 4.58301H24C25.2598 4.58301 26.4676 5.08381 27.3584 5.97461C28.2492 6.86541 28.75 8.07323 28.75 9.33301V17.666C28.75 18.0802 28.4142 18.416 28 18.416C27.5858 18.416 27.25 18.0802 27.25 17.666Z"
    />
    <path
      fill-rule="evenodd"
      clip-rule="evenodd"
      d="M28.5303 22.1367C28.8232 22.4296 28.8232 22.9044 28.5303 23.1973L23.197 28.5307C22.9041 28.8235 22.4292 28.8235 22.1363 28.5307L19.4697 25.864C19.1768 25.5711 19.1768 25.0962 19.4697 24.8033C19.7626 24.5104 20.2374 24.5104 20.5303 24.8033L22.6667 26.9397L27.4697 22.1367C27.7626 21.8438 28.2374 21.8438 28.5303 22.1367Z"
    />
  </g>
  <defs>
    <clipPath id="clip0_15_8383">
      <rect width="32" height="32" />
    </clipPath>
  </defs>
</svg>
