<svg viewBox="0 0 32 32" xmlns="http://www.w3.org/2000/svg">
  <g clip-path="url(#clip0_15_8382)">
    <path
      d="M21.3335 11.25C21.7476 11.2502 22.0835 11.5859 22.0835 12C22.0835 12.4141 21.7476 12.7498 21.3335 12.75H10.6665C10.2523 12.75 9.9165 12.4142 9.9165 12C9.9165 11.5858 10.2523 11.25 10.6665 11.25H21.3335Z"
    />
    <path
      d="M18.6665 16.583C19.0807 16.583 19.4165 16.9188 19.4165 17.333C19.4165 17.7472 19.0807 18.083 18.6665 18.083H10.6665C10.2523 18.083 9.9165 17.7472 9.9165 17.333C9.9165 16.9188 10.2523 16.583 10.6665 16.583H18.6665Z"
    />
    <path
      d="M3.25 20V9.33301C3.25 8.07323 3.7508 6.86541 4.6416 5.97461C5.5324 5.08381 6.74022 4.58301 8 4.58301H20.1631C20.5773 4.58301 20.9131 4.91879 20.9131 5.33301C20.9131 5.74722 20.5773 6.08301 20.1631 6.08301H8C7.13805 6.08301 6.31164 6.42566 5.70215 7.03516C5.09266 7.64465 4.75 8.47105 4.75 9.33301V20C4.75009 20.8618 5.09273 21.6884 5.70215 22.2979C6.31163 22.9072 7.13812 23.25 8 23.25H10.667C11.0811 23.2502 11.417 23.5859 11.417 24V26.6748L16.9473 23.3564C17.0637 23.2866 17.1972 23.2501 17.333 23.25H24C24.8619 23.25 25.6884 22.9072 26.2979 22.2979C26.9073 21.6884 27.2499 20.8618 27.25 20V12.2803C27.25 11.8661 27.5858 11.5303 28 11.5303C28.4142 11.5303 28.75 11.8661 28.75 12.2803V20C28.7499 21.2597 28.2491 22.4677 27.3584 23.3584C26.4676 24.2491 25.2597 24.75 24 24.75H17.54L11.0527 28.6426C10.821 28.7816 10.532 28.7855 10.2969 28.6523C10.062 28.5192 9.91711 28.27 9.91699 28V24.75H8C6.7403 24.75 5.53238 24.2491 4.6416 23.3584C3.75088 22.4677 3.25009 21.2597 3.25 20Z"
    />
    <path
      fill-rule="evenodd"
      clip-rule="evenodd"
      d="M23.9744 3.91673C24.6151 3.27598 25.4841 2.91602 26.3903 2.91602C27.2965 2.91602 28.1655 3.27598 28.8062 3.91673C29.447 4.55748 29.807 5.42653 29.807 6.33268C29.807 7.23884 29.447 8.10788 28.8062 8.74863C28.1655 9.38938 27.2965 9.74935 26.3903 9.74935C25.4841 9.74935 24.6151 9.38938 23.9744 8.74863C23.3336 8.10788 22.9736 7.23884 22.9736 6.33268C22.9736 5.42653 23.3336 4.55748 23.9744 3.91673ZM26.3903 4.41602C25.882 4.41602 25.3945 4.61795 25.035 4.97739C24.6756 5.33684 24.4736 5.82435 24.4736 6.33268C24.4736 6.84101 24.6756 7.32853 25.035 7.68797C25.3945 8.04742 25.882 8.24935 26.3903 8.24935C26.8986 8.24935 27.3861 8.04742 27.7456 7.68797C28.105 7.32853 28.307 6.84101 28.307 6.33268C28.307 5.82435 28.105 5.33684 27.7456 4.97739C27.3861 4.61795 26.8986 4.41602 26.3903 4.41602Z"
    />
  </g>
  <defs>
    <clipPath id="clip0_15_8382">
      <rect width="32" height="32" />
    </clipPath>
  </defs>
</svg>
