<svg viewBox="0 0 32 32" xmlns="http://www.w3.org/2000/svg">
  <g clip-path="url(#clip0_341_51876)">
    <path
      d="M27.25 14.667C27.25 9.43964 22.6024 5.03276 16.5859 4.7627L16 4.75C13.0163 4.75 10.1547 5.93514 8.04492 8.04492C5.93514 10.1547 4.75 13.0163 4.75 16C4.75 18.9837 5.93514 21.8453 8.04492 23.9551C10.1547 26.0649 13.0163 27.25 16 27.25C16.0228 27.25 16.0456 27.2509 16.0684 27.2529C16.2729 27.2716 16.4781 27.226 16.6553 27.1221C16.8325 27.0181 16.9732 26.8606 17.0566 26.6729C17.1399 26.4852 17.1626 26.2762 17.1211 26.0752C17.0829 25.8905 16.9908 25.7223 16.8594 25.5879C16.2461 25.2175 15.762 24.6661 15.4805 24.0049C15.1819 23.3036 15.1259 22.5226 15.3223 21.7861C15.5187 21.0496 15.9563 20.3999 16.5645 19.9404C17.1695 19.4834 17.909 19.2404 18.667 19.25H22C23.418 19.25 24.7642 18.7476 25.7441 17.877C26.7208 17.0091 27.2499 15.851 27.25 14.667ZM28.75 14.667C28.7499 16.3094 28.015 17.8661 26.7412 18.998C25.4705 20.1272 23.7632 20.75 22 20.75H18.6543C18.227 20.7432 17.8098 20.8792 17.4688 21.1367C17.1276 21.3945 16.8817 21.7597 16.7715 22.1729C16.6615 22.5858 16.6929 23.0237 16.8604 23.417C17.0069 23.7612 17.2503 24.0543 17.5596 24.2607L17.6963 24.3438L17.7725 24.3916C17.7968 24.4092 17.8197 24.4288 17.8418 24.4492C18.2231 24.8011 18.4849 25.2633 18.5898 25.7715C18.6948 26.2797 18.6375 26.808 18.4268 27.2822C18.216 27.7565 17.8626 28.1534 17.415 28.416C16.9829 28.6696 16.4844 28.7838 15.9854 28.749C12.6091 28.7451 9.37201 27.4033 6.98438 25.0156C4.59329 22.6245 3.25 19.3815 3.25 16C3.25 12.6185 4.59329 9.37546 6.98438 6.98438C9.37546 4.59329 12.6185 3.25 16 3.25L16.6484 3.26465C23.3118 3.56575 28.75 8.48101 28.75 14.667Z"
    />
    <path
      d="M11.917 13.9998C11.9169 13.8452 11.8553 13.697 11.7461 13.5876C11.6367 13.4782 11.4877 13.4167 11.333 13.4167C11.1784 13.4168 11.0302 13.4783 10.9209 13.5876C10.8116 13.697 10.7501 13.8452 10.75 13.9998C10.75 14.1545 10.8115 14.3034 10.9209 14.4128C11.0302 14.5221 11.1785 14.5837 11.333 14.5837C11.4877 14.5837 11.6367 14.5222 11.7461 14.4128C11.8555 14.3034 11.917 14.1545 11.917 13.9998ZM13.417 13.9998C13.417 14.5523 13.1973 15.0827 12.8066 15.4734C12.4159 15.8641 11.8855 16.0837 11.333 16.0837C10.7807 16.0837 10.251 15.8639 9.86035 15.4734C9.46965 15.0827 9.25 14.5523 9.25 13.9998C9.25009 13.4473 9.46973 12.9177 9.86035 12.5271C10.251 12.1365 10.7806 11.9168 11.333 11.9167C11.8855 11.9167 12.4159 12.1364 12.8066 12.5271C13.1972 12.9177 13.4169 13.4474 13.417 13.9998Z"
    />
    <path
      d="M17.251 9.99976C17.2509 9.84524 17.1893 9.69695 17.0801 9.58765C16.9707 9.47825 16.8217 9.41675 16.667 9.41675C16.5124 9.41683 16.3642 9.47833 16.2549 9.58765C16.1456 9.69697 16.0841 9.84516 16.084 9.99976C16.084 10.1545 16.1455 10.3034 16.2549 10.4128C16.3642 10.5221 16.5125 10.5837 16.667 10.5837C16.8217 10.5837 16.9707 10.5222 17.0801 10.4128C17.1895 10.3034 17.251 10.1545 17.251 9.99976ZM18.751 9.99976C18.751 10.5523 18.5313 11.0827 18.1406 11.4734C17.7499 11.8641 17.2195 12.0837 16.667 12.0837C16.1147 12.0837 15.5849 11.8639 15.1943 11.4734C14.8036 11.0827 14.584 10.5523 14.584 9.99976C14.5841 9.44734 14.8037 8.91772 15.1943 8.5271C15.585 8.13648 16.1146 7.91683 16.667 7.91675C17.2195 7.91675 17.7499 8.1364 18.1406 8.5271C18.5311 8.91771 18.7509 9.44742 18.751 9.99976Z"
    />
    <path
      d="M22.583 13.9998C22.5829 13.8452 22.5213 13.6969 22.4121 13.5876C22.3027 13.4783 22.1537 13.4167 21.999 13.4167C21.8444 13.4168 21.6962 13.4783 21.5869 13.5876C21.4776 13.697 21.4161 13.8452 21.416 13.9998C21.416 14.1545 21.4775 14.3034 21.5869 14.4128C21.6962 14.5221 21.8445 14.5837 21.999 14.5837C22.1537 14.5837 22.3027 14.5222 22.4121 14.4128C22.5215 14.3034 22.583 14.1545 22.583 13.9998ZM24.083 13.9998C24.083 14.5523 23.8634 15.0827 23.4727 15.4734C23.082 15.8641 22.5516 16.0837 21.999 16.0837C21.4467 16.0837 20.917 15.8639 20.5264 15.4734C20.1357 15.0827 19.916 14.5523 19.916 13.9998C19.9161 13.4473 20.1357 12.9177 20.5264 12.5271C20.917 12.1365 21.4466 11.9168 21.999 11.9167C22.5516 11.9167 23.082 12.1364 23.4727 12.5271C23.8632 12.9177 24.0829 13.4474 24.083 13.9998Z"
    />
  </g>
  <defs>
    <clipPath id="clip0_341_51876">
      <rect width="32" height="32" />
    </clipPath>
  </defs>
</svg>
