<svg viewBox="0 0 32 32" xmlns="http://www.w3.org/2000/svg">
  <g clip-path="url(#clip0_1070_67817)">
    <path
      d="M24.9066 9.33374C24.9066 8.03254 24.3901 6.78419 23.4701 5.86401C22.55 4.94389 21.3016 4.42662 20.0004 4.42651C18.699 4.42651 17.4509 4.94381 16.5307 5.86401L7.86368 14.53C6.4131 15.9806 5.59813 17.9483 5.59805 19.9998C5.59805 22.0512 6.4131 24.0188 7.86368 25.4695C9.31432 26.9201 11.2819 27.7351 13.3334 27.7351C15.3849 27.7351 17.3525 26.9201 18.8031 25.4695L27.4701 16.8035C27.763 16.5106 28.2378 16.5106 28.5307 16.8035C28.8232 17.0964 28.8234 17.5712 28.5307 17.864L19.8637 26.53C18.1317 28.262 15.7827 29.2351 13.3334 29.2351C10.8841 29.2351 8.53508 28.262 6.80313 26.53C5.07124 24.7981 4.09805 22.4491 4.09805 19.9998C4.09813 17.5505 5.07125 15.2014 6.80313 13.4695L15.4701 4.80347C16.6716 3.60196 18.3012 2.92651 20.0004 2.92651C21.6995 2.92662 23.3292 3.60204 24.5307 4.80347C25.7319 6.00495 26.4066 7.63472 26.4066 9.33374C26.4065 11.0328 25.7321 12.6626 24.5307 13.864L15.8637 22.53C15.1926 23.2011 14.2824 23.5788 13.3334 23.5789C12.3843 23.5789 11.4742 23.2011 10.8031 22.53C10.1321 21.859 9.75528 20.9488 9.75528 19.9998C9.75535 19.0508 10.1321 18.1405 10.8031 17.4695L19.4701 8.80347C19.763 8.51058 20.2378 8.51058 20.5307 8.80347C20.8232 9.09639 20.8234 9.57125 20.5307 9.86401L11.8637 18.53C11.474 18.9197 11.2554 19.4486 11.2553 19.9998C11.2553 20.5509 11.474 21.0797 11.8637 21.4695C12.2535 21.8593 12.7822 22.0789 13.3334 22.0789C13.8846 22.0788 14.4134 21.8592 14.8031 21.4695L23.4701 12.8035C24.3902 11.8833 24.9065 10.635 24.9066 9.33374Z"
    />
  </g>
  <defs>
    <clipPath id="clip0_1070_67817">
      <rect width="32" height="32" />
    </clipPath>
  </defs>
</svg>
