<svg viewBox="0 0 32 32" xmlns="http://www.w3.org/2000/svg">
  <g clip-path="url(#clip0_15_8412)">
    <path
      d="M27.25 17.29V14.667C27.25 14.1587 27.0479 13.671 26.6885 13.3115C26.329 12.9521 25.8413 12.75 25.333 12.75H6.66699C6.15866 12.75 5.67097 12.9521 5.31152 13.3115C4.95208 13.671 4.75 14.1587 4.75 14.667V20C4.75 20.5083 4.95208 20.996 5.31152 21.3555C5.67095 21.7148 6.15874 21.917 6.66699 21.917H9.33301C9.74722 21.917 10.083 22.2528 10.083 22.667C10.0828 23.0811 9.74711 23.417 9.33301 23.417H6.66699C5.76091 23.417 4.89171 23.0567 4.25098 22.416C3.61023 21.7753 3.25 20.9062 3.25 20V14.667C3.25 13.7608 3.61023 12.8917 4.25098 12.251C4.89173 11.6102 5.76084 11.25 6.66699 11.25H25.333C26.2392 11.25 27.1083 11.6102 27.749 12.251C28.3898 12.8917 28.75 13.7608 28.75 14.667V17.29C28.75 17.7043 28.4142 18.04 28 18.04C27.5858 18.04 27.25 17.7043 27.25 17.29Z"
    />
    <path
      d="M21.9165 12V6.66699C21.9165 6.15866 21.7144 5.67097 21.355 5.31152C20.9956 4.95226 20.5086 4.75009 20.0005 4.75H12.0005C11.4922 4.75 11.0045 4.95208 10.645 5.31152C10.2856 5.67097 10.0835 6.15866 10.0835 6.66699V12C10.0835 12.4142 9.74771 12.75 9.3335 12.75C8.91928 12.75 8.5835 12.4142 8.5835 12V6.66699C8.5835 5.76084 8.94372 4.89173 9.58447 4.25098C10.2252 3.61023 11.0943 3.25 12.0005 3.25H20.0005C20.9065 3.25009 21.7758 3.6103 22.4165 4.25098C23.057 4.89169 23.4165 5.76099 23.4165 6.66699V12C23.4165 12.4142 23.0807 12.75 22.6665 12.75C22.2524 12.7498 21.9165 12.4141 21.9165 12Z"
    />
    <path
      d="M8.5835 25.333V20C8.5835 19.0938 8.94372 18.2247 9.58447 17.584C10.2252 16.9432 11.0943 16.583 12.0005 16.583H19.9917C20.4059 16.583 20.7417 16.9188 20.7417 17.333C20.7417 17.7472 20.4059 18.083 19.9917 18.083H12.0005C11.4922 18.083 11.0045 18.2851 10.645 18.6445C10.2856 19.004 10.0835 19.4917 10.0835 20V25.333C10.0835 25.8413 10.2856 26.329 10.645 26.6885C11.0044 27.0478 11.4922 27.25 12.0005 27.25H17.02C17.434 27.2502 17.77 27.5859 17.77 28C17.7698 28.4139 17.4339 28.7498 17.02 28.75H12.0005C11.0944 28.75 10.2252 28.3897 9.58447 27.749C8.94372 27.1083 8.5835 26.2392 8.5835 25.333Z"
    />
    <path
      fill-rule="evenodd"
      clip-rule="evenodd"
      d="M24.5276 27.8643C24.2347 28.1572 23.7598 28.1572 23.4669 27.8643L20.0442 24.4416C19.7513 24.1487 19.7513 23.6739 20.0442 23.381C20.3371 23.0881 20.812 23.0881 21.1049 23.381L23.2472 25.5233L23.2472 20.4886C23.2472 20.0744 23.583 19.7386 23.9972 19.7386C24.4114 19.7386 24.7472 20.0744 24.7472 20.4886L24.7472 25.5233L26.8896 23.381C27.1825 23.0881 27.6574 23.0881 27.9503 23.381C28.2431 23.6739 28.2431 24.1487 27.9503 24.4416L24.5276 27.8643Z"
    />
  </g>
  <defs>
    <clipPath id="clip0_15_8412">
      <rect width="32" height="32" />
    </clipPath>
  </defs>
</svg>
