<svg viewBox="0 0 32 32" xmlns="http://www.w3.org/2000/svg">
  <path
    fill-rule="evenodd"
    clip-rule="evenodd"
    d="M12.25 3.27002C12.25 2.86002 12.59 2.52002 13 2.52002H29C29.41 2.52002 29.75 2.86002 29.75 3.27002C29.75 3.68002 29.41 4.02002 29 4.02002H13C12.59 4.02002 12.25 3.68002 12.25 3.27002Z"
  />
  <path
    fill-rule="evenodd"
    clip-rule="evenodd"
    d="M12.25 7.27002C12.25 6.86002 12.59 6.52002 13 6.52002H29C29.41 6.52002 29.75 6.86002 29.75 7.27002C29.75 7.68002 29.41 8.02002 29 8.02002H13C12.59 8.02002 12.25 7.68002 12.25 7.27002Z"
  />
  <path
    fill-rule="evenodd"
    clip-rule="evenodd"
    d="M12.25 29.6802C12.25 29.2702 12.54 28.9302 12.9 28.9302H26.81C27.17 28.9302 27.46 29.2702 27.46 29.6802C27.46 30.0902 27.17 30.4302 26.81 30.4302H12.9C12.54 30.4302 12.25 30.0902 12.25 29.6802Z"
  />
  <path
    fill-rule="evenodd"
    clip-rule="evenodd"
    d="M10.75 20.3599C10.75 20.7699 10.41 21.1099 10 21.1099H3C2.59 21.1099 2.25 20.7699 2.25 20.3599C2.25 19.9499 2.59 19.6099 3 19.6099H10C10.41 19.6099 10.75 19.9499 10.75 20.3599Z"
  />
  <path
    fill-rule="evenodd"
    clip-rule="evenodd"
    d="M11.0299 19.8298C11.3199 20.1198 11.3199 20.5998 11.0299 20.8898L7.02994 24.8898C6.73994 25.1798 6.25994 25.1798 5.96994 24.8898C5.67994 24.5998 5.67994 24.1198 5.96994 23.8298L9.43994 20.3598L5.96994 16.8898C5.67994 16.5998 5.67994 16.1198 5.96994 15.8298C6.25994 15.5398 6.73994 15.5398 7.02994 15.8298L11.0299 19.8298Z"
  />
  <path
    d="M14.64 22.0302L20.25 25.1902V18.9102L14.64 15.7502V22.0302ZM21.75 18.9102V25.1902L27.36 22.0302V15.7502L21.75 18.9102ZM18.97 16.4702L21 17.6102L26.58 14.4702L24.55 13.3302L18.97 16.4702ZM15.42 14.4702L17.45 15.6102L23.03 12.4702L21 11.3302L15.42 14.4702ZM28.86 22.4702C28.86 22.7402 28.71 22.9902 28.48 23.1202L21.37 27.1202C21.14 27.2502 20.86 27.2502 20.63 27.1202L13.52 23.1202C13.28 22.9902 13.14 22.7402 13.14 22.4702V14.4702C13.14 14.2002 13.29 13.9502 13.52 13.8202L20.63 9.82016C20.86 9.69016 21.14 9.69016 21.37 9.82016L28.48 13.8202C28.72 13.9502 28.86 14.2002 28.86 14.4702V22.4702Z"
  />
</svg>
