<svg viewBox="0 0 32 32" xmlns="http://www.w3.org/2000/svg">
  <path
    fill-rule="evenodd"
    clip-rule="evenodd"
    d="M12.25 3.27002C12.25 2.86002 12.59 2.52002 13 2.52002H29C29.41 2.52002 29.75 2.86002 29.75 3.27002C29.75 3.68002 29.41 4.02002 29 4.02002H13C12.59 4.02002 12.25 3.68002 12.25 3.27002Z"
  />
  <path
    fill-rule="evenodd"
    clip-rule="evenodd"
    d="M12.25 8.27002C12.25 7.86002 12.59 7.52002 13 7.52002H29C29.41 7.52002 29.75 7.86002 29.75 8.27002C29.75 8.68002 29.41 9.02002 29 9.02002H13C12.59 9.02002 12.25 8.68002 12.25 8.27002Z"
  />
  <path
    fill-rule="evenodd"
    clip-rule="evenodd"
    d="M10.75 20.3599C10.75 20.7699 10.41 21.1099 10 21.1099H3C2.59 21.1099 2.25 20.7699 2.25 20.3599C2.25 19.9499 2.59 19.6099 3 19.6099H10C10.41 19.6099 10.75 19.9499 10.75 20.3599Z"
  />
  <path
    fill-rule="evenodd"
    clip-rule="evenodd"
    d="M11.0299 19.8298C11.3199 20.1198 11.3199 20.5998 11.0299 20.8898L7.02994 24.8898C6.73994 25.1798 6.25994 25.1798 5.96994 24.8898C5.67994 24.5998 5.67994 24.1198 5.96994 23.8298L9.43994 20.3598L5.96994 16.8898C5.67994 16.5998 5.67994 16.1198 5.96994 15.8298C6.25994 15.5398 6.73994 15.5398 7.02994 15.8298L11.0299 19.8298Z"
  />
  <path
    d="M15.52 25.2899L21.13 28.4499V22.1699L15.52 19.0099V25.2899ZM22.63 22.1699V28.4499L28.24 25.2899V19.0099L22.63 22.1699ZM19.86 19.7299L21.89 20.8699L27.47 17.7299L25.44 16.5899L19.86 19.7299ZM16.3 17.7299L18.33 18.8699L23.91 15.7299L21.88 14.5899L16.3 17.7299ZM29.74 25.7299C29.74 25.9999 29.59 26.2499 29.36 26.3799L22.25 30.3799C22.02 30.5099 21.74 30.5099 21.51 30.3799L14.4 26.3799C14.16 26.2499 14.02 25.9999 14.02 25.7299V17.7299C14.02 17.4599 14.17 17.2099 14.4 17.0799L21.51 13.0799C21.74 12.9499 22.02 12.9499 22.25 13.0799L29.36 17.0799C29.6 17.2099 29.74 17.4599 29.74 17.7299V25.7299Z"
  />
</svg>
