<svg viewBox="0 0 32 32" xmlns="http://www.w3.org/2000/svg">
  <g clip-path="url(#clip0_4311_16478)">
    <path
      d="M18.624 4.58423C18.9517 4.56557 19.2538 4.76229 19.3691 5.06958L23.1865 15.2502H28C28.4142 15.2502 28.75 15.586 28.75 16.0002C28.7498 16.4143 28.4141 16.7502 28 16.7502H22.667C22.3544 16.7502 22.0746 16.5557 21.9648 16.2629L18.8096 7.85083L14.0605 26.8489C13.9808 27.1672 13.7036 27.3966 13.376 27.4153C13.0482 27.434 12.7461 27.2373 12.6309 26.9299L8.81348 16.7502H4C3.58589 16.7502 3.25018 16.4143 3.25 16.0002C3.25 15.586 3.58579 15.2502 4 15.2502H9.33301L9.44922 15.259C9.71347 15.3003 9.93913 15.4807 10.0352 15.7366L13.1895 24.1477L17.9395 5.15161L17.9775 5.03638C18.0884 4.77867 18.3371 4.60057 18.624 4.58423Z"
    />
  </g>
  <defs>
    <clipPath id="clip0_4311_16478">
      <rect width="32" height="32" />
    </clipPath>
  </defs>
</svg>
