<svg viewBox="0 0 32 32" xmlns="http://www.w3.org/2000/svg">
  <g clip-path="url(#clip0_15_8398)">
    <path
      d="M27.4701 3.46959C27.763 3.17686 28.2378 3.17675 28.5306 3.46959C28.8233 3.76244 28.8233 4.23728 28.5306 4.53014L13.8636 19.1971C13.5708 19.4898 13.0959 19.4898 12.8031 19.1971C12.5102 18.9043 12.5104 18.4295 12.8031 18.1366L27.4701 3.46959Z"
    />
    <path
      d="M27.7451 3.29466C28.0186 3.1959 28.3247 3.26388 28.5303 3.46946C28.7359 3.67508 28.8038 3.98112 28.7051 4.25462L25.4551 13.2546C25.3143 13.644 24.8846 13.8455 24.4951 13.7048C24.1057 13.564 23.9043 13.1343 24.0449 12.7449L26.752 5.24681L4.35156 13.3366L13.6689 17.9958L13.7705 18.0574C13.8665 18.1262 13.9454 18.217 14 18.323L14.7402 19.7615C14.9298 20.1298 14.7853 20.5827 14.417 20.7722C14.0487 20.9617 13.5967 20.8163 13.4072 20.448L12.7793 19.2283L3.66504 14.6706C3.41702 14.5518 3.20641 14.3662 3.05762 14.1345C2.90421 13.8955 2.82227 13.6168 2.82227 13.3327C2.82233 13.0488 2.90427 12.7709 3.05762 12.532L3.11816 12.445C3.26635 12.2469 3.46154 12.0877 3.6875 11.9841C3.70635 11.9755 3.72562 11.9677 3.74512 11.9607L27.7451 3.29466Z"
    />
    <path
      d="M28.1508 19.9518L25.8784 19.3429L25.2744 21.5974C25.1671 21.9975 24.7559 22.2349 24.3558 22.1277C23.9557 22.0205 23.7183 21.6092 23.8255 21.2091L24.6237 18.2302C24.7309 17.8301 25.1421 17.5927 25.5422 17.6999L28.539 18.5029C28.9389 18.6103 29.1765 19.0215 29.0694 19.4215C28.9621 19.8213 28.5507 20.0587 28.1508 19.9518Z"
    />
    <path
      d="M17.235 22.195C17.3484 21.2497 17.6975 20.3478 18.2501 19.5725C18.8026 18.7973 19.541 18.1734 20.3974 17.7578C20.7701 17.577 21.2194 17.7327 21.4003 18.1054C21.5806 18.4778 21.4252 18.9264 21.0529 19.1072C20.4223 19.4132 19.8783 19.8729 19.4715 20.4437C19.0648 21.0143 18.8074 21.6778 18.7239 22.3735C18.6405 23.0695 18.7334 23.7756 18.9938 24.4264C19.2541 25.0771 19.6738 25.6517 20.214 26.098C20.7544 26.5444 21.3983 26.8481 22.0864 26.9809C22.7747 27.1137 23.4858 27.0718 24.1534 26.8584C24.8208 26.645 25.424 26.2674 25.9075 25.7603C26.3911 25.2531 26.7396 24.6321 26.921 23.9553C27.3364 22.4049 26.4544 20.797 25.1419 19.7095C24.8232 19.4452 24.7784 18.9725 25.0426 18.6537C25.3069 18.3347 25.7804 18.2904 26.0994 18.5547C27.6224 19.8166 29.0031 21.9764 28.3689 24.3432C28.1225 25.2628 27.65 26.1063 26.9931 26.7953C26.3361 27.4842 25.5166 27.9971 24.6098 28.2869C23.7029 28.5767 22.7378 28.6341 21.803 28.4538C20.868 28.2735 19.9932 27.8609 19.2591 27.2546C18.525 26.6482 17.9546 25.8674 17.601 24.9834C17.2474 24.0993 17.1216 23.1404 17.235 22.195Z"
    />
  </g>
  <defs>
    <clipPath id="clip0_15_8398">
      <rect width="32" height="32" />
    </clipPath>
  </defs>
</svg>
