<svg viewBox="0 0 32 32" xmlns="http://www.w3.org/2000/svg">
  <path
    fill-rule="evenodd"
    clip-rule="evenodd"
    d="M20.2507 5.58403C20.8915 4.94328 21.7605 4.58331 22.6667 4.58331C23.5728 4.58331 24.4419 4.94328 25.0826 5.58403C25.7234 6.22478 26.0833 7.09382 26.0833 7.99998C26.0833 8.90614 25.7234 9.77518 25.0826 10.4159C24.4419 11.0567 23.5728 11.4166 22.6667 11.4166C21.7605 11.4166 20.8915 11.0567 20.2507 10.4159C19.61 9.77518 19.25 8.90614 19.25 7.99998C19.25 7.09382 19.61 6.22478 20.2507 5.58403ZM22.6667 6.08331C22.1583 6.08331 21.6708 6.28525 21.3114 6.64469C20.9519 7.00414 20.75 7.49165 20.75 7.99998C20.75 8.50831 20.9519 8.99582 21.3114 9.35527C21.6708 9.71471 22.1583 9.91665 22.6667 9.91665C23.175 9.91665 23.6625 9.71471 24.022 9.35527C24.3814 8.99582 24.5833 8.50831 24.5833 7.99998C24.5833 7.49165 24.3814 7.00414 24.022 6.64469C23.6625 6.28525 23.175 6.08331 22.6667 6.08331Z"
  />
  <path
    fill-rule="evenodd"
    clip-rule="evenodd"
    d="M8.3615 14.8059C9.48213 14.201 10.7397 13.8947 12.013 13.9168C12.4271 13.9239 12.7571 14.2655 12.7499 14.6796C12.7427 15.0938 12.4012 15.4237 11.987 15.4165C10.9712 15.399 9.96805 15.6433 9.07406 16.1259C8.18007 16.6085 7.42541 17.3132 6.88276 18.172C6.34011 19.0309 6.02776 20.015 5.9758 21.0297C5.92383 22.0443 6.13399 23.0552 6.58604 23.965C7.03809 24.8748 7.7168 25.6529 8.5568 26.2243C9.39681 26.7958 10.3698 27.1413 11.3821 27.2276C12.3943 27.3139 13.4118 27.1381 14.3364 26.7171C15.261 26.2962 16.0616 25.6442 16.6612 24.824C16.9057 24.4896 17.3749 24.4167 17.7093 24.6612C18.0437 24.9056 18.1166 25.3749 17.8721 25.7093C17.1206 26.7374 16.117 27.5546 14.9579 28.0823C13.7989 28.61 12.5235 28.8304 11.2546 28.7222C9.98573 28.614 8.76607 28.1809 7.71311 27.4646C6.66015 26.7483 5.80937 25.7729 5.24271 24.6324C4.67606 23.4919 4.41261 22.2248 4.47776 20.9529C4.5429 19.6811 4.93444 18.4475 5.61466 17.3708C6.29488 16.2942 7.24086 15.4109 8.3615 14.8059Z"
  />
  <path
    fill-rule="evenodd"
    clip-rule="evenodd"
    d="M13.1514 8.60571C13.3705 8.55094 13.6027 8.59781 13.7833 8.73332L19.1167 12.7333C19.4241 12.9639 19.5075 13.3896 19.3098 13.7192L15.9913 19.25H20C20.2278 19.25 20.4433 19.3536 20.5856 19.5315L25.919 26.1981C26.1777 26.5216 26.1253 26.9935 25.8018 27.2523C25.4784 27.5111 25.0064 27.4586 24.7477 27.1352L19.6395 20.75H14.6667C14.3965 20.75 14.1471 20.6046 14.014 20.3695C13.8809 20.1344 13.8845 19.8458 14.0235 19.6141L17.6755 13.5275L13.1689 10.1475L8.1819 11.3943C7.78005 11.4947 7.37285 11.2504 7.27239 10.8486C7.17193 10.4467 7.41625 10.0395 7.81809 9.93905L13.1514 8.60571Z"
  />
</svg>
