<svg viewBox="0 0 24 24" xmlns="http://www.w3.org/2000/svg">
  <g clip-path="url(#clip0_13_8132)">
    <path
      d="M5.7002 5.91748V5.61719C5.7002 5.30653 5.95204 5.05469 6.2627 5.05469C6.57336 5.05469 6.8252 5.30653 6.8252 5.61719V5.91748C6.82504 6.22801 6.57326 6.47998 6.2627 6.47998C5.95213 6.47998 5.70035 6.22801 5.7002 5.91748Z"
    />
    <path
      d="M20.7375 13.9729V5.61816C20.7375 5.0064 20.2397 4.50794 19.6279 4.50781H7.93555C7.32371 4.50781 6.8252 5.00632 6.8252 5.61816C6.82501 5.92866 6.57324 6.18066 6.2627 6.18066C5.95215 6.18066 5.70039 5.92866 5.7002 5.61816C5.7002 4.385 6.70239 3.38281 7.93555 3.38281H19.6279C20.861 3.38294 21.8625 4.38508 21.8625 5.61816V13.9729C21.8625 15.2059 20.861 16.2074 19.6279 16.2075C19.3173 16.2075 19.0654 15.9557 19.0654 15.645C19.0656 15.3345 19.3174 15.0825 19.6279 15.0825C20.2396 15.0824 20.7375 14.5846 20.7375 13.9729Z"
    />
    <path
      d="M17.1746 10.0283C17.1746 9.4165 16.6768 8.918 16.0649 8.91797H4.37256C3.76072 8.91797 3.26221 9.41648 3.26221 10.0283C3.26219 10.058 3.25933 10.087 3.25488 10.1155V18.3831C3.25493 18.9949 3.75342 19.4927 4.36523 19.4927H16.0649C16.6767 19.4926 17.1745 18.9948 17.1746 18.3831V10.0283ZM18.2996 18.3831C18.2995 19.6162 17.298 20.6176 16.0649 20.6177H4.36523C3.1321 20.6177 2.12993 19.6162 2.12988 18.3831V10.0283C2.12988 9.99336 2.13403 9.95897 2.14014 9.92578C2.19367 8.73995 3.17365 7.79297 4.37256 7.79297H16.0649C17.2981 7.793 18.2996 8.79518 18.2996 10.0283V18.3831Z"
    />
    <path
      d="M5.2124 10.2979C5.52306 10.2979 5.7749 10.5497 5.7749 10.8604C5.7749 11.171 5.52306 11.4229 5.2124 11.4229H5.20508C4.89442 11.4229 4.64258 11.171 4.64258 10.8604C4.64258 10.5497 4.89442 10.2979 5.20508 10.2979H5.2124Z"
    />
    <path
      d="M7.71729 10.2979C8.02795 10.2979 8.27979 10.5497 8.27979 10.8604C8.27979 11.171 8.02795 11.4229 7.71729 11.4229H7.70996C7.3993 11.4229 7.14746 11.171 7.14746 10.8604C7.14746 10.5497 7.3993 10.2979 7.70996 10.2979H7.71729Z"
    />
    <path
      d="M5.7002 6.45776V5.625C5.7002 5.31434 5.95204 5.0625 6.2627 5.0625C6.57336 5.0625 6.8252 5.31434 6.8252 5.625V6.45776C6.82505 6.7683 6.57327 7.02026 6.2627 7.02026C5.95212 7.02026 5.70034 6.7683 5.7002 6.45776Z"
    />
    <path
      d="M20.7375 13.9729V5.61816C20.7375 5.0064 20.2397 4.50794 19.6279 4.50781H7.93555C7.32371 4.50781 6.8252 5.00632 6.8252 5.61816C6.82501 5.92866 6.57324 6.18066 6.2627 6.18066C5.95215 6.18066 5.70039 5.92866 5.7002 5.61816C5.7002 4.385 6.70239 3.38281 7.93555 3.38281H19.6279C20.861 3.38294 21.8625 4.38508 21.8625 5.61816V13.9729C21.8625 15.2059 20.861 16.2074 19.6279 16.2075C19.3173 16.2075 19.0654 15.9557 19.0654 15.645C19.0656 15.3345 19.3174 15.0825 19.6279 15.0825C20.2396 15.0824 20.7375 14.5846 20.7375 13.9729Z"
    />
    <path
      d="M8.78223 5.89453C9.09289 5.89453 9.34473 6.14637 9.34473 6.45703C9.34473 6.76769 9.09289 7.01953 8.78223 7.01953H8.7749C8.46424 7.01953 8.2124 6.76769 8.2124 6.45703C8.2124 6.14637 8.46424 5.89453 8.7749 5.89453H8.78223Z"
    />
    <path
      d="M11.2871 5.89453C11.5978 5.89453 11.8496 6.14637 11.8496 6.45703C11.8496 6.76769 11.5978 7.01953 11.2871 7.01953H11.2798C10.9691 7.01953 10.7173 6.76769 10.7173 6.45703C10.7173 6.14637 10.9691 5.89453 11.2798 5.89453H11.2871Z"
    />
  </g>
  <defs>
    <clipPath id="clip0_13_8132">
      <rect width="24" height="24" />
    </clipPath>
  </defs>
</svg>
