<svg viewBox="0 0 32 32" xmlns="http://www.w3.org/2000/svg">
  <g clip-path="url(#clip0_15_8394)">
    <path
      d="M7.6001 7.89062V7.49023C7.6001 7.07602 7.93588 6.74023 8.3501 6.74023C8.76431 6.74023 9.1001 7.07602 9.1001 7.49023V7.89062C9.09989 8.30466 8.76418 8.64062 8.3501 8.64062C7.93601 8.64062 7.60031 8.30466 7.6001 7.89062Z"
    />
    <path
      d="M27.6499 18.6299V7.49023C27.6499 6.67455 26.9861 6.00994 26.1704 6.00977H10.5806C9.76478 6.00977 9.1001 6.67445 9.1001 7.49023C9.09984 7.90423 8.76415 8.24023 8.3501 8.24023C7.93604 8.24023 7.60035 7.90423 7.6001 7.49023C7.6001 5.84602 8.93635 4.50977 10.5806 4.50977H26.1704C27.8145 4.50994 29.1499 5.84613 29.1499 7.49023V18.6299C29.1498 20.2739 27.8144 21.6092 26.1704 21.6094C25.7562 21.6094 25.4204 21.2736 25.4204 20.8594C25.4206 20.4453 25.7563 20.1094 26.1704 20.1094C26.986 20.1092 27.6498 19.4455 27.6499 18.6299Z"
    />
    <path
      d="M22.8994 13.3701C22.8994 12.5544 22.2357 11.8897 21.4199 11.8896H5.83008C5.01429 11.8896 4.34961 12.5543 4.34961 13.3701C4.34959 13.4097 4.34577 13.4484 4.33984 13.4863V24.5098C4.33991 25.3255 5.00456 25.9893 5.82031 25.9893H21.4199C22.2356 25.9892 22.8994 25.3255 22.8994 24.5098V13.3701ZM24.3994 24.5098C24.3994 26.1539 23.0641 27.4892 21.4199 27.4893H5.82031C4.17614 27.4893 2.83991 26.1539 2.83984 24.5098V13.3701C2.83984 13.3235 2.84538 13.2777 2.85352 13.2334C2.92489 11.6523 4.23154 10.3896 5.83008 10.3896H21.4199C23.0641 10.3897 24.3994 11.7259 24.3994 13.3701V24.5098Z"
    />
    <path
      d="M6.94971 13.7305C7.36392 13.7305 7.69971 14.0663 7.69971 14.4805C7.69971 14.8947 7.36392 15.2305 6.94971 15.2305H6.93994C6.52573 15.2305 6.18994 14.8947 6.18994 14.4805C6.18994 14.0663 6.52573 13.7305 6.93994 13.7305H6.94971Z"
    />
    <path
      d="M10.2896 13.7305C10.7038 13.7305 11.0396 14.0663 11.0396 14.4805C11.0396 14.8947 10.7038 15.2305 10.2896 15.2305H10.2798C9.86557 15.2305 9.52979 14.8947 9.52979 14.4805C9.52979 14.0663 9.86557 13.7305 10.2798 13.7305H10.2896Z"
    />
    <path
      d="M7.6001 8.61035V7.5C7.6001 7.08579 7.93588 6.75 8.3501 6.75C8.76431 6.75 9.1001 7.08579 9.1001 7.5V8.61035C9.09991 9.0244 8.76419 9.36035 8.3501 9.36035C7.936 9.36035 7.60029 9.0244 7.6001 8.61035Z"
    />
    <path
      d="M27.6499 18.6299V7.49023C27.6499 6.67455 26.9861 6.00994 26.1704 6.00977H10.5806C9.76478 6.00977 9.1001 6.67445 9.1001 7.49023C9.09984 7.90423 8.76415 8.24023 8.3501 8.24023C7.93604 8.24023 7.60035 7.90423 7.6001 7.49023C7.6001 5.84602 8.93635 4.50977 10.5806 4.50977H26.1704C27.8145 4.50994 29.1499 5.84613 29.1499 7.49023V18.6299C29.1498 20.2739 27.8144 21.6092 26.1704 21.6094C25.7562 21.6094 25.4204 21.2736 25.4204 20.8594C25.4206 20.4453 25.7563 20.1094 26.1704 20.1094C26.986 20.1092 27.6498 19.4455 27.6499 18.6299Z"
    />
    <path
      d="M11.71 7.86035C12.1242 7.86035 12.46 8.19614 12.46 8.61035C12.46 9.02457 12.1242 9.36035 11.71 9.36035H11.7002C11.286 9.36035 10.9502 9.02457 10.9502 8.61035C10.9502 8.19614 11.286 7.86035 11.7002 7.86035H11.71Z"
    />
    <path
      d="M15.0498 7.86035C15.464 7.86035 15.7998 8.19614 15.7998 8.61035C15.7998 9.02457 15.464 9.36035 15.0498 9.36035H15.04C14.6258 9.36035 14.29 9.02457 14.29 8.61035C14.29 8.19614 14.6258 7.86035 15.04 7.86035H15.0498Z"
    />
  </g>
  <defs>
    <clipPath id="clip0_15_8394">
      <rect width="32" height="32" />
    </clipPath>
  </defs>
</svg>
