<svg viewBox="0 0 24 24" xmlns="http://www.w3.org/2000/svg">
  <path
    fill-rule="evenodd"
    clip-rule="evenodd"
    d="M3 2.4375C3.31066 2.4375 3.5625 2.68934 3.5625 3V20.4375H21C21.3107 20.4375 21.5625 20.6893 21.5625 21C21.5625 21.3107 21.3107 21.5625 21 21.5625H3C2.68934 21.5625 2.4375 21.3107 2.4375 21V3C2.4375 2.68934 2.68934 2.4375 3 2.4375Z"
  />
  <path
    fill-rule="evenodd"
    clip-rule="evenodd"
    d="M20 17.4375C20.3107 17.4375 20.5625 17.6893 20.5625 18V21C20.5625 21.3107 20.3107 21.5625 20 21.5625C19.6893 21.5625 19.4375 21.3107 19.4375 21V18C19.4375 17.6893 19.6893 17.4375 20 17.4375Z"
  />
  <path
    fill-rule="evenodd"
    clip-rule="evenodd"
    d="M16 15.4375C16.3107 15.4375 16.5625 15.6893 16.5625 16V21C16.5625 21.3107 16.3107 21.5625 16 21.5625C15.6893 21.5625 15.4375 21.3107 15.4375 21V16C15.4375 15.6893 15.6893 15.4375 16 15.4375Z"
  />
  <path
    fill-rule="evenodd"
    clip-rule="evenodd"
    d="M12 12.4375C12.3107 12.4375 12.5625 12.6893 12.5625 13V21C12.5625 21.3107 12.3107 21.5625 12 21.5625C11.6893 21.5625 11.4375 21.3107 11.4375 21V13C11.4375 12.6893 11.6893 12.4375 12 12.4375Z"
  />
  <path
    fill-rule="evenodd"
    clip-rule="evenodd"
    d="M8 15.4375C8.31066 15.4375 8.5625 15.6893 8.5625 16V21C8.5625 21.3107 8.31066 21.5625 8 21.5625C7.68934 21.5625 7.4375 21.3107 7.4375 21V16C7.4375 15.6893 7.68934 15.4375 8 15.4375Z"
  />
  <path
    fill-rule="evenodd"
    clip-rule="evenodd"
    d="M6.65609 10.706C5.74519 11.2315 4.58259 11.5625 3 11.5625C2.68934 11.5625 2.4375 11.3107 2.4375 11C2.4375 10.6893 2.68934 10.4375 3 10.4375C4.41741 10.4375 5.37981 10.1435 6.09391 9.73152C6.81412 9.31601 7.32383 8.75728 7.81076 8.14861C7.90103 8.03577 7.99224 7.91863 8.08512 7.79934C8.47285 7.30136 8.88975 6.76591 9.3899 6.34913C10.0479 5.80082 10.8613 5.4375 12 5.4375C13.1387 5.4375 13.9521 5.80082 14.6101 6.34913C15.1102 6.76591 15.5272 7.30137 15.9149 7.79935C16.0078 7.91863 16.099 8.03577 16.1892 8.14861C16.6762 8.75728 17.1859 9.31601 17.9061 9.73152C18.6202 10.1435 19.5826 10.4375 21 10.4375C21.3107 10.4375 21.5625 10.6893 21.5625 11C21.5625 11.3107 21.3107 11.5625 21 11.5625C19.4174 11.5625 18.2548 11.2315 17.3439 10.706C16.4391 10.184 15.8238 9.49272 15.3108 8.85139C15.1979 8.71037 15.0919 8.57451 14.9899 8.44395C14.6103 7.95781 14.288 7.54515 13.8899 7.21337C13.4229 6.82418 12.8613 6.5625 12 6.5625C11.1387 6.5625 10.5771 6.82418 10.1101 7.21337C9.71198 7.54515 9.38973 7.95781 9.0101 8.44395C8.90815 8.57451 8.80205 8.71037 8.68924 8.85139C8.17617 9.49272 7.56088 10.184 6.65609 10.706Z"
  />
</svg>
