<svg viewBox="0 0 32 32" xmlns="http://www.w3.org/2000/svg">
  <g clip-path="url(#clip0_1102_370086)">
    <path
      d="M4.58331 25.3336V9.33362C4.58331 8.42746 4.94354 7.55835 5.58429 6.9176C6.22504 6.27685 7.09415 5.91663 8.00031 5.91663H10.6663C11.0805 5.91663 11.4163 6.25241 11.4163 6.66663C11.4163 7.08084 11.0805 7.41663 10.6663 7.41663H8.00031C7.49197 7.41663 7.00428 7.6187 6.64484 7.97815C6.28539 8.33759 6.08331 8.82529 6.08331 9.33362V25.3336C6.0834 25.8418 6.28557 26.3288 6.64484 26.6881C7.00428 27.0476 7.49197 27.2496 8.00031 27.2496H15.596C16.0101 27.2496 16.3458 27.5856 16.346 27.9996C16.346 28.4138 16.0102 28.7496 15.596 28.7496H8.00031C7.0943 28.7496 6.22501 28.3902 5.58429 27.7496C4.94362 27.109 4.5834 26.2397 4.58331 25.3336Z"
    />
    <path
      d="M23.25 18.6666C23.25 18.2524 23.5858 17.9166 24 17.9166C24.4142 17.9166 24.75 18.2524 24.75 18.6666V23.2496H29.333C29.7471 23.2496 30.0828 23.5856 30.083 23.9996C30.083 24.4138 29.7472 24.7496 29.333 24.7496H24C23.5858 24.7496 23.25 24.4138 23.25 23.9996V18.6666Z"
    />
    <path
      d="M23.2497 14.6666V9.33362C23.2497 8.82529 23.0476 8.33759 22.6882 7.97815C22.3288 7.61888 21.8418 7.41671 21.3337 7.41663H18.6667C18.2525 7.41663 17.9167 7.08084 17.9167 6.66663C17.9167 6.25241 18.2525 5.91663 18.6667 5.91663H21.3337C22.2397 5.91671 23.109 6.27693 23.7497 6.9176C24.3902 7.55832 24.7497 8.42761 24.7497 9.33362V14.6666C24.7497 15.0808 24.4139 15.4166 23.9997 15.4166C23.5856 15.4164 23.2497 15.0807 23.2497 14.6666Z"
    />
    <path
      d="M17.9167 6.66699C17.9167 6.15866 17.7146 5.67097 17.3552 5.31152C16.9957 4.95208 16.508 4.75 15.9997 4.75H13.3337C12.8253 4.75 12.3377 4.95208 11.9782 5.31152C11.6188 5.67097 11.4167 6.15866 11.4167 6.66699C11.4168 7.17513 11.6189 7.66213 11.9782 8.02148C12.3377 8.38093 12.8253 8.58301 13.3337 8.58301H15.9997C16.508 8.58301 16.9957 8.38093 17.3552 8.02148C17.7144 7.66213 17.9166 7.17513 17.9167 6.66699ZM19.4167 6.66699C19.4166 7.57303 19.0564 8.44234 18.4157 9.08301C17.775 9.72355 16.9057 10.083 15.9997 10.083H13.3337C12.4277 10.083 11.5584 9.72355 10.9177 9.08301C10.277 8.44234 9.91677 7.57303 9.91669 6.66699C9.91669 5.76084 10.2769 4.89173 10.9177 4.25098C11.5584 3.61023 12.4275 3.25 13.3337 3.25H15.9997C16.9059 3.25 17.775 3.61023 18.4157 4.25098C19.0565 4.89173 19.4167 5.76084 19.4167 6.66699Z"
    />
    <path
      d="M28.5837 23.9996C28.5836 22.7843 28.1003 21.6188 27.2409 20.7594C26.3814 19.8999 25.2153 19.4166 23.9997 19.4166C22.7842 19.4167 21.6189 19.8999 20.7595 20.7594C19.9 21.6189 19.4168 22.7842 19.4167 23.9996C19.4167 25.2152 19.8999 26.3813 20.7595 27.2408C21.6189 28.1002 22.7843 28.5835 23.9997 28.5836C25.2153 28.5836 26.3814 28.1004 27.2409 27.2408C28.1004 26.3813 28.5837 25.2152 28.5837 23.9996ZM30.0837 23.9996C30.0837 25.613 29.4423 27.1605 28.3015 28.3014C27.1606 29.4422 25.6131 30.0836 23.9997 30.0836C22.3865 30.0835 20.8397 29.4421 19.6989 28.3014C18.5581 27.1605 17.9167 25.613 17.9167 23.9996C17.9168 22.3864 18.5581 20.8396 19.6989 19.6989C20.8397 18.5581 22.3864 17.9167 23.9997 17.9166C25.6131 17.9166 27.1606 18.558 28.3015 19.6989C29.4421 20.8396 30.0836 22.3864 30.0837 23.9996Z"
    />
    <path
      d="M15.9997 13.9166C16.4139 13.9166 16.7497 14.2524 16.7497 14.6666C16.7497 15.0808 16.4139 15.4166 15.9997 15.4166H10.6667C10.2525 15.4166 9.91669 15.0808 9.91669 14.6666C9.91669 14.2524 10.2525 13.9166 10.6667 13.9166H15.9997Z"
    />
    <path
      d="M14.6667 19.25C15.0809 19.25 15.4167 19.5858 15.4167 20C15.4167 20.4142 15.0809 20.75 14.6667 20.75H10.6667C10.2525 20.75 9.91669 20.4142 9.91669 20C9.91669 19.5858 10.2525 19.25 10.6667 19.25H14.6667Z"
    />
  </g>
  <defs>
    <clipPath id="clip0_1102_370086">
      <rect width="32" height="32" />
    </clipPath>
  </defs>
</svg>
