<svg viewBox="0 0 32 32" xmlns="http://www.w3.org/2000/svg">
  <g clip-path="url(#clip0_341_51871)">
    <path
      d="M1.91602 18.0222C1.91622 14.4732 4.7452 11.6059 8.29395 11.321C9.03665 8.94525 11.0158 7.07262 13.5566 6.29857C16.2901 5.46688 19.317 6.01228 21.502 7.76341C23.4422 9.31509 24.4649 11.614 24.2656 13.9577H24.7139C25.128 13.9577 25.4638 14.2936 25.4639 14.7077C25.4639 15.122 25.1281 15.4577 24.7139 15.4577H23.3936C23.1662 15.4576 22.9508 15.3548 22.8086 15.1775C22.6662 15 22.6127 14.7668 22.6621 14.5447C23.1182 12.4938 22.3413 10.3555 20.5654 8.93529L20.5645 8.93431C18.7816 7.50508 16.2733 7.03989 13.9941 7.73314C11.7164 8.42699 10.0665 10.1518 9.60742 12.2097C9.53095 12.5526 9.2263 12.7966 8.875 12.7966C5.83288 12.7968 3.41623 15.1635 3.41602 18.0222C3.41602 20.8825 5.83354 23.2509 8.87695 23.2556H14.666C15.0802 23.2556 15.416 23.5914 15.416 24.0056C15.4158 24.4197 15.0801 24.7556 14.666 24.7556H8.87402C5.05884 24.7496 1.91602 21.7645 1.91602 18.0222Z"
    />
    <path
      d="M27.25 24C27.25 23.138 26.9073 22.3116 26.2979 21.7021C25.6884 21.0927 24.862 20.75 24 20.75C23.138 20.75 22.3116 21.0927 21.7021 21.7021C21.0927 22.3116 20.75 23.138 20.75 24C20.75 24.862 21.0927 25.6884 21.7021 26.2979C22.3116 26.9073 23.138 27.25 24 27.25C24.862 27.25 25.6884 26.9073 26.2979 26.2979C26.9073 25.6884 27.25 24.862 27.25 24ZM28.75 24C28.75 25.2598 28.2492 26.4676 27.3584 27.3584C26.4676 28.2492 25.2598 28.75 24 28.75C22.7402 28.75 21.5324 28.2492 20.6416 27.3584C19.7508 26.4676 19.25 25.2598 19.25 24C19.25 22.7402 19.7508 21.5324 20.6416 20.6416C21.5324 19.7508 22.7402 19.25 24 19.25C25.2598 19.25 26.4676 19.7508 27.3584 20.6416C28.2492 21.5324 28.75 22.7402 28.75 24Z"
    />
    <path
      d="M26.403 26.403C26.6959 26.1101 27.1707 26.1101 27.4636 26.403L29.864 28.8034C30.1565 29.0963 30.1567 29.5712 29.864 29.864C29.5712 30.1567 29.0963 30.1565 28.8034 29.864L26.403 27.4636C26.1101 27.1707 26.1101 26.6959 26.403 26.403Z"
    />
  </g>
  <defs>
    <clipPath id="clip0_341_51871">
      <rect width="32" height="32" />
    </clipPath>
  </defs>
</svg>
