<svg viewBox="0 0 24 24" xmlns="http://www.w3.org/2000/svg">
  <g clip-path="url(#clip0_13_8139)">
    <path
      d="M20.4373 17.0002C20.4373 16.619 20.2857 16.2532 20.0161 15.9836C19.7466 15.7142 19.3813 15.5626 19.0002 15.5625C18.619 15.5625 18.2532 15.7141 17.9836 15.9836C17.7141 16.2532 17.5625 16.619 17.5625 17.0002C17.5626 17.3813 17.7142 17.7466 17.9836 18.0161C18.2532 18.2857 18.619 18.4373 19.0002 18.4373C19.3814 18.4372 19.7466 18.2856 20.0161 18.0161C20.2856 17.7466 20.4372 17.3814 20.4373 17.0002ZM21.5623 17.0002C21.5622 17.6798 21.2928 18.3318 20.8123 18.8123C20.3318 19.2928 19.6798 19.5622 19.0002 19.5623C18.3207 19.5623 17.6688 19.2927 17.1882 18.8123C16.7077 18.3318 16.4376 17.6798 16.4375 17.0002C16.4375 16.3206 16.7077 15.6688 17.1882 15.1882C17.6688 14.7077 18.3206 14.4375 19.0002 14.4375C19.6798 14.4376 20.3318 14.7077 20.8123 15.1882C21.2927 15.6688 21.5623 16.3207 21.5623 17.0002Z"
    />
    <path
      d="M21.4375 22.0002C21.4375 21.619 21.2859 21.2532 21.0164 20.9836C20.7468 20.7141 20.381 20.5625 19.9998 20.5625H18.0002C17.619 20.5625 17.2532 20.7141 16.9836 20.9836C16.7141 21.2532 16.5625 21.619 16.5625 22.0002C16.5624 22.3108 16.3106 22.5627 16 22.5627C15.6894 22.5627 15.4376 22.3108 15.4375 22.0002C15.4375 21.3206 15.7077 20.6688 16.1882 20.1882C16.6688 19.7077 17.3206 19.4375 18.0002 19.4375H19.9998C20.6794 19.4375 21.3312 19.7077 21.8118 20.1882C22.2923 20.6688 22.5625 21.3206 22.5625 22.0002C22.5624 22.3108 22.3106 22.5627 22 22.5627C21.6894 22.5627 21.4376 22.3108 21.4375 22.0002Z"
    />
    <path
      d="M19.4373 6C19.4373 5.80438 19.3335 5.55053 18.9978 5.25293C18.6628 4.95599 18.1458 4.66305 17.459 4.40552C16.0892 3.89193 14.1595 3.56252 12.0002 3.5625C9.84083 3.5625 7.91057 3.89187 6.54077 4.40552C5.85391 4.66308 5.33697 4.95596 5.00195 5.25293C4.66628 5.55053 4.5625 5.80438 4.5625 6C4.5625 6.19562 4.66628 6.44947 5.00195 6.74707C5.33697 7.04404 5.85391 7.33692 6.54077 7.59448C7.91057 8.10813 9.84083 8.4375 12.0002 8.4375C14.1595 8.43748 16.0892 8.10807 17.459 7.59448C18.1458 7.33695 18.6628 7.04401 18.9978 6.74707C19.3335 6.44947 19.4373 6.19562 19.4373 6ZM20.5623 6C20.5623 6.63288 20.2182 7.16838 19.7441 7.58862C19.2696 8.00933 18.6151 8.36248 17.8545 8.64771C16.3288 9.21979 14.2587 9.56248 12.0002 9.5625C9.7417 9.5625 7.67169 9.21979 6.146 8.64771C5.38522 8.36243 4.73028 8.00945 4.25562 7.58862C3.78161 7.16838 3.4375 6.63288 3.4375 6C3.4375 5.36712 3.78161 4.83162 4.25562 4.41138C4.73028 3.99055 5.38522 3.63757 6.146 3.35229C7.67169 2.78021 9.7417 2.4375 12.0002 2.4375C14.2587 2.43752 16.3288 2.78021 17.8545 3.35229C18.6151 3.63752 19.2696 3.99067 19.7441 4.41138C20.2182 4.83162 20.5623 5.36712 20.5623 6Z"
    />
    <path
      d="M3.4375 12V6C3.4375 5.68934 3.68934 5.4375 4 5.4375C4.31066 5.4375 4.5625 5.68934 4.5625 6V12C4.5625 12.1956 4.66628 12.4495 5.00195 12.7471C5.33697 13.044 5.85391 13.3369 6.54077 13.5945C7.91057 14.1081 9.84083 14.4375 12.0002 14.4375C12.6671 14.4375 13.3139 14.4063 13.9302 14.3474C14.2394 14.3179 14.5143 14.5443 14.5439 14.8535C14.5735 15.1628 14.3464 15.4378 14.0371 15.4673C13.3847 15.5296 12.7022 15.5625 12.0002 15.5625C9.7417 15.5625 7.67169 15.2198 6.146 14.6477C5.38522 14.3624 4.73028 14.0094 4.25562 13.5886C3.78161 13.1684 3.4375 12.6329 3.4375 12Z"
    />
    <path
      d="M19.4375 12V6C19.4375 5.68934 19.6893 5.4375 20 5.4375C20.3107 5.4375 20.5625 5.68934 20.5625 6V12C20.5625 12.3107 20.3107 12.5625 20 12.5625C19.6893 12.5625 19.4375 12.3107 19.4375 12Z"
    />
    <path
      d="M3.4375 18V12C3.4375 11.6893 3.68934 11.4375 4 11.4375C4.31066 11.4375 4.5625 11.6893 4.5625 12V18C4.5625 18.1956 4.66628 18.4495 5.00195 18.7471C5.33697 19.044 5.85391 19.3369 6.54077 19.5945C7.91057 20.1081 9.84083 20.4375 12.0002 20.4375C12.1525 20.4375 12.3036 20.4353 12.4551 20.4324C12.7656 20.4263 13.0224 20.6734 13.0286 20.9839C13.0346 21.2945 12.7876 21.5513 12.4771 21.5574C12.3207 21.5604 12.1619 21.5625 12.0002 21.5625C9.7417 21.5625 7.67169 21.2198 6.146 20.6477C5.38522 20.3624 4.73028 20.0094 4.25562 19.5886C3.78161 19.1684 3.4375 18.6329 3.4375 18Z"
    />
  </g>
  <defs>
    <clipPath id="clip0_13_8139">
      <rect width="24" height="24" />
    </clipPath>
  </defs>
</svg>
