<svg viewBox="0 0 24 24" xmlns="http://www.w3.org/2000/svg">
  <path
    d="M17.4448 12V5.00244C17.4448 4.2045 16.7981 3.5625 16.0049 3.5625H8.00244C7.20452 3.56253 6.56253 4.20927 6.5625 5.00244V18.9976C6.56253 19.7955 7.20927 20.4375 8.00244 20.4375H12.5024C12.8131 20.4375 13.0649 20.6893 13.0649 21C13.0649 21.3107 12.8131 21.5625 12.5024 21.5625H8.00244C6.5907 21.5625 5.43753 20.4195 5.4375 18.9976V5.00244C5.43753 3.5907 6.58046 2.43753 8.00244 2.4375H16.0049C17.4167 2.4375 18.5698 3.58044 18.5698 5.00244V12C18.5698 12.3107 18.318 12.5625 18.0073 12.5625C17.6967 12.5624 17.4448 12.3106 17.4448 12Z"
  />
  <path
    fill-rule="evenodd"
    clip-rule="evenodd"
    d="M12 16.4375C12.3107 16.4375 12.5625 16.6893 12.5625 17V17.01C12.5625 17.3207 12.3107 17.5725 12 17.5725C11.6893 17.5725 11.4375 17.3207 11.4375 17.01V17C11.4375 16.6893 11.6893 16.4375 12 16.4375Z"
  />
  <path
    d="M18.4351 21.9971V15.9971C18.4351 15.6864 18.6869 15.4346 18.9976 15.4346C19.3082 15.4346 19.5601 15.6864 19.5601 15.9971V21.9971C19.5601 22.3077 19.3082 22.5596 18.9976 22.5596C18.6869 22.5596 18.4351 22.3077 18.4351 21.9971Z"
  />
  <path
    d="M21.5998 18.5993C21.8195 18.3797 22.1756 18.3797 22.3952 18.5993C22.6149 18.819 22.6149 19.1751 22.3952 19.3947L19.3952 22.3947C19.1756 22.6144 18.8195 22.6144 18.5998 22.3947L15.5998 19.3947C15.3801 19.1751 15.3801 18.819 15.5998 18.5993C15.8195 18.3797 16.1756 18.3797 16.3952 18.5993L18.9975 21.2016L21.5998 18.5993Z"
  />
  <path
    d="M13.0049 3.43457C13.3155 3.43457 13.5674 3.68641 13.5674 3.99707C13.5674 4.30773 13.3155 4.55957 13.0049 4.55957H11.0024C10.6918 4.55957 10.4399 4.30773 10.4399 3.99707C10.4399 3.68641 10.6918 3.43457 11.0024 3.43457H13.0049Z"
  />
</svg>
