<svg viewBox="0 0 32 32" xmlns="http://www.w3.org/2000/svg">
  <path
    d="M23.2598 16V6.66992C23.2597 5.606 22.3974 4.75 21.3398 4.75H10.6699C9.60603 4.75004 8.75004 5.61237 8.75 6.66992V25.3301C8.75004 26.394 9.61237 27.25 10.6699 27.25H16.6699C17.0841 27.25 17.4199 27.5858 17.4199 28C17.4199 28.4142 17.0841 28.75 16.6699 28.75H10.6699C8.7876 28.75 7.25004 27.2261 7.25 25.3301V6.66992C7.25004 4.7876 8.77394 3.25004 10.6699 3.25H21.3398C23.2222 3.25 24.7597 4.77392 24.7598 6.66992V16C24.7598 16.4142 24.424 16.75 24.0098 16.75C23.5957 16.7499 23.2598 16.4141 23.2598 16Z"
  />
  <path
    fill-rule="evenodd"
    clip-rule="evenodd"
    d="M16 21.917C16.4142 21.917 16.75 22.2528 16.75 22.667V22.6803C16.75 23.0945 16.4142 23.4303 16 23.4303C15.5858 23.4303 15.25 23.0945 15.25 22.6803V22.667C15.25 22.2528 15.5858 21.917 16 21.917Z"
  />
  <path
    d="M24.5801 29.3301V21.3301C24.5801 20.9159 24.9159 20.5801 25.3301 20.5801C25.7443 20.5801 26.0801 20.9159 26.0801 21.3301V29.3301C26.0801 29.7443 25.7443 30.0801 25.3301 30.0801C24.9159 30.0801 24.5801 29.7443 24.5801 29.3301Z"
  />
  <path
    d="M28.7997 24.7997C29.0926 24.5069 29.5674 24.5069 29.8603 24.7997C30.1532 25.0926 30.1532 25.5674 29.8603 25.8603L25.8603 29.8603C25.5674 30.1532 25.0926 30.1532 24.7997 29.8603L20.7997 25.8603C20.5069 25.5674 20.5069 25.0926 20.7997 24.7997C21.0926 24.5069 21.5674 24.5069 21.8603 24.7997L25.33 28.2695L28.7997 24.7997Z"
  />
  <path
    d="M17.3398 4.58008C17.7541 4.58008 18.0898 4.91586 18.0898 5.33008C18.0898 5.74429 17.7541 6.08008 17.3398 6.08008H14.6699C14.2557 6.08008 13.9199 5.74429 13.9199 5.33008C13.9199 4.91586 14.2557 4.58008 14.6699 4.58008H17.3398Z"
  />
</svg>
