<svg viewBox="0 0 32 32" xmlns="http://www.w3.org/2000/svg">
  <g clip-path="url(#clip0_15_8386)">
    <path
      d="M20.668 22.8271C20.668 22.1763 21.0205 21.5805 21.584 21.2617L24.7695 19.3828L24.7891 19.3721C25.0624 19.2214 25.3695 19.1426 25.6816 19.1426C25.9159 19.1426 26.1478 19.1866 26.3643 19.2725L26.5752 19.3721L26.5938 19.3828L29.7803 21.2617C29.8212 21.2859 29.8588 21.3143 29.8936 21.3447C30.1097 21.4954 30.2914 21.6916 30.4238 21.9209C30.5829 22.1964 30.6661 22.5091 30.665 22.8271V26.2656C30.665 26.9081 30.3203 27.4966 29.7686 27.8184L29.7695 27.8193L26.583 29.835C26.57 29.8432 26.5565 29.851 26.543 29.8584C26.2744 30.0059 25.9724 30.083 25.666 30.083C25.3598 30.0829 25.0585 30.0058 24.79 29.8584C24.7765 29.851 24.7631 29.8432 24.75 29.835L21.5635 27.8193H21.5625C21.2983 27.6655 21.0774 27.4468 20.9209 27.1836C20.7561 26.9064 20.6686 26.5901 20.668 26.2676V22.8271ZM22.168 26.2646L22.1787 26.3438C22.1858 26.3693 22.1963 26.394 22.21 26.417C22.2374 26.4632 22.277 26.5015 22.3242 26.5273C22.3382 26.535 22.3518 26.5433 22.3652 26.5518L25.5186 28.5469C25.5641 28.5706 25.6146 28.5829 25.666 28.583C25.7173 28.583 25.7679 28.5704 25.8135 28.5469L28.9678 26.5518L29.0068 26.5283C29.1067 26.4734 29.165 26.3715 29.165 26.2656V22.8232C29.1654 22.7699 29.1516 22.7171 29.125 22.6709C29.0983 22.6247 29.0591 22.586 29.0127 22.5596C28.9755 22.5384 28.9405 22.5147 28.9082 22.4883L25.8506 20.6865L25.7695 20.6533C25.7411 20.646 25.7113 20.6426 25.6816 20.6426C25.624 20.6426 25.5674 20.6573 25.5166 20.6846L22.3457 22.5537C22.3393 22.5575 22.3327 22.5618 22.3262 22.5654C22.2259 22.6205 22.168 22.7217 22.168 22.8271V26.2646Z"
    />
    <path
      d="M26.3325 24.6123C26.3325 24.4357 26.2621 24.2665 26.1372 24.1416C26.0123 24.0168 25.8431 23.9463 25.6665 23.9463C25.4899 23.9463 25.3207 24.0167 25.1958 24.1416C25.0709 24.2665 25.0005 24.4357 25.0005 24.6123C25.0005 24.7889 25.071 24.9581 25.1958 25.083C25.3207 25.2079 25.4899 25.2783 25.6665 25.2783C25.8432 25.2783 26.0123 25.2079 26.1372 25.083C26.2621 24.9581 26.3325 24.789 26.3325 24.6123ZM27.8325 24.6123C27.8325 25.1868 27.605 25.7383 27.1987 26.1445C26.7925 26.5508 26.241 26.7783 25.6665 26.7783C25.0922 26.7783 24.5414 26.5505 24.1353 26.1445C23.729 25.7383 23.5005 25.1868 23.5005 24.6123C23.5005 24.0379 23.7291 23.4873 24.1353 23.0811C24.5415 22.6749 25.0921 22.4463 25.6665 22.4463C26.241 22.4463 26.7925 22.6748 27.1987 23.0811C27.6047 23.4872 27.8325 24.038 27.8325 24.6123Z"
    />
    <path
      d="M28.5835 5.33398C28.5835 4.82572 28.3813 4.33795 28.022 3.97852C27.6625 3.61907 27.1748 3.41699 26.6665 3.41699C26.1582 3.417 25.6705 3.61908 25.311 3.97852C24.9517 4.33794 24.7495 4.82574 24.7495 5.33398C24.7496 5.84204 24.9519 6.32914 25.311 6.68848C25.6705 7.04791 26.1582 7.24999 26.6665 7.25C27.1748 7.25 27.6625 7.04792 28.022 6.68848C28.3812 6.32914 28.5834 5.84205 28.5835 5.33398ZM3.4165 18.667C3.4165 19.1753 3.61858 19.663 3.97803 20.0225C4.33746 20.3818 4.82523 20.584 5.3335 20.584C5.84157 20.5839 6.32865 20.3816 6.68799 20.0225C7.04743 19.663 7.24951 19.1753 7.24951 18.667C7.2495 18.1587 7.04742 17.671 6.68799 17.3115C6.32865 16.9524 5.84155 16.7501 5.3335 16.75C4.82525 16.75 4.33745 16.9522 3.97803 17.3115C3.61859 17.671 3.41651 18.1587 3.4165 18.667ZM30.0835 5.33398C30.0834 6.24002 29.7232 7.10933 29.0825 7.75C28.4418 8.39063 27.5726 8.75 26.6665 8.75C25.7604 8.74999 24.8912 8.39065 24.2505 7.75C23.7897 7.28923 23.4754 6.70976 23.3345 6.08398H19.9995C19.8449 6.08407 19.6967 6.14556 19.5874 6.25488C19.4781 6.36426 19.4165 6.51236 19.4165 6.66699V14.667C19.4165 14.8216 19.4781 14.9697 19.5874 15.0791C19.6967 15.1884 19.8449 15.2499 19.9995 15.25H23.3345C23.4754 14.6242 23.7897 14.0448 24.2505 13.584C24.8912 12.9433 25.7604 12.584 26.6665 12.584C27.5726 12.584 28.4418 12.9433 29.0825 13.584C29.7232 14.2247 30.0834 15.0939 30.0835 16C30.0835 16.9061 29.7232 17.7753 29.0825 18.416C28.7896 18.7089 28.3149 18.7089 28.022 18.416C27.7291 18.1231 27.7291 17.6483 28.022 17.3555C28.3813 16.996 28.5835 16.5083 28.5835 16C28.5834 15.4918 28.3814 15.0039 28.022 14.6445C27.6625 14.2852 27.1748 14.084 26.6665 14.084C26.1582 14.084 25.6705 14.2852 25.311 14.6445C24.9517 15.0039 24.7496 15.4918 24.7495 16C24.7495 16.3345 24.8372 16.6603 24.9995 16.9463C25.204 17.3065 25.0775 17.7643 24.7173 17.9688C24.3571 18.1731 23.8993 18.0467 23.6948 17.6865C23.529 17.3943 23.4094 17.0784 23.3354 16.75H19.9995C19.4471 16.7499 18.9175 16.5303 18.5269 16.1396C18.1363 15.749 17.9165 15.2194 17.9165 14.667V11.1328C17.7791 11.3046 17.5705 11.4169 17.3335 11.417H14.6665C14.5119 11.417 14.3638 11.4786 14.2544 11.5879C14.1451 11.6972 14.0836 11.8454 14.0835 12V25.334C14.0836 25.4886 14.1451 25.6368 14.2544 25.7461C14.3638 25.8554 14.5119 25.917 14.6665 25.917H18.3081C18.7221 25.9172 19.0581 26.2529 19.0581 26.667C19.0581 27.081 18.7221 27.4167 18.3081 27.417H14.6665C14.1141 27.417 13.5845 27.1972 13.1938 26.8066C12.8032 26.416 12.5836 25.8864 12.5835 25.334V19.417H8.66553C8.52466 20.0428 8.21028 20.6222 7.74951 21.083C7.10884 21.7237 6.23954 22.0839 5.3335 22.084C4.42741 22.084 3.55822 21.7237 2.91748 21.083C2.27673 20.4423 1.9165 19.5731 1.9165 18.667C1.91651 17.7608 2.27674 16.8917 2.91748 16.251C3.55821 15.6103 4.42743 15.25 5.3335 15.25C6.23954 15.2501 7.10884 15.6103 7.74951 16.251C8.21028 16.7118 8.52465 17.2911 8.66553 17.917H12.5835V12C12.5836 11.4476 12.8032 10.918 13.1938 10.5273C13.5845 10.1367 14.114 9.91699 14.6665 9.91699H17.3335C17.5703 9.91709 17.7791 10.0287 17.9165 10.2002V6.66699C17.9165 6.11454 18.1363 5.58502 18.5269 5.19434C18.9175 4.80371 19.4471 4.58407 19.9995 4.58398H23.3345C23.4753 3.95805 23.7897 3.37886 24.2505 2.91797C24.8912 2.27723 25.7604 1.917 26.6665 1.91699C27.5727 1.91699 28.4418 2.27722 29.0825 2.91797C29.7232 3.5587 30.0835 4.42789 30.0835 5.33398Z"
    />
  </g>
  <defs>
    <clipPath id="clip0_15_8386">
      <rect width="32" height="32" />
    </clipPath>
  </defs>
</svg>
