<svg viewBox="0 0 25 25" xmlns="http://www.w3.org/2000/svg">
  <g clip-path="url(#clip0_13_8124)">
    <path
      d="M16.147 17.8336C16.147 17.3252 16.4224 16.8597 16.8626 16.6107L19.3513 15.1428L19.3666 15.1344C19.5801 15.0167 19.8201 14.9551 20.0639 14.9551C20.2469 14.9551 20.4281 14.9895 20.5972 15.0565L20.762 15.1344L20.7765 15.1428L23.266 16.6107C23.298 16.6295 23.3273 16.6517 23.3545 16.6755C23.5233 16.7932 23.6653 16.9465 23.7687 17.1256C23.893 17.3409 23.958 17.5852 23.9572 17.8336V20.52C23.9572 21.0219 23.6879 21.4817 23.2568 21.733L23.2576 21.7338L20.7681 23.3085C20.7579 23.3149 20.7474 23.321 20.7368 23.3268C20.527 23.442 20.2911 23.5023 20.0517 23.5023C19.8124 23.5022 19.5771 23.442 19.3673 23.3268C19.3568 23.321 19.3463 23.315 19.3361 23.3085L16.8466 21.7338H16.8458C16.6394 21.6136 16.4668 21.4428 16.3446 21.2371C16.2158 21.0205 16.1475 20.7734 16.147 20.5215V17.8336ZM17.3188 20.5192L17.3272 20.581C17.3328 20.601 17.341 20.6202 17.3517 20.6382C17.3731 20.6743 17.4041 20.7043 17.4409 20.7244C17.4518 20.7304 17.4625 20.7369 17.473 20.7435L19.9365 22.3022C19.9721 22.3207 20.0115 22.3304 20.0517 22.3304C20.0918 22.3304 20.1313 22.3206 20.1669 22.3022L22.6312 20.7435L22.6617 20.7252C22.7398 20.6823 22.7853 20.6027 22.7853 20.52V17.8306C22.7856 17.789 22.7748 17.7476 22.754 17.7116C22.7332 17.6755 22.7025 17.6452 22.6663 17.6246C22.6372 17.6081 22.6099 17.5896 22.5847 17.5689L20.1959 16.1613L20.1326 16.1353C20.1103 16.1296 20.087 16.127 20.0639 16.127C20.0188 16.127 19.9746 16.1384 19.935 16.1598L17.4577 17.62C17.4527 17.623 17.4476 17.6264 17.4424 17.6292C17.3641 17.6722 17.3188 17.7512 17.3188 17.8336V20.5192Z"
    />
    <path
      d="M20.5724 19.2283C20.5724 19.0903 20.5174 18.9582 20.4198 18.8606C20.3222 18.7631 20.19 18.708 20.0521 18.708C19.9141 18.708 19.7819 18.763 19.6843 18.8606C19.5868 18.9582 19.5318 19.0903 19.5317 19.2283C19.5317 19.3663 19.5868 19.4985 19.6843 19.5961C19.7819 19.6936 19.9141 19.7486 20.0521 19.7487C20.1901 19.7487 20.3222 19.6937 20.4198 19.5961C20.5174 19.4985 20.5724 19.3664 20.5724 19.2283ZM21.7443 19.2283C21.7443 19.6772 21.5665 20.108 21.2491 20.4254C20.9317 20.7428 20.5009 20.9205 20.0521 20.9205C19.6034 20.9205 19.1731 20.7426 18.8558 20.4254C18.5384 20.108 18.3599 19.6772 18.3599 19.2283C18.3599 18.7795 18.5384 18.3494 18.8558 18.032C19.1731 17.7147 19.6033 17.5362 20.0521 17.5361C20.5009 17.5361 20.9317 17.7147 21.2491 18.032C21.5663 18.3494 21.7442 18.7797 21.7443 19.2283Z"
    />
    <path
      d="M22.3311 4.1666C22.3311 3.76951 22.1732 3.38844 21.8925 3.10764C21.6116 2.82682 21.2306 2.66895 20.8335 2.66895C20.4364 2.66895 20.0553 2.82683 19.7745 3.10764C19.4938 3.38844 19.3358 3.76953 19.3358 4.1666C19.3359 4.56351 19.4939 4.94406 19.7745 5.22479C20.0553 5.5056 20.4364 5.66347 20.8335 5.66348C21.2306 5.66348 21.6116 5.50561 21.8925 5.22479C22.1731 4.94406 22.3311 4.56352 22.3311 4.1666ZM2.66943 14.583C2.66943 14.9801 2.82731 15.3612 3.10812 15.642C3.38893 15.9227 3.77 16.0807 4.16708 16.0807C4.56401 16.0806 4.94455 15.9226 5.22528 15.642C5.5061 15.3612 5.66397 14.9801 5.66397 14.583C5.66396 14.1859 5.50609 13.8049 5.22528 13.524C4.94455 13.2435 4.564 13.0854 4.16708 13.0854C3.77002 13.0854 3.38893 13.2433 3.10812 13.524C2.82731 13.8049 2.66944 14.1859 2.66943 14.583ZM23.503 4.1666C23.503 4.87444 23.2215 5.55358 22.721 6.05411C22.2204 6.5546 21.5414 6.83536 20.8335 6.83536C20.1256 6.83535 19.4466 6.55462 18.946 6.05411C18.586 5.69413 18.3404 5.24142 18.2303 4.75253H15.6249C15.5041 4.7526 15.3884 4.80064 15.3029 4.88605C15.2176 4.9715 15.1694 5.0872 15.1694 5.20801V11.458C15.1694 11.5788 15.2176 11.6945 15.3029 11.78C15.3884 11.8654 15.5041 11.9134 15.6249 11.9135H18.2303C18.3404 11.4246 18.586 10.9719 18.946 10.6119C19.4466 10.1114 20.1256 9.83067 20.8335 9.83066C21.5414 9.83066 22.2204 10.1114 22.721 10.6119C23.2215 11.1124 23.503 11.7916 23.503 12.4994C23.503 13.2073 23.2215 13.8864 22.721 14.3869C22.4922 14.6158 22.1213 14.6158 21.8925 14.3869C21.6637 14.1581 21.6636 13.7872 21.8925 13.5584C22.1732 13.2776 22.3311 12.8965 22.3311 12.4994C22.3311 12.1024 22.1732 11.7212 21.8925 11.4405C21.6117 11.1597 21.2306 11.0025 20.8335 11.0025C20.4364 11.0025 20.0553 11.1597 19.7745 11.4405C19.4938 11.7212 19.3359 12.1024 19.3358 12.4994C19.3358 12.7607 19.4044 13.0153 19.5312 13.2387C19.6909 13.5201 19.5921 13.8778 19.3107 14.0375C19.0293 14.1971 18.6716 14.0984 18.5119 13.817C18.3823 13.5887 18.2889 13.3419 18.2311 13.0854H15.6249C15.1933 13.0853 14.7796 12.9137 14.4744 12.6085C14.1692 12.3033 13.9976 11.8896 13.9976 11.458V8.69693C13.8902 8.83114 13.7273 8.91887 13.5421 8.91895H11.4585C11.3377 8.91895 11.222 8.96706 11.1365 9.05246C11.0511 9.13787 11.0031 9.25363 11.003 9.37442V19.7916C11.0031 19.9124 11.0511 20.0282 11.1365 20.1136C11.222 20.1989 11.3377 20.2471 11.4585 20.2471H14.3035C14.6269 20.2473 14.8894 20.5095 14.8894 20.833C14.8894 21.1565 14.6269 21.4187 14.3035 21.4189H11.4585C11.0269 21.4189 10.6132 21.2473 10.308 20.9421C10.0028 20.6369 9.83122 20.2232 9.83115 19.7916V15.1689H6.77023C6.66018 15.6579 6.41457 16.1105 6.0546 16.4705C5.55407 16.971 4.87493 17.2525 4.16708 17.2525C3.4592 17.2525 2.78015 16.971 2.27957 16.4705C1.77899 15.9699 1.49756 15.2909 1.49756 14.583C1.49757 13.8751 1.77899 13.1961 2.27957 12.6955C2.78014 12.195 3.45922 11.9135 4.16708 11.9135C4.87493 11.9135 5.55407 12.195 6.0546 12.6955C6.41457 13.0555 6.66017 13.5081 6.77023 13.9971H9.83115V9.37442C9.83121 8.94283 10.0028 8.52909 10.308 8.22391C10.6132 7.91874 11.0269 7.74707 11.4585 7.74707H13.5421C13.7271 7.74715 13.8902 7.83436 13.9976 7.96832V5.20801C13.9976 4.7764 14.1692 4.36272 14.4744 4.0575C14.7796 3.75232 15.1933 3.58073 15.6249 3.58066H18.2303C18.3404 3.09165 18.586 2.63915 18.946 2.27908C19.4466 1.77851 20.1256 1.49708 20.8335 1.49707C21.5414 1.49707 22.2204 1.7785 22.721 2.27908C23.2215 2.77966 23.503 3.45871 23.503 4.1666Z"
    />
  </g>
  <defs>
    <clipPath id="clip0_13_8124">
      <rect width="25" height="25" />
    </clipPath>
  </defs>
</svg>
