<svg viewBox="0 0 32 32" xmlns="http://www.w3.org/2000/svg">
  <g clip-path="url(#clip0_15_8385)">
    <path
      d="M28.5835 26.667C28.5835 26.1587 28.3814 25.671 28.022 25.3115C27.6625 24.9521 27.1748 24.75 26.6665 24.75C26.1582 24.75 25.6705 24.9521 25.311 25.3115C24.9516 25.671 24.7495 26.1587 24.7495 26.667C24.7495 27.1753 24.9516 27.663 25.311 28.0225C25.6705 28.3819 26.1582 28.584 26.6665 28.584C27.1748 28.584 27.6625 28.3819 28.022 28.0225C28.3814 27.663 28.5835 27.1753 28.5835 26.667ZM28.5835 16C28.5834 15.4918 28.3814 15.0039 28.022 14.6445C27.6625 14.2852 27.1748 14.084 26.6665 14.084C26.1582 14.084 25.6705 14.2852 25.311 14.6445C24.9517 15.0039 24.7496 15.4918 24.7495 16C24.7495 16.5083 24.9517 16.996 25.311 17.3555C25.6705 17.7149 26.1582 17.917 26.6665 17.917C27.1748 17.917 27.6625 17.7149 28.022 17.3555C28.3813 16.996 28.5835 16.5083 28.5835 16ZM28.5835 5.33398C28.5835 4.82572 28.3813 4.33795 28.022 3.97852C27.6625 3.61907 27.1748 3.41699 26.6665 3.41699C26.1582 3.417 25.6705 3.61908 25.311 3.97852C24.9517 4.33794 24.7495 4.82574 24.7495 5.33398C24.7496 5.84204 24.9519 6.32914 25.311 6.68848C25.6705 7.04791 26.1582 7.24999 26.6665 7.25C27.1748 7.25 27.6625 7.04792 28.022 6.68848C28.3812 6.32914 28.5834 5.84205 28.5835 5.33398ZM3.4165 18.667C3.4165 19.1753 3.61858 19.663 3.97803 20.0225C4.33746 20.3818 4.82523 20.584 5.3335 20.584C5.84157 20.5839 6.32865 20.3816 6.68799 20.0225C7.04743 19.663 7.24951 19.1753 7.24951 18.667C7.2495 18.1587 7.04742 17.671 6.68799 17.3115C6.32865 16.9524 5.84155 16.7501 5.3335 16.75C4.82525 16.75 4.33745 16.9522 3.97803 17.3115C3.61859 17.671 3.41651 18.1587 3.4165 18.667ZM30.0835 5.33398C30.0834 6.24002 29.7232 7.10933 29.0825 7.75C28.4418 8.39063 27.5726 8.75 26.6665 8.75C25.7604 8.74999 24.8912 8.39065 24.2505 7.75C23.7897 7.28923 23.4754 6.70976 23.3345 6.08398H19.9995C19.8449 6.08407 19.6967 6.14556 19.5874 6.25488C19.4781 6.36426 19.4165 6.51236 19.4165 6.66699V14.667C19.4165 14.8216 19.4781 14.9697 19.5874 15.0791C19.6967 15.1884 19.8449 15.2499 19.9995 15.25H23.3345C23.4754 14.6242 23.7897 14.0448 24.2505 13.584C24.8912 12.9433 25.7604 12.584 26.6665 12.584C27.5726 12.584 28.4418 12.9433 29.0825 13.584C29.7232 14.2247 30.0834 15.0939 30.0835 16C30.0835 16.9061 29.7232 17.7753 29.0825 18.416C28.4418 19.0568 27.5727 19.417 26.6665 19.417C25.7604 19.417 24.8912 19.0568 24.2505 18.416C23.7897 17.9551 23.4753 17.3759 23.3345 16.75H19.9995C19.4471 16.7499 18.9175 16.5303 18.5269 16.1396C18.1363 15.749 17.9165 15.2194 17.9165 14.667V11.1328C17.7791 11.3046 17.5705 11.4169 17.3335 11.417H14.6665C14.5119 11.417 14.3638 11.4786 14.2544 11.5879C14.1451 11.6972 14.0836 11.8454 14.0835 12V25.334C14.0836 25.4886 14.1451 25.6368 14.2544 25.7461C14.3638 25.8554 14.5119 25.917 14.6665 25.917H23.3345C23.4754 25.2911 23.7897 24.7118 24.2505 24.251C24.8912 23.6102 25.7604 23.25 26.6665 23.25C27.5726 23.25 28.4418 23.6103 29.0825 24.251C29.7233 24.8917 30.0835 25.7609 30.0835 26.667C30.0835 27.5731 29.7233 28.4423 29.0825 29.083C28.4418 29.7238 27.5727 30.084 26.6665 30.084C25.7604 30.084 24.8912 29.7237 24.2505 29.083C23.7897 28.6222 23.4754 28.0429 23.3345 27.417H14.6665C14.1141 27.417 13.5845 27.1972 13.1938 26.8066C12.8032 26.416 12.5836 25.8864 12.5835 25.334V19.417H8.66553C8.52466 20.0428 8.21028 20.6222 7.74951 21.083C7.10884 21.7237 6.23954 22.0839 5.3335 22.084C4.42741 22.084 3.55822 21.7237 2.91748 21.083C2.27673 20.4423 1.9165 19.5731 1.9165 18.667C1.91651 17.7608 2.27674 16.8917 2.91748 16.251C3.55821 15.6103 4.42743 15.25 5.3335 15.25C6.23954 15.2501 7.10884 15.6103 7.74951 16.251C8.21028 16.7118 8.52465 17.2911 8.66553 17.917H12.5835V12C12.5836 11.4476 12.8032 10.918 13.1938 10.5273C13.5845 10.1367 14.114 9.91699 14.6665 9.91699H17.3335C17.5703 9.91709 17.7791 10.0287 17.9165 10.2002V6.66699C17.9165 6.11454 18.1363 5.58502 18.5269 5.19434C18.9175 4.80371 19.4471 4.58407 19.9995 4.58398H23.3345C23.4753 3.95805 23.7897 3.37886 24.2505 2.91797C24.8912 2.27723 25.7604 1.917 26.6665 1.91699C27.5727 1.91699 28.4418 2.27722 29.0825 2.91797C29.7232 3.5587 30.0835 4.42789 30.0835 5.33398Z"
    />
  </g>
  <defs>
    <clipPath id="clip0_15_8385">
      <rect width="32" height="32" />
    </clipPath>
  </defs>
</svg>
