<svg viewBox="0 0 24 24" xmlns="http://www.w3.org/2000/svg">
  <g clip-path="url(#clip0_13_8123)">
    <path
      d="M21.4377 20C21.4377 19.6188 21.2862 19.253 21.0166 18.9834C20.747 18.7138 20.3812 18.5623 20 18.5623C19.6188 18.5623 19.253 18.7138 18.9834 18.9834C18.7138 19.253 18.5623 19.6188 18.5623 20C18.5623 20.3812 18.7138 20.747 18.9834 21.0166C19.253 21.2862 19.6188 21.4377 20 21.4377C20.3812 21.4377 20.747 21.2862 21.0166 21.0166C21.2862 20.747 21.4377 20.3812 21.4377 20ZM21.4377 11.9998C21.4377 11.6186 21.2861 11.2527 21.0166 10.9832C20.747 10.7136 20.3812 10.5627 20 10.5627C19.6188 10.5628 19.253 10.7136 18.9834 10.9832C18.7139 11.2527 18.5623 11.6186 18.5623 11.9998C18.5623 12.3809 18.7139 12.7468 18.9834 13.0164C19.253 13.2859 19.6188 13.4375 20 13.4375C20.3812 13.4375 20.747 13.2859 21.0166 13.0164C21.2861 12.7468 21.4377 12.381 21.4377 11.9998ZM21.4377 4.00024C21.4377 3.61905 21.2861 3.25322 21.0166 2.98364C20.747 2.71406 20.3812 2.5625 20 2.5625C19.6188 2.56251 19.253 2.71407 18.9834 2.98364C18.7139 3.25321 18.5623 3.61906 18.5623 4.00024C18.5623 4.38128 18.714 4.74661 18.9834 5.01611C19.253 5.28569 19.6188 5.43725 20 5.43726C20.3812 5.43726 20.747 5.2857 21.0166 5.01611C21.286 4.74661 21.4377 4.3813 21.4377 4.00024ZM2.5625 14C2.5625 14.3812 2.71406 14.747 2.98364 15.0166C3.25322 15.2861 3.61905 15.4377 4.00024 15.4377C4.3813 15.4377 4.74661 15.286 5.01611 15.0166C5.2857 14.747 5.43726 14.3812 5.43726 14C5.43725 13.6188 5.28569 13.253 5.01611 12.9834C4.74661 12.714 4.38128 12.5623 4.00024 12.5623C3.61906 12.5623 3.25321 12.7139 2.98364 12.9834C2.71407 13.253 2.56251 13.6188 2.5625 14ZM22.5627 4.00024C22.5627 4.67977 22.2925 5.33175 21.812 5.81226C21.3315 6.29273 20.6796 6.56226 20 6.56226C19.3204 6.56225 18.6685 6.29274 18.188 5.81226C17.8424 5.46668 17.6067 5.03208 17.501 4.56274H14.9998C14.8838 4.56281 14.7727 4.60893 14.6907 4.69092C14.6087 4.77295 14.5625 4.88402 14.5625 5V11C14.5625 11.116 14.6087 11.227 14.6907 11.3091C14.7727 11.3911 14.8838 11.4372 14.9998 11.4373H17.501C17.6067 10.9679 17.8424 10.5333 18.188 10.1877C18.6685 9.70725 19.3204 9.43775 20 9.43774C20.6796 9.43774 21.3315 9.70726 21.812 10.1877C22.2925 10.6683 22.5627 11.3202 22.5627 11.9998C22.5627 12.6793 22.2925 13.3312 21.812 13.8118C21.3314 14.2923 20.6796 14.5625 20 14.5625C19.3204 14.5625 18.6685 14.2923 18.188 13.8118C17.8424 13.4661 17.6066 13.0317 17.501 12.5623H14.9998C14.5854 12.5622 14.1882 12.3975 13.8953 12.1045C13.6023 11.8115 13.4375 11.4143 13.4375 11V8.34937C13.3345 8.4782 13.178 8.56242 13.0002 8.5625H11C10.884 8.5625 10.773 8.60869 10.6909 8.69067C10.6089 8.77267 10.5628 8.8838 10.5627 8.99976V19.0002C10.5628 19.1162 10.6089 19.2273 10.6909 19.3093C10.773 19.3913 10.884 19.4375 11 19.4375H17.501C17.6067 18.9681 17.8424 18.5336 18.188 18.188C18.6685 17.7074 19.3204 17.4373 20 17.4373C20.6796 17.4373 21.3315 17.7074 21.812 18.188C22.2926 18.6685 22.5627 19.3204 22.5627 20C22.5627 20.6796 22.2926 21.3314 21.812 21.812C21.3314 22.2926 20.6796 22.5627 20 22.5627C19.3204 22.5627 18.6685 22.2926 18.188 21.812C17.8424 21.4664 17.6066 21.0319 17.501 20.5625H11C10.5857 20.5625 10.1885 20.3977 9.89551 20.1047C9.60255 19.8118 9.43782 19.4145 9.43774 19.0002V14.5625H6.49927C6.39362 15.0319 6.15783 15.4664 5.81226 15.812C5.33175 16.2925 4.67977 16.5627 4.00024 16.5627C3.32068 16.5627 2.66878 16.2925 2.18823 15.812C1.70767 15.3314 1.4375 14.6796 1.4375 14C1.43751 13.3204 1.70768 12.6685 2.18823 12.188C2.66878 11.7075 3.32069 11.4373 4.00024 11.4373C4.67977 11.4373 5.33175 11.7075 5.81226 12.188C6.15783 12.5336 6.39361 12.9681 6.49927 13.4375H9.43774V8.99976C9.4378 8.58543 9.60253 8.18824 9.89551 7.89526C10.1885 7.60231 10.5856 7.4375 11 7.4375H13.0002C13.1778 7.43758 13.3345 7.5213 13.4375 7.6499V5C13.4375 4.58566 13.6023 4.18852 13.8953 3.89551C14.1882 3.60254 14.5854 3.43781 14.9998 3.43774H17.501C17.6066 2.96829 17.8424 2.5339 18.188 2.18823C18.6685 1.70768 19.3204 1.43751 20 1.4375C20.6796 1.4375 21.3314 1.70767 21.812 2.18823C22.2925 2.66878 22.5627 3.32068 22.5627 4.00024Z"
    />
  </g>
  <defs>
    <clipPath id="clip0_13_8123">
      <rect width="24" height="24" />
    </clipPath>
  </defs>
</svg>
