<svg viewBox="0 0 32 32" xmlns="http://www.w3.org/2000/svg">
  <path
    fill-rule="evenodd"
    clip-rule="evenodd"
    d="M17.9166 9.33301V4C17.9166 3.58579 18.2524 3.25 18.6666 3.25C19.0808 3.25 19.4166 3.58579 19.4166 4V9.33301C19.4166 9.48772 19.4781 9.6367 19.5875 9.74609C19.6968 9.85531 19.8451 9.91691 19.9996 9.91699H25.3336C25.7477 9.91717 26.0836 10.2529 26.0836 10.667C26.0834 11.0809 25.7476 11.4168 25.3336 11.417H19.9996C19.4473 11.4169 18.9176 11.1972 18.527 10.8066C18.1363 10.4159 17.9166 9.88554 17.9166 9.33301Z"
  />
  <path
    fill-rule="evenodd"
    clip-rule="evenodd"
    d="M5.91663 25.333V6.66699C5.91663 5.76084 6.27685 4.89173 6.9176 4.25098C7.55835 3.61023 8.42746 3.25 9.33362 3.25H18.6666L18.8141 3.26465C18.9581 3.29352 19.0915 3.36435 19.1969 3.46973L25.8639 10.1367C26.0043 10.2773 26.0836 10.4682 26.0836 10.667V25.333C26.0836 26.2391 25.7233 27.1083 25.0826 27.749C24.4419 28.3898 23.5728 28.75 22.6666 28.75H9.33362C8.42746 28.75 7.55835 28.3898 6.9176 27.749C6.27685 27.1083 5.91663 26.2392 5.91663 25.333ZM7.41663 25.333C7.41663 25.8413 7.6187 26.329 7.97815 26.6885C8.33759 27.0479 8.82529 27.25 9.33362 27.25H22.6666C23.175 27.25 23.6627 27.0479 24.0221 26.6885C24.3814 26.329 24.5836 25.8413 24.5836 25.333V10.9775L18.3561 4.75H9.33362C8.82529 4.75 8.33759 4.95208 7.97815 5.31152C7.6187 5.67097 7.41663 6.15866 7.41663 6.66699V25.333Z"
  />
  <path
    fill-rule="evenodd"
    clip-rule="evenodd"
    d="M15.7331 12.5828C15.9109 12.5828 16.0863 12.6198 16.2477 12.6912L16.404 12.7732L16.5466 12.8767C16.6823 12.9895 16.7936 13.1296 16.8727 13.2888L16.8737 13.2898L18.1462 15.8601L20.9938 16.2742L21.1667 16.3113C21.3359 16.3604 21.4937 16.4442 21.6296 16.5583C21.7656 16.6727 21.8763 16.814 21.9538 16.9724L22.0202 17.1365L22.0632 17.3083C22.0941 17.4821 22.088 17.6611 22.0456 17.8337C21.989 18.0638 21.8694 18.2736 21.6999 18.4392L21.6989 18.4402L19.6393 20.4402L20.1247 23.2644L20.1423 23.4402C20.1479 23.617 20.1166 23.7937 20.0495 23.9587C19.96 24.1787 19.8102 24.3692 19.6179 24.5085C19.4256 24.6479 19.1985 24.7312 18.9616 24.7478C18.7257 24.7643 18.4901 24.7136 18.2809 24.6033V24.6042L15.7331 23.2683L13.1852 24.6042L13.1833 24.6052C12.9741 24.7141 12.7388 24.763 12.5036 24.7458C12.2684 24.7287 12.0425 24.6465 11.8513 24.5085C11.66 24.3705 11.5109 24.1815 11.4206 23.9636C11.3303 23.7457 11.3021 23.507 11.3395 23.2742L11.3405 23.2664L11.8268 20.4402L9.7702 18.4412C9.59917 18.2758 9.47696 18.0666 9.41962 17.8357C9.36229 17.6049 9.37128 17.3626 9.44501 17.1365L9.51141 16.9714C9.58932 16.8124 9.70074 16.6708 9.83759 16.5564C9.97442 16.442 10.1332 16.3578 10.3034 16.3093L10.4772 16.2732L13.319 15.8601L14.5934 13.2898V13.2888C14.6989 13.0768 14.8619 12.8979 15.0632 12.7732L15.2194 12.6912C15.3807 12.62 15.5556 12.5828 15.7331 12.5828ZM18.9772 23.2761L18.9811 23.2771C18.979 23.276 18.9764 23.2752 18.9743 23.2742L18.9772 23.2761ZM14.4899 16.8796C14.3805 17.1006 14.1685 17.2534 13.9245 17.2888L11.1491 17.6912L13.1559 19.6404C13.3334 19.8128 13.4147 20.0625 13.3727 20.3064L12.8972 23.0613L15.3854 21.7585L15.4684 21.7205C15.6673 21.6454 15.8909 21.6586 16.0817 21.7585L18.5671 23.0613L18.0944 20.3054C18.0526 20.0617 18.1329 19.8127 18.3102 19.6404L20.3161 17.6912L17.5417 17.2888C17.2977 17.2534 17.0867 17.1005 16.9772 16.8796L15.7331 14.3679L14.4899 16.8796Z"
  />
</svg>
