<svg viewBox="0 0 32 32" xmlns="http://www.w3.org/2000/svg">
  <path
    d="M12.583 11.5C12.583 10.5144 12.178 9.56296 11.4463 8.85742C10.7138 8.15108 9.71424 7.75008 8.66699 7.75C7.61978 7.75 6.62026 8.15121 5.8877 8.85742C5.15603 9.56296 4.75 10.5144 4.75 11.5V16.5361H12.583V11.5ZM27.25 25V24.123C27.2178 24.1558 27.1865 24.1897 27.1533 24.2217C26.1356 25.203 24.7609 25.75 23.333 25.75C21.9052 25.7499 20.5304 25.203 19.5127 24.2217C18.4942 23.2394 17.917 21.9013 17.917 20.5C17.917 19.0987 18.4941 17.7606 19.5127 16.7783C20.5304 15.797 21.9052 15.2501 23.333 15.25C24.7609 15.25 26.1356 15.797 27.1533 16.7783C27.1863 16.8101 27.2179 16.8434 27.25 16.876V16C27.25 15.5858 27.5858 15.25 28 15.25C28.4142 15.25 28.75 15.5858 28.75 16V25C28.75 25.4142 28.4142 25.75 28 25.75C27.5858 25.75 27.25 25.4142 27.25 25ZM19.417 20.5C19.417 21.4856 19.822 22.437 20.5537 23.1426C21.2862 23.8489 22.2858 24.2499 23.333 24.25C24.3802 24.25 25.3797 23.8488 26.1123 23.1426C26.844 22.437 27.25 21.4856 27.25 20.5C27.25 19.5144 26.844 18.563 26.1123 17.8574C25.3797 17.1512 24.3802 16.75 23.333 16.75C22.2858 16.7501 21.2862 17.1511 20.5537 17.8574C19.822 18.563 19.417 19.5144 19.417 20.5ZM14.083 25C14.083 25.4142 13.7472 25.75 13.333 25.75C12.9189 25.7498 12.583 25.4141 12.583 25V18.0361H4.75V25C4.75 25.4142 4.41421 25.75 4 25.75C3.58579 25.75 3.25 25.4142 3.25 25V11.5C3.25 10.0986 3.82801 8.76061 4.84668 7.77832C5.86441 6.79701 7.23909 6.25 8.66699 6.25C10.0948 6.25008 11.4696 6.797 12.4873 7.77832C13.5059 8.76059 14.083 10.0987 14.083 11.5V25Z"
  />
</svg>
