<svg viewBox="0 0 24 24" xmlns="http://www.w3.org/2000/svg">
  <g clip-path="url(#clip0_13_8131)">
    <mask
      id="mask0_13_8131"
      style="mask-type: luminance"
      maskUnits="userSpaceOnUse"
      x="0"
      y="0"
      width="24"
      height="24"
    >
      <path d="M24 0H0V24H24V0Z" />
    </mask>
    <g mask="url(#mask0_13_8131)">
      <path
        fill-rule="evenodd"
        clip-rule="evenodd"
        d="M21.3677 8.44539L15.8552 3.61539C15.7352 3.51039 15.5852 3.46539 15.4277 3.48039C14.6627 3.56289 13.9277 3.79539 13.2602 4.17039C12.7952 4.43289 12.3752 4.76289 12.0077 5.13789C11.6402 4.75539 11.2127 4.42539 10.7477 4.15539C10.0802 3.77289 9.34518 3.53289 8.58018 3.45789C8.42268 3.44289 8.26518 3.48789 8.15268 3.59289C8.04018 3.69039 7.74768 3.93039 7.34268 4.26039C6.87768 4.64289 6.25518 5.15289 5.61768 5.68539C5.92518 5.91789 6.18768 6.19539 6.39768 6.50289C6.99018 6.00789 7.57518 5.52789 8.04018 5.14539C8.31018 4.92039 8.54268 4.73289 8.70018 4.60539C9.22518 4.68789 9.73518 4.86789 10.2002 5.13039C10.7327 5.43789 11.1977 5.84289 11.5577 6.33789C11.6627 6.48039 11.8277 6.56289 12.0077 6.56289C12.1877 6.56289 12.3527 6.48039 12.4577 6.33789C12.8252 5.85039 13.2902 5.44539 13.8227 5.14539C14.2877 4.88289 14.7902 4.71039 15.3152 4.62789L20.4452 9.12039C20.4302 9.65289 20.3252 10.1704 20.1227 10.6654C19.9052 11.2129 19.5752 11.7079 19.1627 12.1204C19.1402 12.1354 19.1252 12.1504 19.1027 12.1729L18.8852 12.3979C18.7427 12.5404 18.5477 12.7429 18.3002 12.9904C17.8127 13.4854 17.1527 14.1529 16.4702 14.8429C16.2152 15.0979 15.9602 15.3529 15.7052 15.6079C15.9902 15.8629 16.2302 16.1554 16.4177 16.4854C16.7027 16.2004 16.9877 15.9154 17.2652 15.6379C17.9552 14.9479 18.6152 14.2804 19.1027 13.7779C19.3427 13.5304 19.5452 13.3279 19.6877 13.1854L19.8527 13.0129C19.8527 13.0129 19.8827 12.9904 19.8977 12.9754C20.4452 12.4354 20.8727 11.7979 21.1577 11.0854C21.4427 10.3729 21.5777 9.61539 21.5552 8.85039C21.5552 8.69289 21.4802 8.54289 21.3602 8.44539H21.3677Z"
      />
      <path
        fill-rule="evenodd"
        clip-rule="evenodd"
        d="M12.3978 5.60258C12.6153 5.82008 12.6153 6.18008 12.3978 6.39758L9.62277 9.17258C9.62277 9.17258 10.8828 11.3251 11.3478 10.8526L12.3453 9.85508C13.0503 9.15008 14.0028 8.76008 14.9928 8.76008C15.9828 8.76008 16.9353 9.15008 17.6403 9.85508C18.2703 10.4701 18.7653 11.0401 19.0053 11.7001C19.2528 12.3976 19.1853 13.1026 18.8928 13.9351C18.7878 14.2276 18.4653 14.3851 18.1728 14.2801C17.8803 14.1751 17.7228 13.8526 17.8278 13.5601C18.0753 12.8626 18.0753 12.4426 17.9478 12.0751C17.8053 11.6776 17.4828 11.2651 16.8528 10.6576C16.3578 10.1626 15.6978 9.88508 15.0003 9.88508C14.3028 9.88508 13.6428 10.1626 13.1478 10.6501L12.1503 11.6476C11.2428 12.5551 8.84277 8.36258 8.84277 8.36258L11.6028 5.60258C11.8203 5.38508 12.1803 5.38508 12.3978 5.60258Z"
      />
      <path
        fill-rule="evenodd"
        clip-rule="evenodd"
        d="M12.105 15.1055C12.3225 14.888 12.6825 14.888 12.9 15.1055L14.9025 17.108C15.12 17.3255 15.12 17.6855 14.9025 17.903C14.685 18.1205 14.325 18.1205 14.1075 17.903L12.105 15.9005C11.8875 15.683 11.8875 15.323 12.105 15.1055Z"
      />
      <path
        fill-rule="evenodd"
        clip-rule="evenodd"
        d="M14.6026 12.6006C14.8201 12.3831 15.1801 12.3831 15.3976 12.6006L17.4001 14.6031C17.6176 14.8206 17.6176 15.1806 17.4001 15.3981C17.1826 15.6156 16.8226 15.6156 16.6051 15.3981L14.6026 13.3956C14.3851 13.1781 14.3851 12.8181 14.6026 12.6006Z"
      />
    </g>
    <path
      d="M2.60225 2.60225C2.82192 2.38258 3.17799 2.38258 3.39766 2.60225L21.3977 20.6023C21.6173 20.8219 21.6173 21.178 21.3977 21.3977C21.178 21.6173 20.8219 21.6173 20.6023 21.3977L2.60225 3.39766C2.38258 3.17799 2.38258 2.82192 2.60225 2.60225Z"
    />
    <path
      d="M13.1777 18.0374C12.8252 18.3224 12.5177 18.4649 12.1202 18.4349C11.7077 18.4049 11.1752 18.1799 10.6502 17.8274C10.4102 17.6624 9.93772 17.2499 9.33022 16.6649C8.73772 16.0949 8.04772 15.4124 7.38772 14.7449C6.73522 14.0774 6.11272 13.4399 5.65522 12.9674C5.43022 12.7274 5.24272 12.5324 5.10772 12.3974L4.95772 12.2399L4.90522 12.1874C4.90522 12.1874 4.89772 12.1799 4.89022 12.1724C4.44772 11.7449 4.10272 11.2349 3.87772 10.6649C3.66772 10.1474 3.55522 9.59994 3.54772 9.03744C3.58522 8.99244 3.63022 8.93994 3.69022 8.87994C3.83272 8.72994 4.03522 8.53494 4.27522 8.31744C4.59772 8.02494 3.81022 7.23744 3.53272 7.49244C3.28522 7.71744 3.04522 7.91994 2.88022 8.09994C2.79772 8.18994 2.71522 8.27244 2.65522 8.34744C2.59522 8.41494 2.52772 8.51244 2.47522 8.61744C2.44522 8.68494 2.42272 8.76744 2.42272 8.84244C2.40022 9.60744 2.54272 10.3724 2.82772 11.0849C3.11272 11.7899 3.54772 12.4349 4.09522 12.9674L4.14022 13.0124L4.29022 13.1699C4.41772 13.3049 4.60522 13.5074 4.83772 13.7399C5.29522 14.2199 5.91772 14.8649 6.57772 15.5324C7.23772 16.1999 7.93522 16.8974 8.54272 17.4749C9.13522 18.0374 9.68272 18.5324 10.0127 18.7574C10.6352 19.1774 11.2952 19.4624 11.9627 19.5149C12.6452 19.5674 13.3352 19.4099 13.8677 18.8924C14.1002 18.6599 13.3877 17.8649 13.1702 18.0374H13.1777Z"
    />
    <path
      d="M3.73287 7.27681C3.95545 7.06015 4.31158 7.06451 4.52828 7.28707C4.74493 7.50964 4.73981 7.86577 4.51729 8.08248L3.66255 8.91524C3.43998 9.13196 3.08387 9.12683 2.86714 8.90425C2.65049 8.68167 2.65484 8.32555 2.8774 8.10884L3.73287 7.27681Z"
    />
    <path
      d="M13.9024 17.3194C14.1288 17.1068 14.4852 17.118 14.6978 17.3443C14.9104 17.5707 14.8993 17.927 14.6729 18.1397L13.8028 18.9571C13.5764 19.1698 13.2201 19.1586 13.0074 18.9322C12.7948 18.7058 12.806 18.3495 13.0323 18.1368L13.9024 17.3194Z"
    />
  </g>
  <defs>
    <clipPath id="clip0_13_8131">
      <rect width="24" height="24" />
    </clipPath>
  </defs>
</svg>
