<svg viewBox="0 0 24 24" xmlns="http://www.w3.org/2000/svg">
  <g clip-path="url(#clip0_13_8130)">
    <path
      fill-rule="evenodd"
      clip-rule="evenodd"
      d="M8.14666 3.59338C8.26478 3.48997 8.42074 3.44062 8.57685 3.45728C9.34043 3.53873 10.0789 3.77742 10.7457 4.15828C11.2105 4.42377 11.6335 4.75433 12.0022 5.139C12.3715 4.7581 12.7942 4.4311 13.258 4.16879C13.9244 3.79196 14.6613 3.55674 15.4228 3.47783C15.5784 3.4617 15.7338 3.51114 15.8515 3.61427L21.3648 8.44546C21.4825 8.5486 21.5519 8.6961 21.5564 8.85252C21.5782 9.61773 21.4418 10.3792 21.1557 11.0893C20.8696 11.7993 20.4401 12.4427 19.894 12.9791C19.8801 12.9927 19.8657 13.0055 19.8508 13.0174L19.6834 13.1884C19.5437 13.3311 19.3431 13.5356 19.0994 13.7835C18.6122 14.279 17.9528 14.9478 17.264 15.6402C15.9031 17.0084 14.3819 18.516 13.8859 18.9164C13.3088 19.3823 12.6555 19.5738 11.9727 19.5188C11.3069 19.4651 10.6486 19.1806 10.0233 18.7613C9.68788 18.5364 9.14392 18.0466 8.55018 17.4811C7.94276 16.9025 7.24451 16.2066 6.58524 15.5379C5.92544 14.8686 5.30212 14.224 4.84393 13.7468C4.61477 13.5081 4.42677 13.3112 4.296 13.1739L4.14472 13.0148L4.0991 12.9667C3.55275 12.4328 3.1222 11.7921 2.83432 11.0844C2.54497 10.3731 2.40602 9.60958 2.42625 8.84193C2.42829 8.76431 2.44639 8.68794 2.47939 8.61765C2.52841 8.51326 2.60066 8.41811 2.65819 8.3479C2.7223 8.26967 2.79972 8.18491 2.88459 8.09711C3.05469 7.92112 3.275 7.71203 3.52443 7.48491C4.02442 7.02964 4.66453 6.481 5.30645 5.94207C6.05443 5.3141 6.79453 4.70759 7.3381 4.26213C7.74171 3.93138 8.03697 3.68941 8.14666 3.59338ZM4.9084 12.1852L4.96067 12.2403L5.11064 12.398C5.24051 12.5344 5.42744 12.7302 5.6554 12.9676C6.11144 13.4425 6.73112 14.0834 7.38638 14.7481C8.04218 15.4133 8.73105 16.0997 9.32611 16.6665C9.93486 17.2464 10.4087 17.6652 10.6499 17.8269C11.1776 18.1808 11.6519 18.3643 12.0632 18.3974C12.4575 18.4292 12.8257 18.3265 13.1792 18.041C13.6139 17.6901 15.0764 16.2443 16.4664 14.8468C17.1531 14.1564 17.811 13.4893 18.2972 12.9948C18.5403 12.7475 18.7404 12.5434 18.8798 12.4012L19.0972 12.179L19.1004 12.1817V12.1817L19.0972 12.179C19.1154 12.1603 19.1349 12.143 19.1549 12.1274C19.5672 11.7095 19.8927 11.2138 20.1122 10.6689C20.3105 10.1766 20.4187 9.65331 20.4322 9.12403L15.3012 4.62794C14.7783 4.71085 14.2738 4.88679 13.8118 5.14805C13.2802 5.44866 12.8164 5.85576 12.4494 6.34386C12.3428 6.48562 12.1756 6.5688 11.9982 6.56831C11.8209 6.56782 11.6541 6.4837 11.5483 6.34135C11.1829 5.84968 10.7196 5.43899 10.1877 5.13516C9.72363 4.87009 9.21607 4.69135 8.68965 4.60691C8.53084 4.7388 8.30278 4.92582 8.03038 5.14922C7.47698 5.60304 6.74056 6.20698 6.02981 6.80368C5.39117 7.33986 4.76484 7.87695 4.28185 8.31674C4.03979 8.53715 3.83949 8.72792 3.6935 8.87896C3.6331 8.94144 3.58544 8.99361 3.54957 9.03562C3.55549 9.59247 3.66619 10.1438 3.8764 10.6605C4.10723 11.2279 4.45306 11.7414 4.8921 12.1687C4.89763 12.1741 4.90309 12.1796 4.9084 12.1852Z"
    />
    <path
      fill-rule="evenodd"
      clip-rule="evenodd"
      d="M12.3976 5.60206C12.6172 5.82173 12.6172 6.17789 12.3976 6.39756L9.10462 9.6905V9.6905C9.02264 9.77254 8.97653 9.88383 8.97653 9.99981C8.97653 10.1158 9.02258 10.227 9.10456 10.3091V10.3091L9.64756 10.8521C10.1179 11.3224 10.8817 11.3224 11.3521 10.8521L12.3521 9.85206C13.0543 9.14984 14.0067 8.75534 14.9998 8.75534C15.9917 8.75534 16.9429 9.14884 17.6449 9.8494C18.2761 10.4646 18.7736 11.0328 19.0086 11.6935C19.2556 12.3875 19.1855 13.0955 18.8931 13.9276C18.7902 14.2207 18.4691 14.3748 18.176 14.2718C17.8829 14.1688 17.7288 13.8477 17.8318 13.5546C18.076 12.8596 18.0781 12.4342 17.9487 12.0705C17.8078 11.6744 17.4817 11.2611 16.8573 10.6527L16.852 10.6476C16.3608 10.1564 15.6945 9.88034 14.9998 9.88034C14.3051 9.88034 13.6388 10.1563 13.1476 10.6476V10.6476L12.1476 11.6476C11.2379 12.5572 9.76173 12.5572 8.85207 11.6476L8.30907 11.1046C8.01614 10.8115 7.85153 10.4141 7.85153 9.99981C7.85153 9.58549 8.01608 9.18814 8.30901 8.89512L11.6021 5.60206C11.8217 5.38239 12.1779 5.38239 12.3976 5.60206Z"
    />
    <path
      fill-rule="evenodd"
      clip-rule="evenodd"
      d="M12.1021 15.1021C12.3217 14.8824 12.6779 14.8824 12.8976 15.1021L14.8976 17.1021C15.1172 17.3217 15.1172 17.6779 14.8976 17.8976C14.6779 18.1172 14.3217 18.1172 14.1021 17.8976L12.1021 15.8976C11.8824 15.6779 11.8824 15.3217 12.1021 15.1021Z"
    />
    <path
      fill-rule="evenodd"
      clip-rule="evenodd"
      d="M14.6021 12.6021C14.8217 12.3824 15.1779 12.3824 15.3976 12.6021L17.3976 14.6021C17.6172 14.8217 17.6172 15.1779 17.3976 15.3976C17.1779 15.6172 16.8217 15.6172 16.6021 15.3976L14.6021 13.3976C14.3824 13.1779 14.3824 12.8217 14.6021 12.6021Z"
    />
  </g>
  <defs>
    <clipPath id="clip0_13_8130">
      <rect width="24" height="24" />
    </clipPath>
  </defs>
</svg>
