<svg viewBox="0 0 32 32" xmlns="http://www.w3.org/2000/svg">
  <g clip-path="url(#clip0_15_8393)">
    <mask
      id="mask0_15_8393"
      style="mask-type: luminance"
      maskUnits="userSpaceOnUse"
      x="0"
      y="0"
      width="32"
      height="32"
    >
      <path d="M32 0H0V32H32V0Z" />
    </mask>
    <g mask="url(#mask0_15_8393)">
      <path
        fill-rule="evenodd"
        clip-rule="evenodd"
        d="M28.4902 11.2602L21.1402 4.8202C20.9802 4.6802 20.7802 4.6202 20.5702 4.6402C19.5502 4.7502 18.5702 5.0602 17.6802 5.5602C17.0602 5.9102 16.5002 6.3502 16.0102 6.8502C15.5202 6.3402 14.9502 5.9002 14.3302 5.5402C13.4402 5.0302 12.4602 4.7102 11.4402 4.6102C11.2302 4.5902 11.0202 4.6502 10.8702 4.7902C10.7202 4.9202 10.3302 5.24019 9.79023 5.68019C9.17023 6.19019 8.34023 6.8702 7.49023 7.5802C7.90023 7.8902 8.25023 8.2602 8.53023 8.6702C9.32023 8.0102 10.1002 7.3702 10.7202 6.8602C11.0802 6.5602 11.3902 6.3102 11.6002 6.1402C12.3002 6.2502 12.9802 6.4902 13.6002 6.8402C14.3102 7.2502 14.9302 7.7902 15.4102 8.4502C15.5502 8.6402 15.7702 8.7502 16.0102 8.7502C16.2502 8.7502 16.4702 8.6402 16.6102 8.4502C17.1002 7.8002 17.7202 7.2602 18.4302 6.8602C19.0502 6.5102 19.7202 6.2802 20.4202 6.1702L27.2602 12.1602C27.2402 12.8702 27.1002 13.5602 26.8302 14.2202C26.5402 14.9502 26.1002 15.6102 25.5502 16.1602C25.5202 16.1802 25.5002 16.2002 25.4702 16.2302L25.1802 16.5302C24.9902 16.7202 24.7302 16.9902 24.4002 17.3202C23.7502 17.9802 22.8702 18.8702 21.9602 19.7902C21.6202 20.1302 21.2802 20.4702 20.9402 20.8102C21.3202 21.1502 21.6402 21.5402 21.8902 21.9802C22.2702 21.6002 22.6502 21.2202 23.0202 20.8502C23.9402 19.9302 24.8202 19.0402 25.4702 18.3702C25.7902 18.0402 26.0602 17.7702 26.2502 17.5802L26.4702 17.3502C26.4702 17.3502 26.5102 17.3202 26.5302 17.3002C27.2602 16.5802 27.8302 15.7302 28.2102 14.7802C28.5902 13.8302 28.7702 12.8202 28.7402 11.8002C28.7402 11.5902 28.6402 11.3902 28.4802 11.2602H28.4902Z"
      />
      <path
        fill-rule="evenodd"
        clip-rule="evenodd"
        d="M16.53 7.47043C16.82 7.76043 16.82 8.24043 16.53 8.53043L12.83 12.2304C12.83 12.2304 14.51 15.1004 15.13 14.4704L16.46 13.1404C17.4 12.2004 18.67 11.6804 19.99 11.6804C21.31 11.6804 22.58 12.2004 23.52 13.1404C24.36 13.9604 25.02 14.7204 25.34 15.6004C25.67 16.5304 25.58 17.4704 25.19 18.5804C25.05 18.9704 24.62 19.1804 24.23 19.0404C23.84 18.9004 23.63 18.4704 23.77 18.0804C24.1 17.1504 24.1 16.5904 23.93 16.1004C23.74 15.5704 23.31 15.0204 22.47 14.2104C21.81 13.5504 20.93 13.1804 20 13.1804C19.07 13.1804 18.19 13.5504 17.53 14.2004L16.2 15.5304C14.99 16.7404 11.79 11.1504 11.79 11.1504L15.47 7.47043C15.76 7.18043 16.24 7.18043 16.53 7.47043Z"
      />
      <path
        fill-rule="evenodd"
        clip-rule="evenodd"
        d="M16.1404 20.1404C16.4304 19.8504 16.9104 19.8504 17.2004 20.1404L19.8704 22.8104C20.1604 23.1004 20.1604 23.5804 19.8704 23.8704C19.5804 24.1604 19.1004 24.1604 18.8104 23.8704L16.1404 21.2004C15.8504 20.9104 15.8504 20.4304 16.1404 20.1404Z"
      />
      <path
        fill-rule="evenodd"
        clip-rule="evenodd"
        d="M19.4704 16.8005C19.7604 16.5105 20.2404 16.5105 20.5304 16.8005L23.2004 19.4705C23.4904 19.7605 23.4904 20.2405 23.2004 20.5305C22.9104 20.8205 22.4304 20.8205 22.1404 20.5305L19.4704 17.8605C19.1804 17.5705 19.1804 17.0905 19.4704 16.8005Z"
      />
    </g>
    <path
      d="M3.46967 3.46967C3.76256 3.17678 4.23732 3.17678 4.53022 3.46967L28.5302 27.4697C28.8231 27.7626 28.8231 28.2373 28.5302 28.5302C28.2373 28.8231 27.7626 28.8231 27.4697 28.5302L3.46967 4.53022C3.17678 4.23732 3.17678 3.76256 3.46967 3.46967Z"
    />
    <path
      d="M17.5701 24.0496C17.1001 24.4296 16.6901 24.6196 16.1601 24.5796C15.6101 24.5396 14.9001 24.2396 14.2001 23.7696C13.8801 23.5496 13.2501 22.9996 12.4401 22.2196C11.6501 21.4596 10.7301 20.5496 9.85013 19.6596C8.98013 18.7696 8.15013 17.9196 7.54013 17.2896C7.24013 16.9696 6.99013 16.7096 6.81013 16.5296L6.61013 16.3196L6.54013 16.2496C6.54013 16.2496 6.53013 16.2396 6.52013 16.2296C5.93013 15.6596 5.47013 14.9796 5.17013 14.2196C4.89013 13.5296 4.74013 12.7996 4.73013 12.0496C4.78013 11.9896 4.84013 11.9196 4.92013 11.8396C5.11013 11.6396 5.38013 11.3796 5.70013 11.0896C6.13013 10.6996 5.08013 9.6496 4.71013 9.9896C4.38013 10.2896 4.06013 10.5596 3.84013 10.7996C3.73013 10.9196 3.62013 11.0296 3.54013 11.1296C3.46013 11.2196 3.37013 11.3496 3.30013 11.4896C3.26013 11.5796 3.23013 11.6896 3.23013 11.7896C3.20013 12.8096 3.39013 13.8296 3.77013 14.7796C4.15013 15.7196 4.73013 16.5796 5.46013 17.2896L5.52013 17.3496L5.72013 17.5596C5.89013 17.7396 6.14013 18.0096 6.45013 18.3196C7.06013 18.9596 7.89013 19.8196 8.77013 20.7096C9.65013 21.5996 10.5801 22.5296 11.3901 23.2996C12.1801 24.0496 12.9101 24.7096 13.3501 25.0096C14.1801 25.5696 15.0601 25.9496 15.9501 26.0196C16.8601 26.0896 17.7801 25.8796 18.4901 25.1896C18.8001 24.8796 17.8501 23.8196 17.5601 24.0496H17.5701Z"
    />
    <path
      d="M4.97699 9.70307C5.27377 9.41419 5.74861 9.42 6.03754 9.71674C6.32641 10.0135 6.31958 10.4883 6.02289 10.7773L4.88324 11.8876C4.58647 12.1766 4.11166 12.1698 3.8227 11.873C3.53382 11.5762 3.53962 11.1014 3.83637 10.8124L4.97699 9.70307Z"
    />
    <path
      d="M18.5362 23.0929C18.8381 22.8094 19.3132 22.8243 19.5968 23.1261C19.8803 23.428 19.8654 23.9031 19.5636 24.1866L18.4034 25.2765C18.1016 25.5601 17.6265 25.5451 17.3429 25.2433C17.0594 24.9414 17.0743 24.4663 17.3761 24.1827L18.5362 23.0929Z"
    />
  </g>
  <defs>
    <clipPath id="clip0_15_8393">
      <rect width="32" height="32" />
    </clipPath>
  </defs>
</svg>
