<svg viewBox="0 0 24 24" xmlns="http://www.w3.org/2000/svg">
  <g clip-path="url(#clip0_13_8142)">
    <path
      d="M11.5321 5.1255C11.7045 4.86711 12.0537 4.7972 12.3121 4.9695C12.5705 5.14184 12.6403 5.49111 12.4682 5.74953L11.0509 7.87502H13.9996C14.2071 7.87502 14.3976 7.98948 14.4955 8.17238C14.5933 8.35526 14.5827 8.57695 14.4677 8.74953L12.4682 11.7495C12.2959 12.008 11.9466 12.0777 11.6881 11.9055C11.4296 11.7332 11.3598 11.384 11.5321 11.1255L12.9486 9.00002H9.99989C9.79244 9.00002 9.60192 8.88555 9.50404 8.70265C9.40626 8.51979 9.41684 8.29805 9.53187 8.1255L11.5321 5.1255Z"
    />
    <path
      d="M19.4373 14.0002V11.0002C19.4373 9.0277 18.6538 7.13552 17.259 5.74072C15.8643 4.34605 13.9726 3.56256 12.0002 3.5625C10.0277 3.5625 8.13552 4.34592 6.74072 5.74072C5.34592 7.13552 4.5625 9.0277 4.5625 11.0002V14.0002C4.56237 14.3108 4.31058 14.5627 4 14.5627C3.68942 14.5627 3.43763 14.3108 3.4375 14.0002V11.0002C3.4375 8.72933 4.33953 6.55109 5.94531 4.94531C7.55109 3.33953 9.72933 2.4375 12.0002 2.4375C14.271 2.43756 16.4487 3.33967 18.0544 4.94531C19.6602 6.55109 20.5623 8.72933 20.5623 11.0002V14.0002C20.5621 14.3108 20.3103 14.5627 19.9998 14.5627C19.6893 14.5626 19.4374 14.3107 19.4373 14.0002Z"
    />
    <path
      d="M17.4375 19C17.4375 18.6893 17.6893 18.4375 18 18.4375C18.3107 18.4375 18.5625 18.6893 18.5625 19C18.5625 19.7347 18.1818 20.3707 17.6287 20.8699C17.0765 21.3681 16.3171 21.766 15.446 22.0498C14.4433 22.3765 13.2601 22.5625 12 22.5625C11.6893 22.5625 11.4375 22.3107 11.4375 22C11.4375 21.6893 11.6893 21.4375 12 21.4375C13.1539 21.4375 14.2182 21.2669 15.0974 20.9805C15.8688 20.7291 16.4737 20.3964 16.875 20.0342C17.2753 19.6729 17.4375 19.3187 17.4375 19Z"
    />
    <path
      d="M8.43774 14.0002C8.43774 13.6191 8.28611 13.2532 8.0166 12.9836C7.74702 12.7141 7.38125 12.5625 7 12.5625H6.00024C5.619 12.5625 5.25323 12.7141 4.98364 12.9836C4.71406 13.2532 4.5625 13.619 4.5625 14.0002V17.0002C4.56256 17.3813 4.71419 17.7466 4.98364 18.0161C5.25323 18.2857 5.619 18.4373 6.00024 18.4373H7C7.38125 18.4373 7.74702 18.2857 8.0166 18.0161C8.28598 17.7466 8.43768 17.3813 8.43774 17.0002V14.0002ZM9.56274 17.0002C9.56268 17.6798 9.29252 18.3318 8.81201 18.8123C8.33146 19.2927 7.67956 19.5623 7 19.5623H6.00024C5.32074 19.5623 4.66877 19.2927 4.18823 18.8123C3.70773 18.3318 3.43756 17.6798 3.4375 17.0002V14.0002C3.4375 13.3206 3.70767 12.6688 4.18823 12.1882C4.66879 11.7077 5.32063 11.4375 6.00024 11.4375H7C7.67962 11.4375 8.33145 11.7077 8.81201 12.1882C9.2925 12.6688 9.56274 13.3207 9.56274 14.0002V17.0002Z"
    />
    <path
      d="M19.4377 14.0002C19.4377 13.6191 19.2861 13.2532 19.0166 12.9836C18.747 12.7141 18.3812 12.5625 18 12.5625H17.0002C16.619 12.5625 16.2532 12.7141 15.9836 12.9836C15.7141 13.2532 15.5625 13.619 15.5625 14.0002V17.0002C15.5626 17.3813 15.7142 17.7466 15.9836 18.0161C16.2532 18.2857 16.619 18.4373 17.0002 18.4373H18C18.3812 18.4373 18.747 18.2857 19.0166 18.0161C19.286 17.7466 19.4377 17.3813 19.4377 17.0002V14.0002ZM20.5627 17.0002C20.5627 17.6798 20.2925 18.3318 19.812 18.8123C19.3315 19.2927 18.6796 19.5623 18 19.5623H17.0002C16.3207 19.5623 15.6688 19.2927 15.1882 18.8123C14.7077 18.3318 14.4376 17.6798 14.4375 17.0002V14.0002C14.4375 13.3206 14.7077 12.6688 15.1882 12.1882C15.6688 11.7077 16.3206 11.4375 17.0002 11.4375H18C18.6796 11.4375 19.3315 11.7077 19.812 12.1882C20.2925 12.6688 20.5627 13.3207 20.5627 14.0002V17.0002Z"
    />
  </g>
  <defs>
    <clipPath id="clip0_13_8142">
      <rect width="24" height="24" />
    </clipPath>
  </defs>
</svg>
