<svg viewBox="0 0 32 32" xmlns="http://www.w3.org/2000/svg">
  <g clip-path="url(#clip0_15_8404)">
    <path
      d="M15.3763 6.834C15.6061 6.48948 16.0718 6.39627 16.4164 6.626C16.7608 6.85578 16.854 7.32148 16.6244 7.66604L14.7347 10.5H18.6664C18.943 10.5 19.197 10.6526 19.3275 10.8965C19.4579 11.1404 19.4438 11.4359 19.2904 11.666L16.6244 15.666C16.3946 16.0106 15.9289 16.1036 15.5843 15.874C15.2397 15.6443 15.1466 15.1787 15.3763 14.834L17.265 12H13.3333C13.0568 12 12.8027 11.8474 12.6722 11.6035C12.5418 11.3597 12.5559 11.0641 12.7093 10.834L15.3763 6.834Z"
    />
    <path
      d="M25.9165 18.667V14.667C25.9165 12.0369 24.8719 9.51403 23.0122 7.6543C21.1526 5.79474 18.6304 4.75009 16.0005 4.75C13.3704 4.75 10.8475 5.79456 8.98779 7.6543C7.12806 9.51403 6.0835 12.0369 6.0835 14.667V18.667C6.08332 19.0811 5.7476 19.417 5.3335 19.417C4.91939 19.417 4.58367 19.0811 4.5835 18.667V14.667C4.5835 11.6391 5.78621 8.73479 7.92725 6.59375C10.0683 4.45271 12.9726 3.25 16.0005 3.25C19.0282 3.25009 21.9318 4.45289 24.0728 6.59375C26.2138 8.73479 27.4165 11.6391 27.4165 14.667V18.667C27.4163 19.0811 27.0806 19.417 26.6665 19.417C26.2525 19.4168 25.9167 19.0809 25.9165 18.667Z"
    />
    <path
      d="M23.25 25.333C23.25 24.9188 23.5858 24.583 24 24.583C24.4142 24.583 24.75 24.9188 24.75 25.333C24.75 26.3126 24.2424 27.1607 23.5049 27.8262C22.7687 28.4904 21.7561 29.021 20.5947 29.3994C19.2577 29.835 17.6802 30.083 16 30.083C15.5858 30.083 15.25 29.7472 15.25 29.333C15.25 28.9188 15.5858 28.583 16 28.583C17.5385 28.583 18.9576 28.3556 20.1299 27.9736C21.1584 27.6385 21.9649 27.1948 22.5 26.7119C23.0338 26.2302 23.25 25.758 23.25 25.333Z"
    />
    <path
      d="M11.2505 18.667C11.2505 18.1587 11.0483 17.671 10.689 17.3115C10.3295 16.9521 9.84183 16.75 9.3335 16.75H8.00049C7.49216 16.75 7.00446 16.9521 6.64502 17.3115C6.28557 17.671 6.0835 18.1587 6.0835 18.667V22.667C6.08358 23.1751 6.28575 23.6621 6.64502 24.0215C7.00446 24.3809 7.49216 24.583 8.00049 24.583H9.3335C9.84183 24.583 10.3295 24.3809 10.689 24.0215C11.0481 23.6621 11.2504 23.1751 11.2505 22.667V18.667ZM12.7505 22.667C12.7504 23.573 12.3902 24.4423 11.7495 25.083C11.1088 25.7237 10.2396 26.083 9.3335 26.083H8.00049C7.09449 26.083 6.22519 25.7236 5.58447 25.083C4.9438 24.4423 4.58358 23.573 4.5835 22.667V18.667C4.5835 17.7608 4.94372 16.8917 5.58447 16.251C6.22522 15.6102 7.09433 15.25 8.00049 15.25H9.3335C10.2397 15.25 11.1088 15.6102 11.7495 16.251C12.3902 16.8917 12.7505 17.7609 12.7505 18.667V22.667Z"
    />
    <path
      d="M25.917 18.667C25.917 18.1587 25.7148 17.671 25.3555 17.3115C24.996 16.9521 24.5083 16.75 24 16.75H22.667C22.1587 16.75 21.671 16.9521 21.3115 17.3115C20.9521 17.671 20.75 18.1587 20.75 18.667V22.667C20.7501 23.1751 20.9523 23.6621 21.3115 24.0215C21.671 24.3809 22.1587 24.583 22.667 24.583H24C24.5083 24.583 24.996 24.3809 25.3555 24.0215C25.7146 23.6621 25.9169 23.1751 25.917 22.667V18.667ZM27.417 22.667C27.4169 23.573 27.0567 24.4423 26.416 25.083C25.7753 25.7237 24.9061 26.083 24 26.083H22.667C21.761 26.083 20.8917 25.7236 20.251 25.083C19.6103 24.4423 19.2501 23.573 19.25 22.667V18.667C19.25 17.7608 19.6102 16.8917 20.251 16.251C20.8917 15.6102 21.7608 15.25 22.667 15.25H24C24.9062 15.25 25.7753 15.6102 26.416 16.251C27.0567 16.8917 27.417 17.7609 27.417 18.667V22.667Z"
    />
  </g>
  <defs>
    <clipPath id="clip0_15_8404">
      <rect width="32" height="32" />
    </clipPath>
  </defs>
</svg>
