<svg viewBox="0 0 24 24" xmlns="http://www.w3.org/2000/svg">
  <g clip-path="url(#clip0_13_8127)">
    <path
      fill-rule="evenodd"
      clip-rule="evenodd"
      d="M9.4375 3C9.4375 2.68934 9.68934 2.4375 10 2.4375H14C14.3107 2.4375 14.5625 2.68934 14.5625 3V7C14.5625 7.31066 14.3107 7.5625 14 7.5625H10C9.68934 7.5625 9.4375 7.31066 9.4375 7V3ZM10.5625 3.5625V6.4375H13.4375V3.5625H10.5625Z"
    />
    <path
      fill-rule="evenodd"
      clip-rule="evenodd"
      d="M2.4375 17C2.4375 16.6893 2.68934 16.4375 3 16.4375H7C7.31066 16.4375 7.5625 16.6893 7.5625 17V21C7.5625 21.3107 7.31066 21.5625 7 21.5625H3C2.68934 21.5625 2.4375 21.3107 2.4375 21V17ZM3.5625 17.5625V20.4375H6.4375V17.5625H3.5625Z"
    />
    <path
      fill-rule="evenodd"
      clip-rule="evenodd"
      d="M9.4375 17C9.4375 16.6893 9.68934 16.4375 10 16.4375H14C14.3107 16.4375 14.5625 16.6893 14.5625 17V21C14.5625 21.3107 14.3107 21.5625 14 21.5625H10C9.68934 21.5625 9.4375 21.3107 9.4375 21V17ZM10.5625 17.5625V20.4375H13.4375V17.5625H10.5625Z"
    />
    <path
      fill-rule="evenodd"
      clip-rule="evenodd"
      d="M7.06908 13.8607C5.99375 14.6325 5.44922 15.6814 5.44922 16.8637C5.44922 17.1743 5.19738 17.4262 4.88672 17.4262C4.57606 17.4262 4.32422 17.1743 4.32422 16.8637C4.32422 15.2913 5.06662 13.9132 6.41308 12.9468C7.74641 11.9898 9.65061 11.4473 12 11.4473C14.3493 11.4472 16.2284 11.99 17.5358 12.9509C17.7043 13.0747 17.8627 13.2052 18.011 13.3418C18.3509 13.6549 18.0601 14.5633 17.3327 14.2486C17.1917 14.1113 17.0374 13.9807 16.8696 13.8574C15.8114 13.0797 14.1901 12.5722 12 12.5723C9.80997 12.5723 8.15754 13.0795 7.06908 13.8607Z"
    />
    <path
      fill-rule="evenodd"
      clip-rule="evenodd"
      d="M12 6.4375C12.3107 6.4375 12.5625 6.68934 12.5625 7V17.0026C12.5625 17.3133 12.3107 17.5651 12 17.5651C11.6893 17.5651 11.4375 17.3133 11.4375 17.0026V7C11.4375 6.68934 11.6893 6.4375 12 6.4375Z"
    />
    <path
      fill-rule="evenodd"
      clip-rule="evenodd"
      d="M19.2833 15.7901L17.04 17.1137C16.9718 17.1532 16.9375 17.2204 16.9375 17.2797V19.7097C16.9375 19.7908 16.9752 19.8409 17.0214 19.8655C17.034 19.8722 17.0464 19.8794 17.0585 19.887L19.2927 21.302C19.3417 21.3265 19.4008 21.3265 19.4498 21.302L21.684 19.887C21.6901 19.8832 21.6963 19.8794 21.7025 19.8758C21.7707 19.8362 21.805 19.7691 21.805 19.7097V17.2797C21.805 17.2097 21.7688 17.1478 21.71 17.1137C21.6817 17.0972 21.6553 17.0786 21.6309 17.0581L19.4817 15.7901C19.4203 15.7588 19.3447 15.7588 19.2833 15.7901ZM22.3953 16.2198C22.3649 16.1908 22.3308 16.1648 22.2933 16.1428L20.0433 14.8153C20.0383 14.8123 20.0331 14.8094 20.028 14.8065C19.627 14.5866 19.138 14.5866 18.737 14.8065C18.7319 14.8094 18.7267 14.8123 18.7217 14.8153L16.4731 16.1419C16.0773 16.3726 15.8125 16.7998 15.8125 17.2797V19.7097C15.8125 20.1758 16.0516 20.6137 16.4721 20.8473L18.7065 22.2624C18.7143 22.2674 18.7222 22.2721 18.7302 22.2766C19.1272 22.5016 19.6153 22.5016 20.0123 22.2766C20.0203 22.2721 20.0282 22.2674 20.036 22.2624L22.2781 20.8424C22.669 20.6106 22.93 20.1861 22.93 19.7097V17.2797C22.93 16.8581 22.7298 16.4663 22.3953 16.2198ZM17.8075 18.5397C17.8075 17.6816 18.5093 16.9797 19.3675 16.9797C20.2257 16.9797 20.9275 17.6816 20.9275 18.5397C20.9275 19.3979 20.2257 20.0997 19.3675 20.0997C18.5121 20.0997 17.8075 19.4081 17.8075 18.5397ZM19.3675 18.1047C19.1307 18.1047 18.9325 18.3029 18.9325 18.5397C18.9325 18.7813 19.1279 18.9747 19.3675 18.9747C19.6043 18.9747 19.8025 18.7766 19.8025 18.5397C19.8025 18.3029 19.6043 18.1047 19.3675 18.1047Z"
    />
  </g>
  <defs>
    <clipPath id="clip0_13_8127">
      <rect width="24" height="24" />
    </clipPath>
  </defs>
</svg>
