<svg viewBox="0 0 24 24" xmlns="http://www.w3.org/2000/svg">
  <path
    fill-rule="evenodd"
    clip-rule="evenodd"
    d="M4.4375 2C4.4375 1.68934 4.68934 1.4375 5 1.4375H10C10.3107 1.4375 10.5625 1.68934 10.5625 2V6C10.5625 6.31066 10.3107 6.5625 10 6.5625H5C4.68934 6.5625 4.4375 6.31066 4.4375 6V2ZM5.5625 2.5625V5.4375H9.4375V2.5625H5.5625Z"
  />
  <path
    fill-rule="evenodd"
    clip-rule="evenodd"
    d="M14.4375 10C14.4375 9.68934 14.6893 9.4375 15 9.4375H20C20.3107 9.4375 20.5625 9.68934 20.5625 10V14C20.5625 14.3107 20.3107 14.5625 20 14.5625H15C14.6893 14.5625 14.4375 14.3107 14.4375 14V10ZM15.5625 10.5625V13.4375H19.4375V10.5625H15.5625Z"
  />
  <path
    fill-rule="evenodd"
    clip-rule="evenodd"
    d="M4.4375 18C4.4375 17.6893 4.68934 17.4375 5 17.4375H10C10.3107 17.4375 10.5625 17.6893 10.5625 18V22C10.5625 22.3107 10.3107 22.5625 10 22.5625H5C4.68934 22.5625 4.4375 22.3107 4.4375 22V18ZM5.5625 18.5625V21.4375H9.4375V18.5625H5.5625Z"
  />
  <path
    fill-rule="evenodd"
    clip-rule="evenodd"
    d="M4.4375 10C4.4375 9.68934 4.68934 9.4375 5 9.4375H10C10.3107 9.4375 10.5625 9.68934 10.5625 10V14C10.5625 14.3107 10.3107 14.5625 10 14.5625H5C4.68934 14.5625 4.4375 14.3107 4.4375 14V10ZM5.5625 10.5625V13.4375H9.4375V10.5625H5.5625Z"
  />
  <path
    fill-rule="evenodd"
    clip-rule="evenodd"
    d="M9.4375 12C9.4375 11.6893 9.68934 11.4375 10 11.4375H15C15.3107 11.4375 15.5625 11.6893 15.5625 12C15.5625 12.3107 15.3107 12.5625 15 12.5625H10C9.68934 12.5625 9.4375 12.3107 9.4375 12Z"
  />
  <path
    fill-rule="evenodd"
    clip-rule="evenodd"
    d="M7.5 5.4375C7.81066 5.4375 8.0625 5.68934 8.0625 6V10C8.0625 10.3107 7.81066 10.5625 7.5 10.5625C7.18934 10.5625 6.9375 10.3107 6.9375 10V6C6.9375 5.68934 7.18934 5.4375 7.5 5.4375Z"
  />
  <path
    fill-rule="evenodd"
    clip-rule="evenodd"
    d="M7.5 13.4375C7.81066 13.4375 8.0625 13.6893 8.0625 14V18C8.0625 18.3107 7.81066 18.5625 7.5 18.5625C7.18934 18.5625 6.9375 18.3107 6.9375 18V14C6.9375 13.6893 7.18934 13.4375 7.5 13.4375Z"
  />
</svg>
