<svg viewBox="0 0 24 24" xmlns="http://www.w3.org/2000/svg">
  <g clip-path="url(#clip0_13_8138)">
    <path
      d="M12.5452 2.66874C12.6885 2.47192 12.9421 2.38984 13.1736 2.46513C13.4053 2.54047 13.5625 2.75616 13.5625 2.9998V9.43705H19C19.2115 9.43714 19.4051 9.55621 19.501 9.74467C19.597 9.93315 19.5792 10.1595 19.4549 10.3306L18.4544 11.7054C18.2717 11.9565 17.9205 12.0124 17.6692 11.8299C17.418 11.6472 17.3621 11.2952 17.5447 11.044L17.8956 10.5621H13C12.6894 10.5621 12.4375 10.3102 12.4375 9.99955V4.72904L6.1043 13.4375H10.9998C11.3105 13.4375 11.5623 13.6894 11.5623 14V19.261L13.4417 16.6609C13.6237 16.4091 13.9751 16.3523 14.2269 16.5342C14.4785 16.7161 14.5353 17.0676 14.3536 17.3194L11.4554 21.3294C11.3125 21.5268 11.0589 21.6101 10.827 21.5352C10.5948 21.4601 10.4373 21.2438 10.4373 20.9998V14.5625H4.9998C4.78824 14.5625 4.59484 14.4434 4.49883 14.2549C4.40282 14.0664 4.42053 13.8401 4.54497 13.669L12.5452 2.66874Z"
    />
    <path
      d="M20.4373 17.0002C20.4373 16.619 20.2857 16.2532 20.0161 15.9836C19.7466 15.7142 19.3813 15.5626 19.0002 15.5625C18.619 15.5625 18.2532 15.7141 17.9836 15.9836C17.7141 16.2532 17.5625 16.619 17.5625 17.0002C17.5626 17.3813 17.7142 17.7466 17.9836 18.0161C18.2532 18.2857 18.619 18.4373 19.0002 18.4373C19.3814 18.4372 19.7466 18.2856 20.0161 18.0161C20.2856 17.7466 20.4372 17.3814 20.4373 17.0002ZM21.5623 17.0002C21.5622 17.6798 21.2928 18.3318 20.8123 18.8123C20.3318 19.2928 19.6798 19.5622 19.0002 19.5623C18.3207 19.5623 17.6688 19.2927 17.1882 18.8123C16.7077 18.3318 16.4376 17.6798 16.4375 17.0002C16.4375 16.3206 16.7077 15.6688 17.1882 15.1882C17.6688 14.7077 18.3206 14.4375 19.0002 14.4375C19.6798 14.4376 20.3318 14.7077 20.8123 15.1882C21.2927 15.6688 21.5623 16.3207 21.5623 17.0002Z"
    />
    <path
      d="M21.4375 22.0002C21.4375 21.619 21.2859 21.2532 21.0164 20.9836C20.7468 20.7141 20.381 20.5625 19.9998 20.5625H18.0002C17.619 20.5625 17.2532 20.7141 16.9836 20.9836C16.7141 21.2532 16.5625 21.619 16.5625 22.0002C16.5624 22.3108 16.3106 22.5627 16 22.5627C15.6894 22.5627 15.4376 22.3108 15.4375 22.0002C15.4375 21.3206 15.7077 20.6688 16.1882 20.1882C16.6688 19.7077 17.3206 19.4375 18.0002 19.4375H19.9998C20.6794 19.4375 21.3312 19.7077 21.8118 20.1882C22.2923 20.6688 22.5625 21.3206 22.5625 22.0002C22.5624 22.3108 22.3106 22.5627 22 22.5627C21.6894 22.5627 21.4376 22.3108 21.4375 22.0002Z"
    />
  </g>
  <defs>
    <clipPath id="clip0_13_8138">
      <rect width="24" height="24" />
    </clipPath>
  </defs>
</svg>
