<svg viewBox="0 0 32 32" xmlns="http://www.w3.org/2000/svg">
  <g clip-path="url(#clip0_15_8400)">
    <path
      d="M16.7273 3.55832C16.9184 3.29589 17.2564 3.18645 17.5652 3.28684C17.8741 3.3873 18.0837 3.67488 18.0837 3.99973V12.5827H25.3337C25.6157 12.5829 25.8737 12.7416 26.0017 12.9929C26.1296 13.2442 26.106 13.5461 25.9402 13.7741L24.6062 15.6072C24.3626 15.942 23.8943 16.0165 23.5593 15.7732C23.2244 15.5296 23.1498 15.0603 23.3933 14.7253L23.8611 14.0827H17.3337C16.9195 14.0827 16.5837 13.747 16.5837 13.3327V6.30539L8.13939 17.9167H14.6667C15.0809 17.9167 15.4167 18.2525 15.4167 18.6667V25.6814L17.9226 22.2146C18.1652 21.8788 18.6337 21.803 18.9695 22.0456C19.3049 22.2882 19.3807 22.7568 19.1384 23.0925L15.2742 28.4392C15.0837 28.7025 14.7455 28.8134 14.4363 28.7136C14.1268 28.6135 13.9167 28.325 13.9167 27.9997V19.4167H6.66673C6.38464 19.4167 6.12677 19.2579 5.99876 19.0066C5.87075 18.7552 5.89437 18.4535 6.06028 18.2253L16.7273 3.55832Z"
    />
    <path
      d="M27.2495 22.667C27.2495 22.1587 27.0474 21.671 26.688 21.3115C26.3286 20.9523 25.8416 20.7501 25.3335 20.75C24.8252 20.75 24.3375 20.9521 23.978 21.3115C23.6186 21.671 23.4165 22.1587 23.4165 22.667C23.4166 23.1751 23.6188 23.6621 23.978 24.0215C24.3375 24.3809 24.8252 24.583 25.3335 24.583C25.8417 24.5829 26.3286 24.3809 26.688 24.0215C27.0474 23.6621 27.2494 23.1752 27.2495 22.667ZM28.7495 22.667C28.7494 23.573 28.3902 24.4423 27.7495 25.083C27.1088 25.7237 26.2395 26.0829 25.3335 26.083C24.4275 26.083 23.5582 25.7236 22.9175 25.083C22.2768 24.4423 21.9166 23.573 21.9165 22.667C21.9165 21.7608 22.2767 20.8917 22.9175 20.251C23.5582 19.6102 24.4273 19.25 25.3335 19.25C26.2395 19.2501 27.1088 19.6103 27.7495 20.251C28.3901 20.8917 28.7495 21.761 28.7495 22.667Z"
    />
    <path
      d="M28.5835 29.334C28.5835 28.8257 28.3814 28.338 28.022 27.9785C27.6625 27.6191 27.1748 27.417 26.6665 27.417H24.0005C23.4922 27.417 23.0045 27.6191 22.645 27.9785C22.2856 28.338 22.0835 28.8257 22.0835 29.334C22.0833 29.748 21.7476 30.084 21.3335 30.084C20.9194 30.084 20.5837 29.748 20.5835 29.334C20.5835 28.4278 20.9437 27.5587 21.5845 26.918C22.2252 26.2772 23.0943 25.917 24.0005 25.917H26.6665C27.5727 25.917 28.4418 26.2772 29.0825 26.918C29.7233 27.5587 30.0835 28.4278 30.0835 29.334C30.0833 29.748 29.7476 30.084 29.3335 30.084C28.9194 30.084 28.5837 29.748 28.5835 29.334Z"
    />
  </g>
  <defs>
    <clipPath id="clip0_15_8400">
      <rect width="32" height="32" />
    </clipPath>
  </defs>
</svg>
