<svg viewBox="0 0 24 24" xmlns="http://www.w3.org/2000/svg">
  <path
    fill-rule="evenodd"
    clip-rule="evenodd"
    d="M8.4375 6C8.4375 5.68934 8.68934 5.4375 9 5.4375H20C20.3107 5.4375 20.5625 5.68934 20.5625 6C20.5625 6.31066 20.3107 6.5625 20 6.5625H9C8.68934 6.5625 8.4375 6.31066 8.4375 6Z"
  />
  <path
    fill-rule="evenodd"
    clip-rule="evenodd"
    d="M8.4375 12C8.4375 11.6893 8.68934 11.4375 9 11.4375H20C20.3107 11.4375 20.5625 11.6893 20.5625 12C20.5625 12.3107 20.3107 12.5625 20 12.5625H9C8.68934 12.5625 8.4375 12.3107 8.4375 12Z"
  />
  <path
    fill-rule="evenodd"
    clip-rule="evenodd"
    d="M8.4375 18C8.4375 17.6893 8.68934 17.4375 9 17.4375H20C20.3107 17.4375 20.5625 17.6893 20.5625 18C20.5625 18.3107 20.3107 18.5625 20 18.5625H9C8.68934 18.5625 8.4375 18.3107 8.4375 18Z"
  />
  <path
    fill-rule="evenodd"
    clip-rule="evenodd"
    d="M5 5.4375C5.31066 5.4375 5.5625 5.68934 5.5625 6V6.01C5.5625 6.32066 5.31066 6.5725 5 6.5725C4.68934 6.5725 4.4375 6.32066 4.4375 6.01V6C4.4375 5.68934 4.68934 5.4375 5 5.4375Z"
  />
  <path
    fill-rule="evenodd"
    clip-rule="evenodd"
    d="M5 11.4375C5.31066 11.4375 5.5625 11.6893 5.5625 12V12.01C5.5625 12.3207 5.31066 12.5725 5 12.5725C4.68934 12.5725 4.4375 12.3207 4.4375 12.01V12C4.4375 11.6893 4.68934 11.4375 5 11.4375Z"
  />
  <path
    fill-rule="evenodd"
    clip-rule="evenodd"
    d="M5 17.4375C5.31066 17.4375 5.5625 17.6893 5.5625 18V18.01C5.5625 18.3207 5.31066 18.5725 5 18.5725C4.68934 18.5725 4.4375 18.3207 4.4375 18.01V18C4.4375 17.6893 4.68934 17.4375 5 17.4375Z"
  />
</svg>
