<svg width="32" height="32" viewBox="0 0 32 32" fill="none" xmlns="http://www.w3.org/2000/svg">
<path fill-rule="evenodd" clip-rule="evenodd" d="M12.3754 17.3153C12.3754 16.9011 12.7112 16.5653 13.1254 16.5653H22.7921C23.2063 16.5653 23.5421 16.9011 23.5421 17.3153C23.5421 17.7295 23.2063 18.0653 22.7921 18.0653H13.1254C12.7112 18.0653 12.3754 17.7295 12.3754 17.3153Z" fill="#131C26"/>
<path fill-rule="evenodd" clip-rule="evenodd" d="M12.3754 21.2336C12.3754 20.8193 12.7112 20.4836 13.1254 20.4836H22.7921C23.2063 20.4836 23.5421 20.8193 23.5421 21.2336C23.5421 21.6478 23.2063 21.9836 22.7921 21.9836H13.1254C12.7112 21.9836 12.3754 21.6478 12.3754 21.2336Z" fill="#131C26"/>
<path d="M25.3025 25.4049H6.63435C5.9271 25.4049 5.24883 25.124 4.74873 24.6239C4.24863 24.1238 3.96768 23.4455 3.96768 22.7382V9.27464C3.96768 8.56739 4.24863 7.88912 4.74873 7.38902C5.24883 6.88892 5.9271 6.60797 6.63435 6.60797H21.3025L27.9692 13.2746V22.7382C27.9692 23.4455 27.6882 24.1238 27.1881 24.6239C26.688 25.124 26.0097 25.4049 25.3025 25.4049Z" stroke="#131C26" stroke-width="1.5" stroke-linecap="round" stroke-linejoin="round"/>
<path fill-rule="evenodd" clip-rule="evenodd" d="M9.20795 16.5653C9.62216 16.5653 9.95795 16.9011 9.95795 17.3153V17.3286C9.95795 17.7429 9.62216 18.0786 9.20795 18.0786C8.79373 18.0786 8.45795 17.7429 8.45795 17.3286V17.3153C8.45795 16.9011 8.79373 16.5653 9.20795 16.5653Z" fill="#131C26"/>
<path fill-rule="evenodd" clip-rule="evenodd" d="M9.20795 20.4836C9.62216 20.4836 9.95795 20.8193 9.95795 21.2336V21.2469C9.95795 21.6611 9.62216 21.9969 9.20795 21.9969C8.79373 21.9969 8.45795 21.6611 8.45795 21.2469V21.2336C8.45795 20.8193 8.79373 20.4836 9.20795 20.4836Z" fill="#131C26"/>
<path d="M21.2951 6.60797V11.9472C21.2951 12.3012 21.4357 12.6407 21.6861 12.8911C21.9364 13.1414 22.2759 13.282 22.6299 13.282H27.9692" stroke="#131C26" stroke-width="1.5" stroke-linecap="round" stroke-linejoin="round"/>
</svg>
