<svg viewBox="0 0 32 32" xmlns="http://www.w3.org/2000/svg">
  <path
    fill-rule="evenodd"
    clip-rule="evenodd"
    d="M11.25 8C11.25 7.58579 11.5858 7.25 12 7.25H26.6667C27.0809 7.25 27.4167 7.58579 27.4167 8C27.4167 8.41421 27.0809 8.75 26.6667 8.75H12C11.5858 8.75 11.25 8.41421 11.25 8Z"
  />
  <path
    fill-rule="evenodd"
    clip-rule="evenodd"
    d="M11.25 16C11.25 15.5858 11.5858 15.25 12 15.25H26.6667C27.0809 15.25 27.4167 15.5858 27.4167 16C27.4167 16.4142 27.0809 16.75 26.6667 16.75H12C11.5858 16.75 11.25 16.4142 11.25 16Z"
  />
  <path
    fill-rule="evenodd"
    clip-rule="evenodd"
    d="M11.25 24C11.25 23.5858 11.5858 23.25 12 23.25H26.6667C27.0809 23.25 27.4167 23.5858 27.4167 24C27.4167 24.4142 27.0809 24.75 26.6667 24.75H12C11.5858 24.75 11.25 24.4142 11.25 24Z"
  />
  <path
    fill-rule="evenodd"
    clip-rule="evenodd"
    d="M6.6665 7.25C7.08072 7.25 7.4165 7.58579 7.4165 8V8.01333C7.4165 8.42755 7.08072 8.76333 6.6665 8.76333C6.25229 8.76333 5.9165 8.42755 5.9165 8.01333V8C5.9165 7.58579 6.25229 7.25 6.6665 7.25Z"
  />
  <path
    fill-rule="evenodd"
    clip-rule="evenodd"
    d="M6.6665 15.25C7.08072 15.25 7.4165 15.5858 7.4165 16V16.0133C7.4165 16.4275 7.08072 16.7633 6.6665 16.7633C6.25229 16.7633 5.9165 16.4275 5.9165 16.0133V16C5.9165 15.5858 6.25229 15.25 6.6665 15.25Z"
  />
  <path
    fill-rule="evenodd"
    clip-rule="evenodd"
    d="M6.6665 23.25C7.08072 23.25 7.4165 23.5858 7.4165 24V24.0133C7.4165 24.4275 7.08072 24.7633 6.6665 24.7633C6.25229 24.7633 5.9165 24.4275 5.9165 24.0133V24C5.9165 23.5858 6.25229 23.25 6.6665 23.25Z"
  />
</svg>
