<svg viewBox="0 0 24 24" xmlns="http://www.w3.org/2000/svg">
  <g clip-path="url(#clip0_13_8140)">
    <path
      d="M20.4375 11.75V7.00024C20.4375 6.619 20.2859 6.25323 20.0164 5.98364C19.7468 5.71406 19.381 5.5625 18.9998 5.5625H5.00024C4.619 5.5625 4.25323 5.71406 3.98364 5.98364C3.71406 6.25323 3.5625 6.619 3.5625 7.00024V17C3.5625 17.3812 3.71406 17.747 3.98364 18.0166C4.25321 18.2861 4.61905 18.4377 5.00024 18.4377H10.7498C11.0604 18.4377 11.3123 18.6896 11.3123 19.0002C11.3121 19.3108 11.0603 19.5627 10.7498 19.5627H5.00024C4.32068 19.5627 3.66878 19.2925 3.18823 18.812C2.70767 18.3314 2.4375 17.6796 2.4375 17V7.00024C2.4375 6.32063 2.70767 5.66879 3.18823 5.18823C3.66879 4.70767 4.32063 4.4375 5.00024 4.4375H18.9998C19.6794 4.4375 20.3312 4.70767 20.8118 5.18823C21.2923 5.66879 21.5625 6.32063 21.5625 7.00024V11.75C21.5625 12.0607 21.3107 12.3125 21 12.3125C20.6893 12.3125 20.4375 12.0607 20.4375 11.75Z"
    />
    <path
      d="M18.1024 18.1022C18.3221 17.8826 18.6782 17.8826 18.8978 18.1022C19.1174 18.3218 19.1174 18.678 18.8978 18.8976L15.3976 22.3978C15.178 22.6174 14.8218 22.6174 14.6022 22.3978L13.1022 20.8978C12.8826 20.6782 12.8826 20.3221 13.1022 20.1024C13.3219 19.8828 13.6779 19.8828 13.8976 20.1024L14.9999 21.2047L18.1024 18.1022Z"
    />
    <path
      d="M19.9657 14.4132C20.3059 14.4161 20.6425 14.4869 20.9552 14.6212C21.2677 14.7555 21.5502 14.9508 21.7865 15.1954C22.2532 15.6787 22.5115 16.326 22.5057 16.9979C22.4999 17.6698 22.2308 18.3128 21.7557 18.7879C21.2806 19.263 20.6376 19.5321 19.9657 19.5379C19.2938 19.5438 18.6465 19.2855 18.1632 18.8187C17.9186 18.5824 17.7232 18.2999 17.589 17.9874C17.4547 17.6748 17.3839 17.3381 17.381 16.9979C17.378 16.6577 17.4433 16.3204 17.5721 16.0055C17.701 15.6906 17.8911 15.4045 18.1317 15.1639C18.3723 14.9233 18.6583 14.7332 18.9732 14.6043C19.2881 14.4755 19.6254 14.4102 19.9657 14.4132ZM19.9562 15.5382C19.7653 15.5365 19.5754 15.5728 19.3988 15.6451C19.2222 15.7174 19.062 15.8244 18.9271 15.9593C18.7922 16.0942 18.6852 16.2544 18.6129 16.431C18.5406 16.6077 18.5043 16.7975 18.506 16.9884C18.5076 17.1791 18.5472 17.3676 18.6224 17.5428C18.6977 17.7181 18.8075 17.8768 18.9447 18.0094C19.2158 18.2712 19.5792 18.4162 19.9562 18.4129C20.333 18.4096 20.6931 18.2583 20.9596 17.9918C21.226 17.7253 21.3774 17.3652 21.3807 16.9884C21.384 16.6115 21.239 16.248 20.9771 15.9769C20.8446 15.8397 20.6859 15.7299 20.5106 15.6546C20.3354 15.5794 20.1468 15.5399 19.9562 15.5382Z"
    />
    <path
      d="M15.6023 18.6023C15.8219 18.3826 16.178 18.3826 16.3977 18.6023L17.3974 19.602C17.6171 19.8217 17.6171 20.1777 17.3974 20.3974C17.1777 20.6171 16.8217 20.6171 16.602 20.3974L15.6023 19.3977C15.3826 19.178 15.3826 18.8219 15.6023 18.6023Z"
    />
    <path
      d="M20.688 6.53203C20.9465 6.35971 21.2957 6.42955 21.4681 6.68804C21.6404 6.94652 21.5705 7.29574 21.3121 7.46807L12.3121 13.4681C12.1231 13.594 11.877 13.594 11.688 13.4681L2.68804 7.46807C2.42955 7.29574 2.35971 6.94652 2.53203 6.68804C2.70436 6.42955 3.05358 6.35971 3.31206 6.53203L12 12.324L20.688 6.53203Z"
    />
  </g>
  <defs>
    <clipPath id="clip0_13_8140">
      <rect width="24" height="24" />
    </clipPath>
  </defs>
</svg>
