<svg viewBox="0 0 24 24" xmlns="http://www.w3.org/2000/svg">
  <g clip-path="url(#clip0_13_8146)">
    <path
      fill-rule="evenodd"
      clip-rule="evenodd"
      d="M15.8523 15.1023C16.0719 14.8826 16.4281 14.8826 16.6477 15.1023L21.6477 20.1023C21.8674 20.3219 21.8674 20.6781 21.6477 20.8977C21.4281 21.1174 21.0719 21.1174 20.8523 20.8977L15.8523 15.8977C15.6326 15.6781 15.6326 15.3219 15.8523 15.1023Z"
    />
    <path
      fill-rule="evenodd"
      clip-rule="evenodd"
      d="M21.6477 15.1023C21.8674 15.3219 21.8674 15.6781 21.6477 15.8977L16.6477 20.8977C16.4281 21.1174 16.0719 21.1174 15.8523 20.8977C15.6326 20.6781 15.6326 20.3219 15.8523 20.1023L20.8523 15.1023C21.0719 14.8826 21.4281 14.8826 21.6477 15.1023Z"
    />
    <path
      d="M13.1318 14.4V11.7664L12.4895 12.9086C12.3878 13.0893 12.2044 13.2 12.0068 13.2C11.8093 13.2 11.6258 13.0893 11.5242 12.9086L10.8818 11.7664V14.4C10.8818 14.7314 10.63 15 10.3193 15C10.0087 15 9.75684 14.7314 9.75684 14.4V9.59995C9.75684 9.33027 9.92554 9.09382 10.1692 9.02182C10.4128 8.94983 10.6719 9.0601 10.802 9.29136L12.0068 11.4328L13.2117 9.29136C13.3418 9.0601 13.6008 8.94983 13.8445 9.02182C14.0881 9.09382 14.2568 9.33027 14.2568 9.59995V14.4C14.2568 14.7314 14.005 15 13.6943 15C13.3837 15 13.1318 14.7314 13.1318 14.4Z"
    />
    <path
      d="M17.6318 9.71914H16.5068V11.0691H17.6318C17.9302 11.0691 18.2163 11.2115 18.4272 11.4646C18.6382 11.7178 18.7568 12.0611 18.7568 12.4191C18.7568 12.4191 18.7568 12.5744 18.7568 13.0191C18.7568 13.4639 18.5049 13.5774 18.1943 13.5844C17.8838 13.5914 17.6318 13.3789 17.6318 13.0191C17.6318 12.6594 17.6318 12.4191 17.6318 12.4191H16.5068C16.2085 12.4191 15.9224 12.2768 15.7114 12.0236C15.5004 11.7705 15.3818 11.4272 15.3818 11.0691V9.71914C15.3818 9.3611 15.5004 9.01782 15.7114 8.76465C15.9224 8.51147 16.2085 8.36914 16.5068 8.36914H17.6318L17.7432 8.37617C18.0006 8.4069 18.2427 8.54317 18.4272 8.76465C18.6382 9.01782 18.7568 9.3611 18.7568 9.71914C18.7568 10.0919 18.505 10.3941 18.1943 10.3941C17.8837 10.3941 17.6318 10.0919 17.6318 9.71914Z"
    />
    <path
      d="M7.50684 9.975H6.38184V11.325H7.50684C7.8052 11.325 8.09127 11.4673 8.30225 11.7205C8.51322 11.9737 8.63184 12.317 8.63184 12.675V14.025C8.63184 14.383 8.51322 14.7263 8.30225 14.9795C8.09127 15.2327 7.8052 15.375 7.50684 15.375H6.38184C6.08347 15.375 5.7974 15.2327 5.58643 14.9795C5.37545 14.7263 5.25684 14.383 5.25684 14.025C5.25684 13.6522 5.50868 13.35 5.81934 13.35C6.13 13.35 6.38184 13.6522 6.38184 14.025H7.50684V12.675H6.38184C6.08347 12.675 5.7974 12.5327 5.58643 12.2795C5.37545 12.0263 5.25684 11.683 5.25684 11.325V9.975C5.25684 9.61696 5.37545 9.27368 5.58643 9.02051C5.7974 8.76733 6.08347 8.625 6.38184 8.625H7.50684L7.61816 8.63203C7.87564 8.66276 8.11768 8.79903 8.30225 9.02051C8.51322 9.27368 8.63184 9.61696 8.63184 9.975C8.63184 10.3478 8.38 10.65 8.06934 10.65C7.75868 10.65 7.50684 10.3478 7.50684 9.975Z"
    />
    <path
      d="M6.42898 5.02803C10.1397 2.63606 15.2639 2.92515 18.6099 5.77876C21.1771 7.96905 22.1234 11.1838 21.2708 14.1313C21.1843 14.4295 20.8726 14.6014 20.5742 14.5151C20.2759 14.4288 20.1042 14.1169 20.1905 13.8186C20.915 11.3139 20.1255 8.55025 17.8797 6.63423C14.8236 4.02803 10.044 3.83037 6.72488 6.18453C3.43083 8.52194 2.6248 12.6188 4.76565 15.7851C4.86354 15.9299 4.88892 16.1122 4.83377 16.278L3.84427 19.2451L7.58255 18.4504L7.67557 18.4387C7.76818 18.4347 7.86081 18.4535 7.9451 18.4943C9.73732 19.3644 11.7507 19.6044 13.6389 19.2773C13.9449 19.2245 14.2356 19.4298 14.2886 19.7358C14.3416 20.0418 14.1369 20.3331 13.8308 20.3862C11.7854 20.7405 9.60343 20.4984 7.63382 19.5893L3.11697 20.5502C2.91964 20.5922 2.71455 20.5256 2.58011 20.3752C2.44578 20.2248 2.40207 20.0135 2.46585 19.8222L3.68094 16.177C1.37198 12.5051 2.39632 7.87751 6.07449 5.26753L6.42898 5.02803Z"
    />
  </g>
  <defs>
    <clipPath id="clip0_13_8146">
      <rect width="24" height="24" />
    </clipPath>
  </defs>
</svg>
