<svg viewBox="0 0 32 32" xmlns="http://www.w3.org/2000/svg">
  <g clip-path="url(#clip0_15_8407)">
    <path
      d="M17.5093 19.2V15.6885L16.6528 17.2114C16.5173 17.4524 16.2727 17.6 16.0093 17.6C15.7458 17.6 15.5013 17.4524 15.3657 17.2114L14.5093 15.6885V19.2C14.5093 19.6418 14.1735 20 13.7593 20C13.3451 20 13.0093 19.6418 13.0093 19.2V12.7999C13.0093 12.4404 13.2342 12.1251 13.5591 12.0291C13.884 11.9331 14.2294 12.0801 14.4028 12.3885L16.0093 15.2437L17.6157 12.3885C17.7892 12.0801 18.1346 11.9331 18.4595 12.0291C18.7843 12.1251 19.0093 12.4404 19.0093 12.7999V19.2C19.0093 19.6418 18.6735 20 18.2593 20C17.8451 20 17.5093 19.6418 17.5093 19.2Z"
    />
    <path
      d="M10.0093 13.3H8.50928V15.1H10.0093C10.4071 15.1 10.7885 15.2898 11.0698 15.6273C11.3511 15.9649 11.5093 16.4226 11.5093 16.9V18.7C11.5093 19.1774 11.3511 19.6351 11.0698 19.9727C10.7885 20.3102 10.4071 20.5 10.0093 20.5H8.50928C8.11145 20.5 7.73003 20.3102 7.44873 19.9727C7.16743 19.6351 7.00928 19.1774 7.00928 18.7C7.00928 18.2029 7.34506 17.8 7.75928 17.8C8.17349 17.8 8.50928 18.2029 8.50928 18.7H10.0093V16.9H8.50928C8.11145 16.9 7.73003 16.7102 7.44873 16.3727C7.16743 16.0351 7.00928 15.5774 7.00928 15.1V13.3C7.00928 12.8226 7.16743 12.3649 7.44873 12.0273C7.73003 11.6898 8.11145 11.5 8.50928 11.5H10.0093L10.1577 11.5094C10.501 11.5503 10.8237 11.732 11.0698 12.0273C11.3511 12.3649 11.5093 12.8226 11.5093 13.3C11.5093 13.7971 11.1735 14.2 10.7593 14.2C10.3451 14.2 10.0093 13.7971 10.0093 13.3Z"
    />
    <path
      d="M23.5093 13.3H22.0093V15.1H23.5093C23.9071 15.1 24.2885 15.2898 24.5698 15.6273C24.8511 15.9649 25.0093 16.4226 25.0093 16.9V18.7C25.0093 19.1774 24.8511 19.6351 24.5698 19.9727C24.2885 20.3102 23.9071 20.5 23.5093 20.5H22.0093C21.6115 20.5 21.23 20.3102 20.9487 19.9727C20.6674 19.6351 20.5093 19.1774 20.5093 18.7C20.5093 18.2029 20.8451 17.8 21.2593 17.8C21.6735 17.8 22.0093 18.2029 22.0093 18.7H23.5093V16.9H22.0093C21.6115 16.9 21.23 16.7102 20.9487 16.3727C20.6674 16.0351 20.5093 15.5774 20.5093 15.1V13.3C20.5093 12.8226 20.6674 12.3649 20.9487 12.0273C21.23 11.6898 21.6115 11.5 22.0093 11.5H23.5093L23.6577 11.5094C24.001 11.5503 24.3237 11.732 24.5698 12.0273C24.8511 12.3649 25.0093 12.8226 25.0093 13.3C25.0093 13.7971 24.6735 14.2 24.2593 14.2C23.8451 14.2 23.5093 13.7971 23.5093 13.3Z"
    />
    <path
      d="M8.57214 6.70372C13.5198 3.51442 20.352 3.89987 24.8134 7.70469C28.008 10.4304 29.3216 14.3467 28.5555 18.0563C28.4717 18.4616 28.0752 18.7228 27.6698 18.6393C27.2641 18.5555 27.003 18.1582 27.0868 17.7525C27.7375 14.6015 26.6362 11.2312 23.8397 8.84532C19.765 5.37038 13.3921 5.10684 8.96667 8.24571C4.5746 11.3623 3.4999 16.8247 6.35437 21.0465C6.48489 21.2395 6.51873 21.4826 6.44519 21.7037L5.12585 25.6598L10.1102 24.6002L10.2343 24.5846C10.3577 24.5793 10.4812 24.6043 10.5936 24.6588C12.1754 25.4267 13.887 25.8265 15.5946 25.8824C16.0084 25.8961 16.3327 26.243 16.3192 26.6568C16.3057 27.0708 15.9588 27.396 15.5448 27.3824C13.7213 27.3226 11.8885 26.9097 10.1757 26.1188L4.15613 27.4C3.89302 27.456 3.61956 27.3672 3.44031 27.1666C3.2612 26.9661 3.20293 26.6844 3.28796 26.4293L4.90808 21.569C1.82947 16.6732 3.19526 10.503 8.09948 7.02305L8.57214 6.70372Z"
    />
    <path
      fill-rule="evenodd"
      clip-rule="evenodd"
      d="M28.5303 22.1367C28.8232 22.4296 28.8232 22.9044 28.5303 23.1973L23.197 28.5307C22.9041 28.8235 22.4292 28.8235 22.1363 28.5307L19.4697 25.864C19.1768 25.5711 19.1768 25.0962 19.4697 24.8033C19.7626 24.5104 20.2374 24.5104 20.5303 24.8033L22.6667 26.9397L27.4697 22.1367C27.7626 21.8438 28.2374 21.8438 28.5303 22.1367Z"
    />
  </g>
  <defs>
    <clipPath id="clip0_15_8407">
      <rect width="32" height="32" />
    </clipPath>
  </defs>
</svg>
