<svg viewBox="0 0 32 32" xmlns="http://www.w3.org/2000/svg">
  <g clip-path="url(#clip0_15_8402)">
    <path
      d="M27.25 15.667V9.33398C27.25 8.82565 27.0479 8.33796 26.6885 7.97852C26.329 7.61907 25.8413 7.41699 25.333 7.41699H6.66699C6.15866 7.41699 5.67097 7.61907 5.31152 7.97852C4.95208 8.33796 4.75 8.82565 4.75 9.33398V22.667C4.75 23.1753 4.95208 23.663 5.31152 24.0225C5.67095 24.3818 6.15874 24.584 6.66699 24.584H14.333C14.7472 24.584 15.083 24.9198 15.083 25.334C15.0828 25.748 14.7471 26.084 14.333 26.084H6.66699C5.76091 26.084 4.89171 25.7237 4.25098 25.083C3.61023 24.4423 3.25 23.5731 3.25 22.667V9.33398C3.25 8.42783 3.61023 7.55872 4.25098 6.91797C4.89173 6.27722 5.76084 5.91699 6.66699 5.91699H25.333C26.2392 5.91699 27.1083 6.27722 27.749 6.91797C28.3898 7.55872 28.75 8.42783 28.75 9.33398V15.667C28.75 16.0812 28.4142 16.417 28 16.417C27.5858 16.417 27.25 16.0812 27.25 15.667Z"
    />
    <path
      d="M24.1366 24.1366C24.4295 23.8439 24.9043 23.8437 25.1971 24.1366C25.4898 24.4294 25.4898 24.9043 25.1971 25.1971L20.5301 29.8641C20.2373 30.1568 19.7624 30.1568 19.4696 29.8641L17.4696 27.8641C17.1767 27.5713 17.1769 27.0965 17.4696 26.8036C17.7625 26.5107 18.2372 26.5107 18.5301 26.8036L19.9999 28.2733L24.1366 24.1366Z"
    />
    <path
      d="M26.6207 19.2169C27.0744 19.2209 27.5232 19.3152 27.9401 19.4943C28.3567 19.6733 28.7334 19.9337 29.0485 20.2599C29.6708 20.9043 30.0152 21.7674 30.0075 22.6632C29.9997 23.5591 29.6409 24.4165 29.0075 25.0499C28.374 25.6834 27.5166 26.0421 26.6207 26.0499C25.7249 26.0577 24.8618 25.7133 24.2174 25.0909C23.8913 24.7759 23.6308 24.3992 23.4518 23.9825C23.2727 23.5657 23.1784 23.1169 23.1744 22.6632C23.1705 22.2096 23.2575 21.7598 23.4293 21.34C23.6011 20.9201 23.8546 20.5387 24.1754 20.2179C24.4962 19.8971 24.8776 19.6436 25.2975 19.4718C25.7174 19.3 26.1671 19.213 26.6207 19.2169ZM26.608 20.7169C26.3535 20.7147 26.1004 20.7631 25.8649 20.8595C25.6295 20.9559 25.4158 21.0986 25.236 21.2784C25.0561 21.4583 24.9134 21.6719 24.817 21.9074C24.7207 22.1429 24.6722 22.396 24.6744 22.6505C24.6767 22.9048 24.7294 23.1561 24.8297 23.3898C24.9301 23.6235 25.0765 23.8351 25.2594 24.0118C25.6209 24.361 26.1055 24.5543 26.608 24.5499C27.1105 24.5455 27.5906 24.3437 27.9459 23.9884C28.3012 23.6331 28.503 23.153 28.5075 22.6505C28.5118 22.148 28.3185 21.6634 27.9694 21.3019C27.7926 21.119 27.581 20.9726 27.3473 20.8722C27.1136 20.7719 26.8623 20.7192 26.608 20.7169Z"
    />
    <path
      d="M20.8032 24.8027C21.0961 24.5098 21.5708 24.5098 21.8637 24.8027L23.1967 26.1357C23.4896 26.4286 23.4896 26.9033 23.1967 27.1962C22.9038 27.4891 22.4291 27.4891 22.1362 27.1962L20.8032 25.8632C20.5103 25.5703 20.5103 25.0956 20.8032 24.8027Z"
    />
    <path
      d="M27.5841 8.70905C27.9287 8.47929 28.3943 8.57241 28.6241 8.91706C28.8539 9.26171 28.7607 9.72733 28.4161 9.9571L16.4161 17.9571C16.1642 18.125 15.836 18.125 15.5841 17.9571L3.58405 9.9571C3.2394 9.72733 3.14628 9.26171 3.37604 8.91706C3.60581 8.57241 4.07144 8.47929 4.41608 8.70905L16.0001 16.4317L27.5841 8.70905Z"
    />
  </g>
  <defs>
    <clipPath id="clip0_15_8402">
      <rect width="32" height="32" />
    </clipPath>
  </defs>
</svg>
