<svg viewBox="0 0 24 24" xmlns="http://www.w3.org/2000/svg">
  <g clip-path="url(#clip0_13_8120)">
    <path
      d="M16.0002 8.4375C16.3108 8.43763 16.5627 8.68942 16.5627 9C16.5627 9.31058 16.3108 9.56237 16.0002 9.5625H8C7.68934 9.5625 7.4375 9.31066 7.4375 9C7.4375 8.68934 7.68934 8.4375 8 8.4375H16.0002Z"
    />
    <path
      d="M14 12.4375C14.3107 12.4375 14.5625 12.6893 14.5625 13C14.5625 13.3107 14.3107 13.5625 14 13.5625H8C7.68934 13.5625 7.4375 13.3107 7.4375 13C7.4375 12.6893 7.68934 12.4375 8 12.4375H14Z"
    />
    <path
      d="M2.4375 15.0002V7C2.4375 6.05517 2.8131 5.1493 3.4812 4.4812C4.1493 3.8131 5.05517 3.4375 6 3.4375H15.1223C15.433 3.4375 15.6848 3.68934 15.6848 4C15.6848 4.31066 15.433 4.5625 15.1223 4.5625H6C5.35353 4.5625 4.73373 4.81949 4.27661 5.27661C3.81949 5.73373 3.5625 6.35353 3.5625 7V15.0002C3.56256 15.6466 3.81955 16.2666 4.27661 16.7236C4.73372 17.1807 5.35359 17.4377 6 17.4377H8.00024C8.31079 17.4379 8.56274 17.6897 8.56274 18.0002V20.0063L12.7104 17.5176C12.7978 17.4652 12.8979 17.4378 12.9998 17.4377H18C18.6464 17.4377 19.2663 17.1807 19.7234 16.7236C20.1805 16.2666 20.4374 15.6466 20.4375 15.0002V9.21045C20.4375 8.89979 20.6893 8.64795 21 8.64795C21.3107 8.64795 21.5625 8.89979 21.5625 9.21045V15.0002C21.5624 15.945 21.1868 16.851 20.5188 17.519C19.8507 18.1871 18.9448 18.5627 18 18.5627H13.155L8.28955 21.4822C8.11578 21.5864 7.899 21.5893 7.72266 21.4895C7.54646 21.3897 7.43783 21.2027 7.43774 21.0002V18.5627H6C5.05522 18.5627 4.14929 18.1871 3.4812 17.519C2.81316 16.851 2.43756 15.945 2.4375 15.0002Z"
    />
    <path
      fill-rule="evenodd"
      clip-rule="evenodd"
      d="M17.981 2.93804C18.4616 2.45748 19.1134 2.1875 19.793 2.1875C20.4726 2.1875 21.1244 2.45748 21.6049 2.93804C22.0855 3.4186 22.3555 4.07038 22.3555 4.75C22.3555 5.42962 22.0855 6.0814 21.6049 6.56196C21.1244 7.04252 20.4726 7.3125 19.793 7.3125C19.1134 7.3125 18.4616 7.04252 17.981 6.56196C17.5004 6.0814 17.2305 5.42962 17.2305 4.75C17.2305 4.07038 17.5004 3.4186 17.981 2.93804ZM19.793 3.3125C19.4117 3.3125 19.0461 3.46395 18.7765 3.73353C18.5069 4.00312 18.3555 4.36875 18.3555 4.75C18.3555 5.13125 18.5069 5.49688 18.7765 5.76647C19.0461 6.03605 19.4117 6.1875 19.793 6.1875C20.1742 6.1875 20.5399 6.03605 20.8094 5.76647C21.079 5.49688 21.2305 5.13125 21.2305 4.75C21.2305 4.36875 21.079 4.00312 20.8094 3.73353C20.5399 3.46395 20.1742 3.3125 19.793 3.3125Z"
    />
  </g>
  <defs>
    <clipPath id="clip0_13_8120">
      <rect width="24" height="24" />
    </clipPath>
  </defs>
</svg>
