<svg viewBox="0 0 32 32" xmlns="http://www.w3.org/2000/svg">
  <g clip-path="url(#clip0_15_8408)">
    <path
      fill-rule="evenodd"
      clip-rule="evenodd"
      d="M21.1362 20.1367C21.4291 19.8438 21.9039 19.8438 22.1968 20.1367L28.8635 26.8033C29.1564 27.0962 29.1564 27.5711 28.8635 27.864C28.5706 28.1569 28.0957 28.1569 27.8028 27.864L21.1362 21.1973C20.8433 20.9044 20.8433 20.4296 21.1362 20.1367Z"
    />
    <path
      fill-rule="evenodd"
      clip-rule="evenodd"
      d="M28.8635 20.1367C29.1564 20.4296 29.1564 20.9044 28.8635 21.1973L22.1968 27.864C21.9039 28.1569 21.4291 28.1569 21.1362 27.864C20.8433 27.5711 20.8433 27.0962 21.1362 26.8033L27.8028 20.1367C28.0957 19.8438 28.5706 19.8438 28.8635 20.1367Z"
    />
    <path
      d="M17.5088 19.2V15.6885L16.6523 17.2114C16.5168 17.4524 16.2722 17.6 16.0088 17.6C15.7453 17.6 15.5008 17.4524 15.3652 17.2114L14.5088 15.6885V19.2C14.5088 19.6418 14.173 20 13.7588 20C13.3446 20 13.0088 19.6418 13.0088 19.2V12.7999C13.0088 12.4404 13.2337 12.1251 13.5586 12.0291C13.8835 11.9331 14.2289 12.0801 14.4023 12.3885L16.0088 15.2437L17.6152 12.3885C17.7887 12.0801 18.1341 11.9331 18.459 12.0291C18.7838 12.1251 19.0088 12.4404 19.0088 12.7999V19.2C19.0088 19.6418 18.673 20 18.2588 20C17.8446 20 17.5088 19.6418 17.5088 19.2Z"
    />
    <path
      d="M23.5088 13.3H22.0088V15.1H23.5088C23.9066 15.1 24.288 15.2898 24.5693 15.6273C24.8506 15.9649 25.0088 16.4226 25.0088 16.9C25.0088 16.9 25.0088 17.107 25.0088 17.7C25.0088 18.293 24.6728 18.4443 24.2588 18.4537C23.8447 18.4631 23.5088 18.1797 23.5088 17.7C23.5088 17.2203 23.5088 16.9 23.5088 16.9H22.0088C21.611 16.9 21.2295 16.7102 20.9482 16.3727C20.6669 16.0351 20.5088 15.5774 20.5088 15.1V13.3C20.5088 12.8226 20.6669 12.3649 20.9482 12.0273C21.2295 11.6898 21.611 11.5 22.0088 11.5H23.5088L23.6572 11.5094C24.0005 11.5503 24.3232 11.732 24.5693 12.0273C24.8506 12.3649 25.0088 12.8226 25.0088 13.3C25.0088 13.7971 24.673 14.2 24.2588 14.2C23.8446 14.2 23.5088 13.7971 23.5088 13.3Z"
    />
    <path
      d="M10.0088 13.3H8.50879V15.1H10.0088C10.4066 15.1 10.788 15.2898 11.0693 15.6273C11.3506 15.9649 11.5088 16.4226 11.5088 16.9V18.7C11.5088 19.1774 11.3506 19.6351 11.0693 19.9727C10.788 20.3102 10.4066 20.5 10.0088 20.5H8.50879C8.11096 20.5 7.72955 20.3102 7.44824 19.9727C7.16694 19.6351 7.00879 19.1774 7.00879 18.7C7.00879 18.2029 7.34458 17.8 7.75879 17.8C8.173 17.8 8.50879 18.2029 8.50879 18.7H10.0088V16.9H8.50879C8.11096 16.9 7.72955 16.7102 7.44824 16.3727C7.16694 16.0351 7.00879 15.5774 7.00879 15.1V13.3C7.00879 12.8226 7.16694 12.3649 7.44824 12.0273C7.72955 11.6898 8.11096 11.5 8.50879 11.5H10.0088L10.1572 11.5094C10.5005 11.5503 10.8232 11.732 11.0693 12.0273C11.3506 12.3649 11.5088 12.8226 11.5088 13.3C11.5088 13.7971 11.173 14.2 10.7588 14.2C10.3446 14.2 10.0088 13.7971 10.0088 13.3Z"
    />
    <path
      d="M8.57214 6.70372C13.5198 3.51442 20.352 3.89987 24.8134 7.70469C28.2363 10.6251 29.498 14.9115 28.3612 18.8414C28.2459 19.239 27.8302 19.4682 27.4325 19.3531C27.0347 19.238 26.8058 18.8223 26.9208 18.4244C27.8868 15.0848 26.8341 11.4 23.8397 8.84532C19.765 5.37038 13.3921 5.10684 8.96667 8.24571C4.5746 11.3623 3.4999 16.8247 6.35437 21.0465C6.48489 21.2395 6.51873 21.4826 6.44519 21.7037L5.12585 25.6598L10.1102 24.6002L10.2343 24.5846C10.3577 24.5793 10.4812 24.6043 10.5936 24.6588C12.9833 25.8189 15.6678 26.1389 18.1854 25.7027C18.5934 25.6323 18.9809 25.9061 19.0516 26.3141C19.1223 26.7221 18.8493 27.1105 18.4413 27.1813C15.714 27.6537 12.8047 27.3308 10.1786 26.1188L4.15613 27.4C3.89302 27.456 3.61956 27.3672 3.44031 27.1666C3.2612 26.9661 3.20293 26.6844 3.28796 26.4293L4.90808 21.569C1.82947 16.6732 3.19526 10.503 8.09948 7.02305L8.57214 6.70372Z"
    />
  </g>
  <defs>
    <clipPath id="clip0_15_8408">
      <rect width="32" height="32" />
    </clipPath>
  </defs>
</svg>
