<svg viewBox="0 0 24 24" xmlns="http://www.w3.org/2000/svg">
  <g clip-path="url(#clip0_13_8141)">
    <path
      d="M6.42898 5.02803C10.1397 2.63606 15.2639 2.92515 18.6099 5.77876C20.5263 7.41378 21.5421 9.62104 21.5755 11.8681C21.5801 12.1787 21.3317 12.4348 21.021 12.4394C20.7105 12.4439 20.4551 12.1955 20.4505 11.885C20.4222 9.9738 19.5598 8.06764 17.8797 6.63423C14.8236 4.02803 10.044 3.83037 6.72488 6.18453C3.43083 8.52194 2.6248 12.6188 4.76565 15.7851C4.86354 15.9299 4.88892 16.1122 4.83377 16.278L3.84427 19.2451L7.58255 18.4504L7.67557 18.4387C7.76818 18.4347 7.86081 18.4535 7.9451 18.4943C8.74933 18.8848 9.59851 19.1488 10.461 19.2912C10.7674 19.3419 10.9745 19.6315 10.9239 19.9379C10.8731 20.2441 10.5841 20.4512 10.2779 20.4008C9.37552 20.2518 8.48462 19.9824 7.63309 19.5893L3.11697 20.5502C2.91964 20.5922 2.71455 20.5256 2.58011 20.3752C2.44578 20.2248 2.40207 20.0135 2.46585 19.8222L3.68094 16.177C1.37198 12.5051 2.39632 7.87751 6.07449 5.26753L6.42898 5.02803Z"
    />
    <path
      d="M13.1318 14.4V11.7664L12.4895 12.9086C12.3878 13.0893 12.2044 13.2 12.0068 13.2C11.8093 13.2 11.6258 13.0893 11.5242 12.9086L10.8818 11.7664V14.4C10.8818 14.7314 10.63 15 10.3193 15C10.0087 15 9.75684 14.7314 9.75684 14.4V9.59995C9.75684 9.33027 9.92554 9.09382 10.1692 9.02182C10.4128 8.94983 10.6719 9.0601 10.802 9.29136L12.0068 11.4328L13.2117 9.29136C13.3418 9.0601 13.6008 8.94983 13.8445 9.02182C14.0881 9.09382 14.2568 9.33027 14.2568 9.59995V14.4C14.2568 14.7314 14.005 15 13.6943 15C13.3837 15 13.1318 14.7314 13.1318 14.4Z"
    />
    <path
      d="M17.6318 9.71914H16.5068V11.0691H17.6318C17.9302 11.0691 18.2163 11.2115 18.4272 11.4646C18.6382 11.7178 18.7568 12.0611 18.7568 12.4191C18.7568 12.4191 18.7568 12.5744 18.7568 13.0191C18.7568 13.4639 18.5049 13.5774 18.1943 13.5844C17.8838 13.5914 17.6318 13.3789 17.6318 13.0191C17.6318 12.6594 17.6318 12.4191 17.6318 12.4191H16.5068C16.2085 12.4191 15.9224 12.2768 15.7114 12.0236C15.5004 11.7705 15.3818 11.4272 15.3818 11.0691V9.71914C15.3818 9.3611 15.5004 9.01782 15.7114 8.76465C15.9224 8.51147 16.2085 8.36914 16.5068 8.36914H17.6318L17.7432 8.37617C18.0006 8.4069 18.2427 8.54317 18.4272 8.76465C18.6382 9.01782 18.7568 9.3611 18.7568 9.71914C18.7568 10.0919 18.505 10.3941 18.1943 10.3941C17.8837 10.3941 17.6318 10.0919 17.6318 9.71914Z"
    />
    <path
      d="M7.50684 9.975H6.38184V11.325H7.50684C7.8052 11.325 8.09127 11.4673 8.30225 11.7205C8.51322 11.9737 8.63184 12.317 8.63184 12.675V14.025C8.63184 14.383 8.51322 14.7263 8.30225 14.9795C8.09127 15.2327 7.8052 15.375 7.50684 15.375H6.38184C6.08347 15.375 5.7974 15.2327 5.58643 14.9795C5.37545 14.7263 5.25684 14.383 5.25684 14.025C5.25684 13.6522 5.50868 13.35 5.81934 13.35C6.13 13.35 6.38184 13.6522 6.38184 14.025H7.50684V12.675H6.38184C6.08347 12.675 5.7974 12.5327 5.58643 12.2795C5.37545 12.0263 5.25684 11.683 5.25684 11.325V9.975C5.25684 9.61696 5.37545 9.27368 5.58643 9.02051C5.7974 8.76733 6.08347 8.625 6.38184 8.625H7.50684L7.61816 8.63203C7.87564 8.66276 8.11768 8.79903 8.30225 9.02051C8.51322 9.27368 8.63184 9.61696 8.63184 9.975C8.63184 10.3478 8.38 10.65 8.06934 10.65C7.75868 10.65 7.50684 10.3478 7.50684 9.975Z"
    />
    <path
      d="M18.1024 18.1022C18.3221 17.8826 18.6782 17.8826 18.8978 18.1022C19.1174 18.3218 19.1174 18.678 18.8978 18.8976L15.3976 22.3978C15.178 22.6174 14.8218 22.6174 14.6022 22.3978L13.1022 20.8978C12.8826 20.6782 12.8826 20.3221 13.1022 20.1024C13.3219 19.8828 13.6779 19.8828 13.8976 20.1024L14.9999 21.2047L18.1024 18.1022Z"
    />
    <path
      d="M19.9657 14.4132C20.3059 14.4161 20.6425 14.4869 20.9552 14.6212C21.2677 14.7555 21.5502 14.9508 21.7865 15.1954C22.2532 15.6787 22.5115 16.326 22.5057 16.9979C22.4999 17.6698 22.2308 18.3128 21.7557 18.7879C21.2806 19.263 20.6376 19.5321 19.9657 19.5379C19.2938 19.5438 18.6465 19.2855 18.1632 18.8187C17.9186 18.5824 17.7232 18.2999 17.589 17.9874C17.4547 17.6748 17.3839 17.3381 17.381 16.9979C17.378 16.6577 17.4433 16.3204 17.5721 16.0055C17.701 15.6906 17.8911 15.4045 18.1317 15.1639C18.3723 14.9233 18.6583 14.7332 18.9732 14.6043C19.2881 14.4755 19.6254 14.4102 19.9657 14.4132ZM19.9562 15.5382C19.7653 15.5365 19.5754 15.5728 19.3988 15.6451C19.2222 15.7174 19.062 15.8244 18.9271 15.9593C18.7922 16.0942 18.6852 16.2544 18.6129 16.431C18.5406 16.6077 18.5043 16.7975 18.506 16.9884C18.5076 17.1791 18.5472 17.3676 18.6224 17.5428C18.6977 17.7181 18.8075 17.8768 18.9447 18.0094C19.2158 18.2712 19.5792 18.4162 19.9562 18.4129C20.333 18.4096 20.6931 18.2583 20.9596 17.9918C21.226 17.7253 21.3774 17.3652 21.3807 16.9884C21.384 16.6115 21.239 16.248 20.9771 15.9769C20.8446 15.8397 20.6859 15.7299 20.5106 15.6546C20.3354 15.5794 20.1468 15.5399 19.9562 15.5382Z"
    />
    <path
      d="M15.6023 18.6023C15.8219 18.3826 16.178 18.3826 16.3977 18.6023L17.3974 19.602C17.6171 19.8217 17.6171 20.1777 17.3974 20.3974C17.1777 20.6171 16.8217 20.6171 16.602 20.3974L15.6023 19.3977C15.3826 19.178 15.3826 18.8219 15.6023 18.6023Z"
    />
  </g>
  <defs>
    <clipPath id="clip0_13_8141">
      <rect width="24" height="24" />
    </clipPath>
  </defs>
</svg>
