<svg viewBox="0 0 32 32" xmlns="http://www.w3.org/2000/svg">
  <g clip-path="url(#clip0_15_8409)">
    <path
      d="M17.5093 19.2V15.6885L16.6528 17.2114C16.5173 17.4524 16.2727 17.6 16.0093 17.6C15.7458 17.6 15.5013 17.4524 15.3657 17.2114L14.5093 15.6885V19.2C14.5093 19.6418 14.1735 20 13.7593 20C13.3451 20 13.0093 19.6418 13.0093 19.2V12.7999C13.0093 12.4404 13.2342 12.1251 13.5591 12.0291C13.884 11.9331 14.2294 12.0801 14.4028 12.3885L16.0093 15.2437L17.6157 12.3885C17.7892 12.0801 18.1346 11.9331 18.4595 12.0291C18.7843 12.1251 19.0093 12.4404 19.0093 12.7999V19.2C19.0093 19.6418 18.6735 20 18.2593 20C17.8451 20 17.5093 19.6418 17.5093 19.2Z"
    />
    <path
      d="M23.5088 13.3H22.0088V15.1H23.5088C23.9066 15.1 24.288 15.2898 24.5693 15.6273C24.8506 15.9649 25.0088 16.4226 25.0088 16.9C25.0088 16.9 25.0088 17.6197 25.0088 18.2127C25.0088 18.8057 24.6728 18.957 24.2588 18.9664C23.8447 18.9758 23.5088 18.6924 23.5088 18.2127C23.5088 17.733 23.5088 16.9 23.5088 16.9H22.0088C21.611 16.9 21.2295 16.7102 20.9482 16.3727C20.6669 16.0351 20.5088 15.5774 20.5088 15.1V13.3C20.5088 12.8226 20.6669 12.3649 20.9482 12.0273C21.2295 11.6898 21.611 11.5 22.0088 11.5H23.5088L23.6572 11.5094C24.0005 11.5503 24.3232 11.732 24.5693 12.0273C24.8506 12.3649 25.0088 12.8226 25.0088 13.3C25.0088 13.7971 24.673 14.2 24.2588 14.2C23.8446 14.2 23.5088 13.7971 23.5088 13.3Z"
    />
    <path
      d="M10.0093 13.3H8.50928V15.1H10.0093C10.4071 15.1 10.7885 15.2898 11.0698 15.6273C11.3511 15.9649 11.5093 16.4226 11.5093 16.9V18.7C11.5093 19.1774 11.3511 19.6351 11.0698 19.9727C10.7885 20.3102 10.4071 20.5 10.0093 20.5H8.50928C8.11145 20.5 7.73003 20.3102 7.44873 19.9727C7.16743 19.6351 7.00928 19.1774 7.00928 18.7C7.00928 18.2029 7.34506 17.8 7.75928 17.8C8.17349 17.8 8.50928 18.2029 8.50928 18.7H10.0093V16.9H8.50928C8.11145 16.9 7.73003 16.7102 7.44873 16.3727C7.16743 16.0351 7.00928 15.5774 7.00928 15.1V13.3C7.00928 12.8226 7.16743 12.3649 7.44873 12.0273C7.73003 11.6898 8.11145 11.5 8.50928 11.5H10.0093L10.1577 11.5094C10.501 11.5503 10.8237 11.732 11.0698 12.0273C11.3511 12.3649 11.5093 12.8226 11.5093 13.3C11.5093 13.7971 11.1735 14.2 10.7593 14.2C10.3451 14.2 10.0093 13.7971 10.0093 13.3Z"
    />
    <path
      fill-rule="evenodd"
      clip-rule="evenodd"
      d="M21.9747 21.9743C22.8655 21.0835 24.0737 20.583 25.3335 20.583C26.5933 20.583 27.8015 21.0835 28.6923 21.9743C29.5831 22.865 30.0835 24.0732 30.0835 25.333C30.0835 26.5928 29.5831 27.801 28.6923 28.6918C27.8015 29.5826 26.5933 30.083 25.3335 30.083C24.0737 30.083 22.8655 29.5826 21.9747 28.6918C21.0839 27.801 20.5835 26.5928 20.5835 25.333C20.5835 24.0732 21.0839 22.865 21.9747 21.9743ZM25.3335 22.083C24.4715 22.083 23.6449 22.4254 23.0354 23.0349C22.4259 23.6444 22.0835 24.4711 22.0835 25.333C22.0835 26.195 22.4259 27.0216 23.0354 27.6311C23.6449 28.2406 24.4715 28.583 25.3335 28.583C26.1955 28.583 27.0221 28.2406 27.6316 27.6311C28.2411 27.0216 28.5835 26.195 28.5835 25.333C28.5835 24.4711 28.2411 23.6444 27.6316 23.0349C27.0221 22.4254 26.1955 22.083 25.3335 22.083Z"
    />
    <path
      fill-rule="evenodd"
      clip-rule="evenodd"
      d="M28.5302 22.1367C28.8231 22.4296 28.8231 22.9044 28.5302 23.1973L23.1968 28.5307C22.9039 28.8235 22.4291 28.8235 22.1362 28.5307C21.8433 28.2378 21.8433 27.7629 22.1362 27.47L27.4695 22.1367C27.7624 21.8438 28.2373 21.8438 28.5302 22.1367Z"
    />
    <path
      d="M8.57214 6.70372C13.5198 3.51442 20.352 3.89987 24.8134 7.70469C28.2363 10.6251 29.498 14.9115 28.3612 18.8414C28.2459 19.239 27.8302 19.4682 27.4325 19.3531C27.0347 19.238 26.8058 18.8223 26.9208 18.4244C27.8868 15.0848 26.8341 11.4 23.8397 8.84532C19.765 5.37038 13.3921 5.10684 8.96667 8.24571C4.5746 11.3623 3.4999 16.8247 6.35437 21.0465C6.48489 21.2395 6.51873 21.4826 6.44519 21.7037L5.12585 25.6598L10.1102 24.6002L10.2343 24.5846C10.3577 24.5793 10.4812 24.6043 10.5936 24.6588C12.9833 25.8189 15.6678 26.1389 18.1854 25.7027C18.5934 25.6323 18.9809 25.9061 19.0516 26.3141C19.1223 26.7221 18.8493 27.1105 18.4413 27.1813C15.714 27.6537 12.8047 27.3308 10.1786 26.1188L4.15613 27.4C3.89302 27.456 3.61956 27.3672 3.44031 27.1666C3.2612 26.9661 3.20293 26.6844 3.28796 26.4293L4.90808 21.569C1.82947 16.6732 3.19526 10.503 8.09948 7.02305L8.57214 6.70372Z"
    />
  </g>
  <defs>
    <clipPath id="clip0_15_8409">
      <rect width="32" height="32" />
    </clipPath>
  </defs>
</svg>
