<svg width="32" height="32" viewBox="0 0 32 32" fill="none" xmlns="http://www.w3.org/2000/svg">
<g clip-path="url(#clip0_6701_103537)">
<path d="M10.6667 12H21.3333" stroke="#131C26" stroke-width="1.5" stroke-linecap="round" stroke-linejoin="round"/>
<path d="M10.6667 17.3333H18.6667" stroke="#131C26" stroke-width="1.5" stroke-linecap="round" stroke-linejoin="round"/>
<path d="M17.3333 24L10.6667 28V24H8C6.93913 24 5.92172 23.5786 5.17157 22.8284C4.42143 22.0783 4 21.0608 4 20V9.33331C4 8.27245 4.42143 7.25503 5.17157 6.50489C5.92172 5.75474 6.93913 5.33331 8 5.33331H24C25.0609 5.33331 26.0783 5.75474 26.8284 6.50489C27.5786 7.25503 28 8.27245 28 9.33331V14" stroke="#131C26" stroke-width="1.5" stroke-linecap="round" stroke-linejoin="round"/>
<path d="M25.4048 21.0977L29.522 25.2149L27.1693 27.5676" stroke="#131C26" stroke-width="1.5" stroke-linecap="round" stroke-linejoin="round"/>
<path d="M20.5982 28.2573C20.7527 28.4118 20.9361 28.5344 21.1379 28.618C21.3397 28.7016 21.5561 28.7447 21.7746 28.7447C21.993 28.7447 22.2094 28.7016 22.4112 28.618C22.613 28.5344 22.7964 28.4118 22.9509 28.2573L29.1773 22.0309C29.2866 21.9217 29.3733 21.792 29.4324 21.6492C29.4916 21.5065 29.522 21.3535 29.522 21.1989C29.522 21.0444 29.4916 20.8914 29.4324 20.7487C29.3733 20.6059 29.2866 20.4762 29.1773 20.367L28.4886 19.6782C28.3793 19.5689 28.2496 19.4822 28.1069 19.4231C27.9641 19.3639 27.8111 19.3335 27.6566 19.3335C27.5021 19.3335 27.3491 19.3639 27.2063 19.4231C27.0635 19.4822 26.9338 19.5689 26.8246 19.6782L20.5982 25.9046C20.4437 26.0591 20.3211 26.2425 20.2375 26.4443C20.1539 26.6461 20.1108 26.8625 20.1108 27.081C20.1108 27.2994 20.1539 27.5158 20.2375 27.7176C20.3211 27.9195 20.4437 28.1028 20.5982 28.2573Z" stroke="#131C26" stroke-width="1.5" stroke-linecap="round" stroke-linejoin="round"/>
<path d="M19.5229 29.3324L20.5628 28.2925" stroke="#131C26" stroke-width="1.5" stroke-linecap="round" stroke-linejoin="round"/>
</g>
<defs>
<clipPath id="clip0_6701_103537">
<rect width="32" height="32" fill="white"/>
</clipPath>
</defs>
</svg>
