<svg viewBox="0 0 32 32" xmlns="http://www.w3.org/2000/svg">
  <g clip-path="url(#clip0_15_8403)">
    <path
      d="M8.57214 6.70372C13.5198 3.51442 20.352 3.89987 24.8134 7.70469C27.3685 9.88471 28.723 12.8277 28.7675 15.8238C28.7736 16.238 28.4424 16.5794 28.0282 16.5856C27.6142 16.5915 27.2736 16.2603 27.2675 15.8463C27.2297 13.2981 26.0799 10.7565 23.8397 8.84532C19.765 5.37038 13.3921 5.10684 8.96667 8.24571C4.5746 11.3623 3.4999 16.8247 6.35437 21.0465C6.48489 21.2395 6.51873 21.4826 6.44519 21.7037L5.12585 25.6598L10.1102 24.6002L10.2343 24.5846C10.3577 24.5793 10.4812 24.6043 10.5936 24.6588C11.6659 25.1794 12.7982 25.5314 13.9481 25.7213C14.3567 25.7889 14.6328 26.175 14.5653 26.5836C14.4976 26.9919 14.1123 27.268 13.704 27.2008C12.5008 27.0021 11.313 26.6429 10.1776 26.1188L4.15613 27.4C3.89302 27.456 3.61956 27.3672 3.44031 27.1666C3.2612 26.9661 3.20293 26.6844 3.28796 26.4293L4.90808 21.569C1.82947 16.6732 3.19526 10.503 8.09948 7.02305L8.57214 6.70372Z"
    />
    <path
      d="M17.5088 19.2V15.6885L16.6523 17.2114C16.5168 17.4524 16.2722 17.6 16.0088 17.6C15.7453 17.6 15.5008 17.4524 15.3652 17.2114L14.5088 15.6885V19.2C14.5088 19.6418 14.173 20 13.7588 20C13.3446 20 13.0088 19.6418 13.0088 19.2V12.7999C13.0088 12.4404 13.2337 12.1251 13.5586 12.0291C13.8835 11.9331 14.2289 12.0801 14.4023 12.3885L16.0088 15.2437L17.6152 12.3885C17.7887 12.0801 18.1341 11.9331 18.459 12.0291C18.7838 12.1251 19.0088 12.4404 19.0088 12.7999V19.2C19.0088 19.6418 18.673 20 18.2588 20C17.8446 20 17.5088 19.6418 17.5088 19.2Z"
    />
    <path
      d="M23.5088 13.3H22.0088V15.1H23.5088C23.9066 15.1 24.288 15.2898 24.5693 15.6273C24.8506 15.9649 25.0088 16.4226 25.0088 16.9C25.0088 16.9 25.0088 17.107 25.0088 17.7C25.0088 18.293 24.6728 18.4443 24.2588 18.4537C23.8447 18.4631 23.5088 18.1797 23.5088 17.7C23.5088 17.2203 23.5088 16.9 23.5088 16.9H22.0088C21.611 16.9 21.2295 16.7102 20.9482 16.3727C20.6669 16.0351 20.5088 15.5774 20.5088 15.1V13.3C20.5088 12.8226 20.6669 12.3649 20.9482 12.0273C21.2295 11.6898 21.611 11.5 22.0088 11.5H23.5088L23.6572 11.5094C24.0005 11.5503 24.3232 11.732 24.5693 12.0273C24.8506 12.3649 25.0088 12.8226 25.0088 13.3C25.0088 13.7971 24.673 14.2 24.2588 14.2C23.8446 14.2 23.5088 13.7971 23.5088 13.3Z"
    />
    <path
      d="M10.0088 13.3H8.50879V15.1H10.0088C10.4066 15.1 10.788 15.2898 11.0693 15.6273C11.3506 15.9649 11.5088 16.4226 11.5088 16.9V18.7C11.5088 19.1774 11.3506 19.6351 11.0693 19.9727C10.788 20.3102 10.4066 20.5 10.0088 20.5H8.50879C8.11096 20.5 7.72955 20.3102 7.44824 19.9727C7.16694 19.6351 7.00879 19.1774 7.00879 18.7C7.00879 18.2029 7.34458 17.8 7.75879 17.8C8.173 17.8 8.50879 18.2029 8.50879 18.7H10.0088V16.9H8.50879C8.11096 16.9 7.72955 16.7102 7.44824 16.3727C7.16694 16.0351 7.00879 15.5774 7.00879 15.1V13.3C7.00879 12.8226 7.16694 12.3649 7.44824 12.0273C7.72955 11.6898 8.11096 11.5 8.50879 11.5H10.0088L10.1572 11.5094C10.5005 11.5503 10.8232 11.732 11.0693 12.0273C11.3506 12.3649 11.5088 12.8226 11.5088 13.3C11.5088 13.7971 11.173 14.2 10.7588 14.2C10.3446 14.2 10.0088 13.7971 10.0088 13.3Z"
    />
    <path
      d="M24.1366 24.1366C24.4295 23.8439 24.9043 23.8437 25.1971 24.1366C25.4898 24.4294 25.4898 24.9043 25.1971 25.1971L20.5301 29.8641C20.2373 30.1568 19.7624 30.1568 19.4696 29.8641L17.4696 27.8641C17.1767 27.5713 17.1769 27.0965 17.4696 26.8036C17.7625 26.5107 18.2372 26.5107 18.5301 26.8036L19.9999 28.2733L24.1366 24.1366Z"
    />
    <path
      d="M26.6207 19.2169C27.0744 19.2209 27.5232 19.3152 27.9401 19.4943C28.3567 19.6733 28.7334 19.9337 29.0485 20.2599C29.6708 20.9043 30.0152 21.7674 30.0075 22.6632C29.9997 23.5591 29.6409 24.4165 29.0075 25.0499C28.374 25.6834 27.5166 26.0421 26.6207 26.0499C25.7249 26.0577 24.8618 25.7133 24.2174 25.0909C23.8913 24.7759 23.6308 24.3992 23.4518 23.9825C23.2727 23.5657 23.1784 23.1169 23.1744 22.6632C23.1705 22.2096 23.2575 21.7598 23.4293 21.34C23.6011 20.9201 23.8546 20.5387 24.1754 20.2179C24.4962 19.8971 24.8776 19.6436 25.2975 19.4718C25.7174 19.3 26.1671 19.213 26.6207 19.2169ZM26.608 20.7169C26.3535 20.7147 26.1004 20.7631 25.8649 20.8595C25.6295 20.9559 25.4158 21.0986 25.236 21.2784C25.0561 21.4583 24.9134 21.6719 24.817 21.9074C24.7207 22.1429 24.6722 22.396 24.6744 22.6505C24.6767 22.9048 24.7294 23.1561 24.8297 23.3898C24.9301 23.6235 25.0765 23.8351 25.2594 24.0118C25.6209 24.361 26.1055 24.5543 26.608 24.5499C27.1105 24.5455 27.5906 24.3437 27.9459 23.9884C28.3012 23.6331 28.503 23.153 28.5075 22.6505C28.5118 22.148 28.3185 21.6634 27.9694 21.3019C27.7926 21.119 27.581 20.9726 27.3473 20.8722C27.1136 20.7719 26.8623 20.7192 26.608 20.7169Z"
    />
    <path
      d="M20.8032 24.8027C21.0961 24.5098 21.5708 24.5098 21.8637 24.8027L23.1967 26.1357C23.4896 26.4286 23.4896 26.9033 23.1967 27.1962C22.9038 27.4891 22.4291 27.4891 22.1362 27.1962L20.8032 25.8632C20.5103 25.5703 20.5103 25.0956 20.8032 24.8027Z"
    />
  </g>
  <defs>
    <clipPath id="clip0_15_8403">
      <rect width="32" height="32" />
    </clipPath>
  </defs>
</svg>
