<svg viewBox="0 0 24 24" xmlns="http://www.w3.org/2000/svg">
  <g clip-path="url(#clip0_13_8144)">
    <path
      d="M20.4375 12.5V7.00024C20.4375 6.619 20.2859 6.25323 20.0164 5.98364C19.7468 5.71406 19.381 5.5625 18.9998 5.5625H5.00024C4.619 5.5625 4.25323 5.71406 3.98364 5.98364C3.71406 6.25323 3.5625 6.619 3.5625 7.00024V17C3.5625 17.3812 3.71406 17.747 3.98364 18.0166C4.25321 18.2861 4.61905 18.4377 5.00024 18.4377H12.9998C13.3104 18.4377 13.5623 18.6896 13.5623 19.0002C13.5621 19.3108 13.3103 19.5627 12.9998 19.5627H5.00024C4.32068 19.5627 3.66878 19.2925 3.18823 18.812C2.70767 18.3314 2.4375 17.6796 2.4375 17V7.00024C2.4375 6.32063 2.70767 5.66879 3.18823 5.18823C3.66879 4.70767 4.32063 4.4375 5.00024 4.4375H18.9998C19.6794 4.4375 20.3312 4.70767 20.8118 5.18823C21.2923 5.66879 21.5625 6.32063 21.5625 7.00024V12.5C21.5625 12.8107 21.3107 13.0625 21 13.0625C20.6893 13.0625 20.4375 12.8107 20.4375 12.5Z"
    />
    <path
      d="M20.688 6.53203C20.9465 6.35971 21.2957 6.42955 21.4681 6.68804C21.6404 6.94652 21.5705 7.29574 21.3121 7.46807L12.3121 13.4681C12.1231 13.594 11.877 13.594 11.688 13.4681L2.68804 7.46807C2.42955 7.29574 2.35971 6.94652 2.53203 6.68804C2.70436 6.42955 3.05358 6.35971 3.31206 6.53203L12 12.324L20.688 6.53203Z"
    />
    <path
      d="M18.5316 15.688C18.704 15.4296 19.0532 15.3597 19.3117 15.532C19.57 15.7043 19.6399 16.0536 19.4677 16.312L18.0504 18.4375H20.9992C21.2066 18.4375 21.3971 18.552 21.495 18.7349C21.5928 18.9178 21.5822 19.1394 21.4672 19.312L19.4677 22.312C19.2954 22.5705 18.9461 22.6402 18.6876 22.468C18.4291 22.2957 18.3593 21.9465 18.5316 21.688L19.9481 19.5625H16.9994C16.792 19.5625 16.6014 19.4481 16.5036 19.2652C16.4058 19.0823 16.4163 18.8606 16.5314 18.688L18.5316 15.688Z"
    />
  </g>
  <defs>
    <clipPath id="clip0_13_8144">
      <rect width="24" height="24" />
    </clipPath>
  </defs>
</svg>
