<svg viewBox="0 0 32 32" xmlns="http://www.w3.org/2000/svg">
  <g clip-path="url(#clip0_3414_23114)">
    <path
      d="M27.25 15.6667V9.33374C27.25 8.82541 27.0479 8.33772 26.6885 7.97827C26.329 7.61883 25.8413 7.41675 25.333 7.41675H6.66699C6.15866 7.41675 5.67097 7.61883 5.31152 7.97827C4.95208 8.33772 4.75 8.82541 4.75 9.33374V22.6667C4.75 23.1751 4.95208 23.6628 5.31152 24.0222C5.67095 24.3816 6.15874 24.5837 6.66699 24.5837H16.333C16.7472 24.5837 17.083 24.9195 17.083 25.3337C17.0828 25.7478 16.7471 26.0837 16.333 26.0837H6.66699C5.76091 26.0837 4.89171 25.7234 4.25098 25.0828C3.61023 24.442 3.25 23.5729 3.25 22.6667V9.33374C3.25 8.42758 3.61023 7.55847 4.25098 6.91772C4.89173 6.27698 5.76084 5.91675 6.66699 5.91675H25.333C26.2392 5.91675 27.1083 6.27698 27.749 6.91772C28.3898 7.55847 28.75 8.42758 28.75 9.33374V15.6667C28.75 16.081 28.4142 16.4167 28 16.4167C27.5858 16.4167 27.25 16.081 27.25 15.6667Z"
    />
    <path
      d="M27.5841 8.7093C27.9287 8.47953 28.3943 8.57266 28.6241 8.9173C28.8539 9.26195 28.7607 9.72758 28.4161 9.95734L16.4161 17.9573C16.1642 18.1253 15.836 18.1253 15.5841 17.9573L3.58405 9.95734C3.2394 9.72758 3.14628 9.26195 3.37604 8.9173C3.60581 8.57266 4.07144 8.47953 4.41608 8.7093L16.0001 16.432L27.5841 8.7093Z"
    />
    <path
      fill-rule="evenodd"
      clip-rule="evenodd"
      d="M21.1362 20.1367C21.4291 19.8438 21.9039 19.8438 22.1968 20.1367L28.8635 26.8033C29.1564 27.0962 29.1564 27.5711 28.8635 27.864C28.5706 28.1569 28.0957 28.1569 27.8028 27.864L21.1362 21.1973C20.8433 20.9044 20.8433 20.4296 21.1362 20.1367Z"
    />
    <path
      fill-rule="evenodd"
      clip-rule="evenodd"
      d="M28.8635 20.1367C29.1564 20.4296 29.1564 20.9044 28.8635 21.1973L22.1968 27.864C21.9039 28.1569 21.4291 28.1569 21.1362 27.864C20.8433 27.5711 20.8433 27.0962 21.1362 26.8033L27.8028 20.1367C28.0957 19.8438 28.5706 19.8438 28.8635 20.1367Z"
    />
  </g>
  <defs>
    <clipPath id="clip0_3414_23114">
      <rect width="32" height="32" />
    </clipPath>
  </defs>
</svg>
