<svg viewBox="0 0 24 24" xmlns="http://www.w3.org/2000/svg">
  <g clip-path="url(#clip0_13_8147)">
    <path
      d="M13.1318 14.4V11.7664L12.4895 12.9086C12.3878 13.0893 12.2044 13.2 12.0068 13.2C11.8093 13.2 11.6258 13.0893 11.5242 12.9086L10.8818 11.7664V14.4C10.8818 14.7314 10.63 15 10.3193 15C10.0087 15 9.75684 14.7314 9.75684 14.4V9.59995C9.75684 9.33027 9.92554 9.09382 10.1692 9.02182C10.4128 8.94983 10.6719 9.0601 10.802 9.29136L12.0068 11.4328L13.2117 9.29136C13.3418 9.0601 13.6008 8.94983 13.8445 9.02182C14.0881 9.09382 14.2568 9.33027 14.2568 9.59995V14.4C14.2568 14.7314 14.005 15 13.6943 15C13.3837 15 13.1318 14.7314 13.1318 14.4Z"
    />
    <path
      d="M17.6318 9.78359H16.5068V11.1336H17.6318C17.9302 11.1336 18.2163 11.2759 18.4272 11.5291C18.6382 11.7823 18.7568 12.1256 18.7568 12.4836C18.7568 12.4836 18.7568 13.0234 18.7568 13.4681C18.7568 13.9128 18.5049 14.0264 18.1943 14.0334C17.8838 14.0404 17.6318 13.8279 17.6318 13.4681C17.6318 13.1084 17.6318 12.4836 17.6318 12.4836H16.5068C16.2085 12.4836 15.9224 12.3413 15.7114 12.0881C15.5004 11.8349 15.3818 11.4916 15.3818 11.1336V9.78359C15.3818 9.42555 15.5004 9.08228 15.7114 8.8291C15.9224 8.57593 16.2085 8.43359 16.5068 8.43359H17.6318L17.7432 8.44063C18.0006 8.47135 18.2427 8.60762 18.4272 8.8291C18.6382 9.08228 18.7568 9.42555 18.7568 9.78359C18.7568 10.1564 18.505 10.4586 18.1943 10.4586C17.8837 10.4586 17.6318 10.1564 17.6318 9.78359Z"
    />
    <path
      d="M7.50684 9.975H6.38184V11.325H7.50684C7.8052 11.325 8.09127 11.4673 8.30225 11.7205C8.51322 11.9737 8.63184 12.317 8.63184 12.675V14.025C8.63184 14.383 8.51322 14.7263 8.30225 14.9795C8.09127 15.2327 7.8052 15.375 7.50684 15.375H6.38184C6.08347 15.375 5.7974 15.2327 5.58643 14.9795C5.37545 14.7263 5.25684 14.383 5.25684 14.025C5.25684 13.6522 5.50868 13.35 5.81934 13.35C6.13 13.35 6.38184 13.6522 6.38184 14.025H7.50684V12.675H6.38184C6.08347 12.675 5.7974 12.5327 5.58643 12.2795C5.37545 12.0263 5.25684 11.683 5.25684 11.325V9.975C5.25684 9.61696 5.37545 9.27368 5.58643 9.02051C5.7974 8.76733 6.08347 8.625 6.38184 8.625H7.50684L7.61816 8.63203C7.87564 8.66276 8.11768 8.79903 8.30225 9.02051C8.51322 9.27368 8.63184 9.61696 8.63184 9.975C8.63184 10.3478 8.38 10.65 8.06934 10.65C7.75868 10.65 7.50684 10.3478 7.50684 9.975Z"
    />
    <path
      fill-rule="evenodd"
      clip-rule="evenodd"
      d="M16.4809 16.4809C17.149 15.8128 18.0552 15.4375 19 15.4375C19.9448 15.4375 20.851 15.8128 21.5191 16.4809C22.1872 17.149 22.5625 18.0552 22.5625 19C22.5625 19.9448 22.1872 20.851 21.5191 21.5191C20.851 22.1872 19.9448 22.5625 19 22.5625C18.0552 22.5625 17.149 22.1872 16.4809 21.5191C15.8128 20.851 15.4375 19.9448 15.4375 19C15.4375 18.0552 15.8128 17.149 16.4809 16.4809ZM19 16.5625C18.3535 16.5625 17.7335 16.8193 17.2764 17.2764C16.8193 17.7335 16.5625 18.3535 16.5625 19C16.5625 19.6465 16.8193 20.2665 17.2764 20.7236C17.7335 21.1807 18.3535 21.4375 19 21.4375C19.6465 21.4375 20.2665 21.1807 20.7236 20.7236C21.1807 20.2665 21.4375 19.6465 21.4375 19C21.4375 18.3535 21.1807 17.7335 20.7236 17.2764C20.2665 16.8193 19.6465 16.5625 19 16.5625Z"
    />
    <path
      fill-rule="evenodd"
      clip-rule="evenodd"
      d="M21.3977 16.6023C21.6174 16.8219 21.6174 17.1781 21.3977 17.3977L17.3977 21.3977C17.1781 21.6174 16.8219 21.6174 16.6023 21.3977C16.3826 21.1781 16.3826 20.8219 16.6023 20.6023L20.6023 16.6023C20.8219 16.3826 21.1781 16.3826 21.3977 16.6023Z"
    />
    <path
      d="M6.42898 5.02803C10.1397 2.63606 15.2639 2.92515 18.6099 5.77876C21.1771 7.96905 22.1234 11.1838 21.2708 14.1313C21.1843 14.4295 20.8726 14.6014 20.5742 14.5151C20.2759 14.4288 20.1042 14.1169 20.1905 13.8186C20.915 11.3139 20.1255 8.55025 17.8797 6.63423C14.8236 4.02803 10.044 3.83037 6.72488 6.18453C3.43083 8.52194 2.6248 12.6188 4.76565 15.7851C4.86354 15.9299 4.88892 16.1122 4.83377 16.278L3.84427 19.2451L7.58255 18.4504L7.67557 18.4387C7.76818 18.4347 7.86081 18.4535 7.9451 18.4943C9.73732 19.3644 11.7507 19.6044 13.6389 19.2773C13.9449 19.2245 14.2356 19.4298 14.2886 19.7358C14.3416 20.0418 14.1369 20.3331 13.8308 20.3862C11.7854 20.7405 9.60343 20.4984 7.63382 19.5893L3.11697 20.5502C2.91964 20.5922 2.71455 20.5256 2.58011 20.3752C2.44578 20.2248 2.40207 20.0135 2.46585 19.8222L3.68094 16.177C1.37198 12.5051 2.39632 7.87751 6.07449 5.26753L6.42898 5.02803Z"
    />
  </g>
  <defs>
    <clipPath id="clip0_13_8147">
      <rect width="24" height="24" />
    </clipPath>
  </defs>
</svg>
