<svg viewBox="0 0 24 24" xmlns="http://www.w3.org/2000/svg">
  <g clip-path="url(#clip0_13_8145)">
    <path
      d="M13.1318 14.4V11.7664L12.4895 12.9086C12.3878 13.0893 12.2044 13.2 12.0068 13.2C11.8093 13.2 11.6258 13.0893 11.5242 12.9086L10.8818 11.7664V14.4C10.8818 14.7314 10.63 15 10.3193 15C10.0087 15 9.75684 14.7314 9.75684 14.4V9.59995C9.75684 9.33027 9.92554 9.09382 10.1692 9.02182C10.4128 8.94983 10.6719 9.0601 10.802 9.29136L12.0068 11.4328L13.2117 9.29136C13.3418 9.0601 13.6008 8.94983 13.8445 9.02182C14.0881 9.09382 14.2568 9.33027 14.2568 9.59995V14.4C14.2568 14.7314 14.005 15 13.6943 15C13.3837 15 13.1318 14.7314 13.1318 14.4Z"
    />
    <path
      d="M7.50684 9.975H6.38184V11.325H7.50684C7.8052 11.325 8.09127 11.4673 8.30225 11.7205C8.51322 11.9737 8.63184 12.317 8.63184 12.675V14.025C8.63184 14.383 8.51322 14.7263 8.30225 14.9795C8.09127 15.2327 7.8052 15.375 7.50684 15.375H6.38184C6.08347 15.375 5.7974 15.2327 5.58643 14.9795C5.37545 14.7263 5.25684 14.383 5.25684 14.025C5.25684 13.6522 5.50868 13.35 5.81934 13.35C6.13 13.35 6.38184 13.6522 6.38184 14.025H7.50684V12.675H6.38184C6.08347 12.675 5.7974 12.5327 5.58643 12.2795C5.37545 12.0263 5.25684 11.683 5.25684 11.325V9.975C5.25684 9.61696 5.37545 9.27368 5.58643 9.02051C5.7974 8.76733 6.08347 8.625 6.38184 8.625H7.50684L7.61816 8.63203C7.87564 8.66276 8.11768 8.79903 8.30225 9.02051C8.51322 9.27368 8.63184 9.61696 8.63184 9.975C8.63184 10.3478 8.38 10.65 8.06934 10.65C7.75868 10.65 7.50684 10.3478 7.50684 9.975Z"
    />
    <path
      d="M17.6318 9.975H16.5068V11.325H17.6318C17.9302 11.325 18.2163 11.4673 18.4272 11.7205C18.6382 11.9737 18.7568 12.317 18.7568 12.675V14.025C18.7568 14.383 18.6382 14.7263 18.4272 14.9795C18.2163 15.2327 17.9302 15.375 17.6318 15.375H16.5068C16.2085 15.375 15.9224 15.2327 15.7114 14.9795C15.5004 14.7263 15.3818 14.383 15.3818 14.025C15.3818 13.6522 15.6337 13.35 15.9443 13.35C16.255 13.35 16.5068 13.6522 16.5068 14.025H17.6318V12.675H16.5068C16.2085 12.675 15.9224 12.5327 15.7114 12.2795C15.5004 12.0263 15.3818 11.683 15.3818 11.325V9.975C15.3818 9.61696 15.5004 9.27368 15.7114 9.02051C15.9224 8.76733 16.2085 8.625 16.5068 8.625H17.6318L17.7432 8.63203C18.0006 8.66276 18.2427 8.79903 18.4272 9.02051C18.6382 9.27368 18.7568 9.61696 18.7568 9.975C18.7568 10.3478 18.505 10.65 18.1943 10.65C17.8837 10.65 17.6318 10.3478 17.6318 9.975Z"
    />
    <path
      d="M6.42898 5.02803C10.1397 2.63606 15.2639 2.92515 18.6099 5.77876C21.0059 7.82301 21.9911 10.7603 21.4165 13.5424C21.3536 13.8465 21.0563 14.0424 20.7522 13.9797C20.448 13.9169 20.2521 13.6189 20.315 13.3147C20.803 10.9514 19.977 8.42361 17.8797 6.63423C14.8236 4.02803 10.044 3.83037 6.72488 6.18453C3.43083 8.52194 2.6248 12.6188 4.76565 15.7851C4.86354 15.9299 4.88892 16.1122 4.83377 16.278L3.84427 19.2451L7.58255 18.4504L7.67557 18.4387C7.76818 18.4347 7.86081 18.4535 7.9451 18.4943C9.13144 19.0703 10.4151 19.3701 11.6958 19.4121C12.0062 19.4223 12.2494 19.6825 12.2393 19.9929C12.2291 20.3034 11.969 20.5472 11.6585 20.5371C10.2908 20.4922 8.91622 20.1825 7.63162 19.5893L3.11697 20.5502C2.91964 20.5922 2.71455 20.5256 2.58011 20.3752C2.44578 20.2248 2.40207 20.0135 2.46585 19.8222L3.68094 16.177C1.37198 12.5051 2.39632 7.87751 6.07449 5.26753L6.42898 5.02803Z"
    />
    <path
      fill-rule="evenodd"
      clip-rule="evenodd"
      d="M21.3977 16.6023C21.6174 16.8219 21.6174 17.1781 21.3977 17.3977L17.3977 21.3977C17.1781 21.6174 16.8219 21.6174 16.6023 21.3977L14.6023 19.3977C14.3826 19.1781 14.3826 18.8219 14.6023 18.6023C14.8219 18.3826 15.1781 18.3826 15.3977 18.6023L17 20.2045L20.6023 16.6023C20.8219 16.3826 21.1781 16.3826 21.3977 16.6023Z"
    />
  </g>
  <defs>
    <clipPath id="clip0_13_8145">
      <rect width="24" height="24" />
    </clipPath>
  </defs>
</svg>
