<svg viewBox="0 0 24 24" xmlns="http://www.w3.org/2000/svg">
  <g clip-path="url(#clip0_13_8121)">
    <path
      d="M16.0002 8.4375L16.0574 8.44043C16.3411 8.46917 16.5627 8.70871 16.5627 9C16.5627 9.29129 16.3411 9.53083 16.0574 9.55957L16.0002 9.5625H8C7.68934 9.5625 7.4375 9.31066 7.4375 9C7.4375 8.68934 7.68934 8.4375 8 8.4375H16.0002Z"
    />
    <path
      d="M14 12.4375C14.3107 12.4375 14.5625 12.6893 14.5625 13C14.5625 13.3107 14.3107 13.5625 14 13.5625H8C7.68934 13.5625 7.4375 13.3107 7.4375 13C7.4375 12.6893 7.68934 12.4375 8 12.4375H14Z"
    />
    <path
      d="M20.4375 13.2498V7C20.4375 6.35353 20.1805 5.73373 19.7234 5.27661C19.2663 4.81949 18.6465 4.5625 18 4.5625H6C5.35353 4.5625 4.73373 4.81949 4.27661 5.27661C3.81949 5.73373 3.5625 6.35353 3.5625 7V15.0002C3.56256 15.6466 3.81955 16.2666 4.27661 16.7236C4.73372 17.1807 5.35359 17.4377 6 17.4377H8.00024C8.31079 17.4379 8.56274 17.6897 8.56274 18.0002V20.0063L10.9709 18.1116C11.2373 17.952 11.5824 18.0386 11.7422 18.3049C11.9018 18.5712 11.8157 18.9163 11.5496 19.0762L8.28955 21.4822C8.11578 21.5864 7.899 21.5893 7.72266 21.4895C7.54646 21.3897 7.43783 21.2027 7.43774 21.0002V18.5627H6C5.05522 18.5627 4.14929 18.1871 3.4812 17.519C2.81316 16.851 2.43756 15.945 2.4375 15.0002V7C2.4375 6.05517 2.8131 5.1493 3.4812 4.4812C4.1493 3.8131 5.05517 3.4375 6 3.4375H18C18.9448 3.4375 19.8507 3.8131 20.5188 4.4812C21.1869 5.1493 21.5625 6.05517 21.5625 7V13.2498C21.5625 13.5604 21.3107 13.8123 21 13.8123C20.6893 13.8123 20.4375 13.5604 20.4375 13.2498Z"
    />
    <path
      fill-rule="evenodd"
      clip-rule="evenodd"
      d="M21.3977 16.6023C21.6174 16.8219 21.6174 17.1781 21.3977 17.3977L17.3977 21.3977C17.1781 21.6174 16.8219 21.6174 16.6023 21.3977L14.6023 19.3977C14.3826 19.1781 14.3826 18.8219 14.6023 18.6023C14.8219 18.3826 15.1781 18.3826 15.3977 18.6023L17 20.2045L20.6023 16.6023C20.8219 16.3826 21.1781 16.3826 21.3977 16.6023Z"
    />
  </g>
  <defs>
    <clipPath id="clip0_13_8121">
      <rect width="24" height="24" />
    </clipPath>
  </defs>
</svg>
