<svg viewBox="0 0 32 32" xmlns="http://www.w3.org/2000/svg">
  <g clip-path="url(#clip0_15_8406)">
    <path
      d="M27.25 16.667V9.33398C27.25 8.82565 27.0479 8.33796 26.6885 7.97852C26.329 7.61907 25.8413 7.41699 25.333 7.41699H6.66699C6.15866 7.41699 5.67097 7.61907 5.31152 7.97852C4.95208 8.33796 4.75 8.82565 4.75 9.33398V22.667C4.75 23.1753 4.95208 23.663 5.31152 24.0225C5.67095 24.3818 6.15874 24.584 6.66699 24.584H17.333C17.7472 24.584 18.083 24.9198 18.083 25.334C18.0828 25.748 17.7471 26.084 17.333 26.084H6.66699C5.76091 26.084 4.89171 25.7237 4.25098 25.083C3.61023 24.4423 3.25 23.5731 3.25 22.667V9.33398C3.25 8.42783 3.61023 7.55872 4.25098 6.91797C4.89173 6.27722 5.76084 5.91699 6.66699 5.91699H25.333C26.2392 5.91699 27.1083 6.27722 27.749 6.91797C28.3898 7.55872 28.75 8.42783 28.75 9.33398V16.667C28.75 17.0812 28.4142 17.417 28 17.417C27.5858 17.417 27.25 17.0812 27.25 16.667Z"
    />
    <path
      d="M27.5841 8.70905C27.9287 8.47929 28.3943 8.57241 28.6241 8.91706C28.8539 9.26171 28.7607 9.72733 28.4161 9.9571L16.4161 17.9571C16.1642 18.125 15.836 18.125 15.5841 17.9571L3.58405 9.9571C3.2394 9.72733 3.14628 9.26171 3.37604 8.91706C3.60581 8.57241 4.07144 8.47929 4.41608 8.70905L16.0001 16.4317L27.5841 8.70905Z"
    />
    <path
      d="M24.7088 20.917C24.9386 20.5725 25.4043 20.4793 25.7489 20.709C26.0933 20.9388 26.1865 21.4045 25.9569 21.749L24.0672 24.583H27.9989C28.2755 24.583 28.5295 24.7356 28.66 24.9795C28.7905 25.2234 28.7763 25.5189 28.6229 25.749L25.9569 29.749C25.7272 30.0936 25.2615 30.1866 24.9168 29.9571C24.5722 29.7273 24.4791 29.2617 24.7088 28.917L26.5975 26.083H22.6659C22.3893 26.083 22.1352 25.9304 22.0047 25.6865C21.8744 25.4427 21.8885 25.1471 22.0418 24.917L24.7088 20.917Z"
    />
  </g>
  <defs>
    <clipPath id="clip0_15_8406">
      <rect width="32" height="32" />
    </clipPath>
  </defs>
</svg>
