<svg viewBox="0 0 32 32" xmlns="http://www.w3.org/2000/svg">
  <g clip-path="url(#clip0_341_51895)">
    <path
      d="M20 5.99994L14.6666 11.3333L9.33332 13.3333L7.33332 15.3333L16.6666 24.6666L18.6666 22.6666L20.6666 17.3333L26 11.9999"
    />
    <path
      d="M19.47 5.46967C19.7629 5.17694 20.2377 5.17683 20.5306 5.46967C20.8233 5.76252 20.8233 6.23736 20.5306 6.53022L15.1966 11.8632C15.1209 11.9389 15.0302 11.9975 14.93 12.0351L9.74836 13.9775L8.39289 15.333L16.6663 23.6054L18.0208 22.2509L19.9642 17.0703L19.9964 16.997C20.0323 16.9254 20.0792 16.8596 20.1361 16.8027L25.47 11.4697C25.7629 11.1769 26.2377 11.1768 26.5306 11.4697C26.8233 11.7625 26.8233 12.2374 26.5306 12.5302L21.3109 17.748L19.3685 22.9296C19.3309 23.0299 19.2723 23.1215 19.1966 23.1972L17.1966 25.1972C16.9037 25.4898 16.4288 25.49 16.1361 25.1972L6.80304 15.8632C6.51031 15.5703 6.5102 15.0955 6.80304 14.8027L8.80304 12.8027L8.86261 12.749C8.92473 12.6989 8.99465 12.659 9.06965 12.6308L14.2503 10.6874L19.47 5.46967Z"
    />
    <path
      d="M11.4697 19.4697C11.7626 19.1768 12.2374 19.1768 12.5303 19.4697C12.8232 19.7626 12.8232 20.2373 12.5303 20.5302L6.53028 26.5302C6.23738 26.8231 5.76262 26.8231 5.46973 26.5302C5.17684 26.2373 5.17684 25.7626 5.46973 25.4697L11.4697 19.4697Z"
    />
    <path
      d="M18.803 4.80292C19.0959 4.51003 19.5707 4.51003 19.8636 4.80292L27.1966 12.1359C27.4895 12.4288 27.4895 12.9036 27.1966 13.1965C26.9037 13.4894 26.4289 13.4894 26.1361 13.1965L18.803 5.86347C18.5102 5.57058 18.5102 5.09582 18.803 4.80292Z"
    />
  </g>
  <defs>
    <clipPath id="clip0_341_51895">
      <rect width="32" height="32" />
    </clipPath>
  </defs>
</svg>
