<svg viewBox="0 0 32 32" xmlns="http://www.w3.org/2000/svg">
  <g clip-path="url(#clip0_341_51853)">
    <path
      d="M13.0463 7.25C13.2452 7.25003 13.436 7.3291 13.5766 7.46973L24.5297 18.4229C24.6703 18.5635 24.7494 18.7543 24.7494 18.9531C24.7494 19.152 24.6703 19.3428 24.5297 19.4834L21.7914 22.2227L21.7904 22.2217C21.0094 23.0311 20.0762 23.6783 19.0434 24.124C18.0061 24.5717 16.8899 24.8082 15.7602 24.8193C14.6304 24.8304 13.5092 24.6157 12.4633 24.1885C11.4175 23.7612 10.4672 23.1299 9.66838 22.3311C8.86957 21.5322 8.23818 20.5819 7.81095 19.5361C7.38371 18.4902 7.16901 17.369 7.1801 16.2393C7.1912 15.1096 7.42776 13.9933 7.87541 12.9561C8.32113 11.9232 8.96734 10.989 9.77678 10.208L12.516 7.46973L12.6303 7.37598C12.7526 7.29448 12.8972 7.25 13.0463 7.25ZM10.8276 11.2793C10.1569 11.9241 9.621 12.6966 9.25236 13.5508C8.88387 14.4048 8.68925 15.3238 8.6801 16.2539C8.67097 17.1842 8.84781 18.1075 9.19963 18.9688C9.55143 19.8299 10.0711 20.6127 10.7289 21.2705C11.3867 21.9283 12.1695 22.448 13.0307 22.7998C13.892 23.1516 14.8152 23.3285 15.7455 23.3193C16.6756 23.3102 17.5946 23.1156 18.4487 22.7471C19.3029 22.3784 20.0753 21.8425 20.7201 21.1719C20.7235 21.1684 20.7275 21.1655 20.7309 21.1621L22.9389 18.9531L13.0463 9.06055L10.8276 11.2793Z"
    />
    <path
      d="M9.47056 21.4696C9.76347 21.1769 10.2383 21.1767 10.5311 21.4696C10.8238 21.7624 10.8238 22.2373 10.5311 22.5301L5.86412 27.1971C5.57127 27.4898 5.09642 27.4898 4.80357 27.1971C4.51073 26.9043 4.51084 26.4295 4.80357 26.1366L9.47056 21.4696Z"
    />
    <path
      d="M19.4706 4.80308C19.7635 4.51035 20.2383 4.51025 20.5311 4.80308C20.8238 5.09594 20.8238 5.57078 20.5311 5.86363L15.8641 10.5306C15.5713 10.8233 15.0964 10.8233 14.8036 10.5306C14.5107 10.2378 14.5108 9.76298 14.8036 9.47008L19.4706 4.80308Z"
    />
    <path
      d="M26.1367 11.4698C26.4296 11.1771 26.9044 11.177 27.1972 11.4698C27.4899 11.7627 27.4899 12.2375 27.1972 12.5304L22.5303 17.1974C22.2374 17.49 21.7626 17.49 21.4697 17.1974C21.1769 16.9045 21.177 16.4297 21.4697 16.1368L26.1367 11.4698Z"
    />
  </g>
  <defs>
    <clipPath id="clip0_341_51853">
      <rect width="32" height="32" />
    </clipPath>
  </defs>
</svg>
