<svg viewBox="0 0 32 32" xmlns="http://www.w3.org/2000/svg">
  <g clip-path="url(#clip0_3255_39587)">
    <path
      d="M27.25 20V14.667C27.25 14.1587 27.0479 13.671 26.6885 13.3115C26.329 12.9521 25.8413 12.75 25.333 12.75H6.66699C6.15866 12.75 5.67097 12.9521 5.31152 13.3115C4.95208 13.671 4.75 14.1587 4.75 14.667V20C4.75 20.5083 4.95208 20.996 5.31152 21.3555C5.67095 21.7148 6.15874 21.917 6.66699 21.917H9.33301C9.74722 21.917 10.083 22.2528 10.083 22.667C10.0828 23.0811 9.74711 23.417 9.33301 23.417H6.66699C5.76091 23.417 4.89171 23.0567 4.25098 22.416C3.61023 21.7753 3.25 20.9062 3.25 20V14.667C3.25 13.7608 3.61023 12.8917 4.25098 12.251C4.89173 11.6102 5.76084 11.25 6.66699 11.25H25.333C26.2392 11.25 27.1083 11.6102 27.749 12.251C28.3898 12.8917 28.75 13.7608 28.75 14.667V20C28.75 20.9062 28.3898 21.7753 27.749 22.416C27.1083 23.0567 26.2391 23.417 25.333 23.417H22.667C22.2529 23.417 21.9172 23.0811 21.917 22.667C21.917 22.2528 22.2528 21.917 22.667 21.917H25.333C25.8413 21.917 26.329 21.7148 26.6885 21.3555C27.0479 20.996 27.25 20.5083 27.25 20Z"
    />
    <path
      d="M21.9164 12V6.66699C21.9164 6.15866 21.7143 5.67097 21.3549 5.31152C20.9955 4.95226 20.5085 4.75009 20.0004 4.75H12.0004C11.492 4.75 11.0043 4.95208 10.6449 5.31152C10.2855 5.67097 10.0834 6.15866 10.0834 6.66699V12C10.0834 12.4142 9.74759 12.75 9.33337 12.75C8.91916 12.75 8.58337 12.4142 8.58337 12V6.66699C8.58337 5.76084 8.9436 4.89173 9.58435 4.25098C10.2251 3.61023 11.0942 3.25 12.0004 3.25H20.0004C20.9064 3.25009 21.7757 3.6103 22.4164 4.25098C23.0569 4.89169 23.4164 5.76099 23.4164 6.66699V12C23.4164 12.4142 23.0806 12.75 22.6664 12.75C22.2523 12.7498 21.9164 12.4141 21.9164 12Z"
    />
    <path
      d="M21.9164 20.0002C21.9164 19.4919 21.7143 19.0042 21.3549 18.6448C20.9955 18.2855 20.5085 18.0833 20.0004 18.0833H12.0004C11.492 18.0833 11.0043 18.2853 10.6449 18.6448C10.2855 19.0042 10.0834 19.4919 10.0834 20.0002V25.3333C10.0834 25.8416 10.2855 26.3293 10.6449 26.6887C11.0043 27.0481 11.4921 27.2502 12.0004 27.2502H20.0004C20.5084 27.2502 20.9955 27.0479 21.3549 26.6887C21.7143 26.3293 21.9164 25.8416 21.9164 25.3333V20.0002ZM23.4164 25.3333C23.4164 26.2393 23.057 27.1085 22.4164 27.7493C21.7757 28.3899 20.9064 28.7502 20.0004 28.7502H12.0004C11.0943 28.7502 10.2251 28.3899 9.58435 27.7493C8.9436 27.1085 8.58337 26.2394 8.58337 25.3333V20.0002C8.58337 19.0941 8.9436 18.225 9.58435 17.5842C10.2251 16.9435 11.0942 16.5833 12.0004 16.5833H20.0004C20.9064 16.5833 21.7757 16.9436 22.4164 17.5842C23.0569 18.2249 23.4164 19.0942 23.4164 20.0002V25.3333Z"
    />
  </g>
  <defs>
    <clipPath id="clip0_3255_39587">
      <rect width="32" height="32" />
    </clipPath>
  </defs>
</svg>
