<svg viewBox="0 0 24 24" xmlns="http://www.w3.org/2000/svg">
  <g clip-path="url(#clip0_13_8149)">
    <path
      d="M20.4375 12.0564V11.0002C20.4375 10.619 20.2859 10.2532 20.0164 9.98364C19.7468 9.71406 19.381 9.5625 18.9998 9.5625H5.00024C4.619 9.5625 4.25323 9.71406 3.98364 9.98364C3.71406 10.2532 3.5625 10.619 3.5625 11.0002V15C3.5625 15.3812 3.71406 15.747 3.98364 16.0166C4.25321 16.2861 4.61905 16.4377 5.00024 16.4377H6.99976C7.31042 16.4377 7.56226 16.6896 7.56226 17.0002C7.56212 17.3108 7.31033 17.5627 6.99976 17.5627H5.00024C4.32068 17.5627 3.66878 17.2925 3.18823 16.812C2.70767 16.3314 2.4375 15.6796 2.4375 15V11.0002C2.4375 10.3206 2.70767 9.66879 3.18823 9.18823C3.66879 8.70767 4.32063 8.4375 5.00024 8.4375H18.9998C19.6794 8.4375 20.3312 8.70767 20.8118 9.18823C21.2923 9.66879 21.5625 10.3206 21.5625 11.0002V12.0564C21.5624 12.367 21.3106 12.6189 21 12.6189C20.6894 12.6189 20.4376 12.367 20.4375 12.0564Z"
    />
    <path
      d="M16.4373 9V5.00024C16.4373 4.619 16.2857 4.25323 16.0161 3.98364C15.7466 3.71419 15.3813 3.56256 15.0002 3.5625H9.00024C8.619 3.5625 8.25323 3.71406 7.98364 3.98364C7.71406 4.25323 7.5625 4.619 7.5625 5.00024V9C7.5625 9.31066 7.31066 9.5625 7 9.5625C6.68934 9.5625 6.4375 9.31066 6.4375 9V5.00024C6.4375 4.32063 6.70767 3.66879 7.18823 3.18823C7.66879 2.70767 8.32063 2.4375 9.00024 2.4375H15.0002C15.6798 2.43756 16.3318 2.70773 16.8123 3.18823C17.2927 3.66877 17.5623 4.32074 17.5623 5.00024V9C17.5623 9.31066 17.3104 9.5625 16.9998 9.5625C16.6892 9.56237 16.4373 9.31058 16.4373 9Z"
    />
    <path
      d="M6.4375 19V15.0002C6.4375 14.3206 6.70767 13.6688 7.18823 13.1882C7.66879 12.7077 8.32063 12.4375 9.00024 12.4375H14.251C14.5616 12.4376 14.8135 12.6894 14.8135 13C14.8135 13.3106 14.5616 13.5624 14.251 13.5625H9.00024C8.619 13.5625 8.25323 13.7141 7.98364 13.9836C7.71406 14.2532 7.5625 14.619 7.5625 15.0002V19C7.5625 19.3812 7.71406 19.747 7.98364 20.0166C8.25321 20.2861 8.61905 20.4377 9.00024 20.4377H12.7861C13.0967 20.4379 13.3486 20.6897 13.3486 21.0002C13.3485 21.3107 13.0966 21.5626 12.7861 21.5627H9.00024C8.32068 21.5627 7.66878 21.2925 7.18823 20.812C6.70767 20.3314 6.4375 19.6796 6.4375 19Z"
    />
    <path
      fill-rule="evenodd"
      clip-rule="evenodd"
      d="M15.8523 15.1023C16.0719 14.8826 16.4281 14.8826 16.6477 15.1023L21.6477 20.1023C21.8674 20.3219 21.8674 20.6781 21.6477 20.8977C21.4281 21.1174 21.0719 21.1174 20.8523 20.8977L15.8523 15.8977C15.6326 15.6781 15.6326 15.3219 15.8523 15.1023Z"
    />
    <path
      fill-rule="evenodd"
      clip-rule="evenodd"
      d="M21.6477 15.1023C21.8674 15.3219 21.8674 15.6781 21.6477 15.8977L16.6477 20.8977C16.4281 21.1174 16.0719 21.1174 15.8523 20.8977C15.6326 20.6781 15.6326 20.3219 15.8523 20.1023L20.8523 15.1023C21.0719 14.8826 21.4281 14.8826 21.6477 15.1023Z"
    />
  </g>
  <defs>
    <clipPath id="clip0_13_8149">
      <rect width="24" height="24" />
    </clipPath>
  </defs>
</svg>
