<svg viewBox="0 0 32 32" xmlns="http://www.w3.org/2000/svg">
  <g clip-path="url(#clip0_2080_28412)">
    <path
      d="M15.75 26.1201V24.79C15.75 23.7324 14.894 22.8702 13.8301 22.8701C12.7643 22.8701 11.9102 23.7243 11.9102 24.79V26.1201C11.9101 27.2779 10.9706 28.2002 9.83008 28.2002H5.83008C4.67222 28.2002 3.75004 27.2606 3.75 26.1201V22.1201C3.75 20.9622 4.68954 20.04 5.83008 20.04H7.16016C8.21768 20.04 9.08004 19.184 9.08008 18.1201C9.08008 17.0544 8.22587 16.2003 7.16016 16.2002H5.83008C4.67222 16.2002 3.75004 15.2606 3.75 14.1201V10.1201C3.75 8.96224 4.68954 8.04004 5.83008 8.04004C6.24426 8.04008 6.58008 8.37585 6.58008 8.79004C6.58008 9.20423 6.24426 9.54 5.83008 9.54004C5.51061 9.54004 5.25 9.798 5.25 10.1201V14.1201C5.25004 14.4395 5.50799 14.7002 5.83008 14.7002H7.16016C9.0543 14.7003 10.5801 16.226 10.5801 18.1201C10.58 20.0161 9.04244 21.54 7.16016 21.54H5.83008C5.51061 21.54 5.25 21.798 5.25 22.1201V26.1201C5.25004 26.4395 5.50798 26.7002 5.83008 26.7002H9.83008C10.1495 26.7002 10.4101 26.4422 10.4102 26.1201V24.79C10.4102 22.8958 11.9359 21.3701 13.8301 21.3701C15.7261 21.3702 17.25 22.9077 17.25 24.79V26.1201C17.25 26.4395 17.508 26.7002 17.8301 26.7002C18.2443 26.7002 18.5801 27.036 18.5801 27.4502C18.58 27.8643 18.2442 28.2002 17.8301 28.2002C16.6722 28.2002 15.75 27.2606 15.75 26.1201Z"
    />
    <path
      d="M27.7402 18.1201C27.7402 17.0562 26.8778 16.2003 25.8203 16.2002H24.4902C23.3497 16.2002 22.4102 15.2779 22.4101 14.1201V10.1201C22.4101 9.80065 22.1521 9.54004 21.83 9.54004H17.83C16.6895 9.54004 15.7499 8.61784 15.7499 7.45996V6.12988C15.7499 5.06413 14.8958 4.20996 13.83 4.20996C12.7661 4.20996 11.9101 5.0723 11.9101 6.12988V7.45996C11.9101 8.6005 10.9879 9.54004 9.83002 9.54004H5.83002C5.41583 9.54004 5.08006 9.20422 5.08002 8.79004C5.08002 8.37583 5.4158 8.04004 5.83002 8.04004H9.83002C10.1521 8.04004 10.4101 7.77943 10.4101 7.45996V6.12988C10.4101 4.24754 11.934 2.70996 13.83 2.70996C15.7242 2.70996 17.2499 4.23571 17.2499 6.12988V7.45996C17.2499 7.78208 17.5106 8.04004 17.83 8.04004H21.83C22.9879 8.04004 23.9101 8.97958 23.9101 10.1201V14.1201C23.9102 14.4422 24.1708 14.7002 24.4902 14.7002H25.8203C27.7025 14.7003 29.2402 16.2242 29.2402 18.1201C29.2401 18.7954 29.048 19.4262 28.7011 19.9658C28.4771 20.3142 28.0124 20.4144 27.664 20.1904C27.316 19.9663 27.2155 19.5026 27.4394 19.1543C27.6324 18.854 27.7401 18.5046 27.7402 18.1201Z"
    />
    <path
      d="M28.69 24.6101C29.1042 24.6101 29.44 24.9459 29.44 25.3601C29.44 25.7743 29.1042 26.1101 28.69 26.1101H20.69C20.2758 26.1101 19.94 25.7743 19.94 25.3601C19.94 24.9459 20.2758 24.6101 20.69 24.6101H28.69Z"
    />
    <path
      d="M23.94 29.3601V21.3601C23.94 20.9459 24.2758 20.6101 24.69 20.6101C25.1042 20.6101 25.44 20.9459 25.44 21.3601V29.3601C25.44 29.7743 25.1042 30.1101 24.69 30.1101C24.2758 30.1101 23.94 29.7743 23.94 29.3601Z"
    />
  </g>
  <defs>
    <clipPath id="clip0_2080_28412">
      <rect width="32" height="32" />
    </clipPath>
  </defs>
</svg>
