<svg viewBox="0 0 32 32" xmlns="http://www.w3.org/2000/svg">
    <path d="M17.5225 18.3659C17.6577 17.9745 18.0842 17.7661 18.4757 17.9011C18.8672 18.0363 19.0756 18.4637 18.9405 18.8552C18.3124 20.6745 17.1015 22.2358 15.4962 23.2976C14.5257 23.9394 13.4437 24.3773 12.3155 24.5935C11.9087 24.6714 11.5155 24.4046 11.4376 23.9978C11.3598 23.591 11.6265 23.1978 12.0333 23.1199C12.968 22.9407 13.865 22.5784 14.669 22.0466C15.999 21.1669 17.0021 19.8732 17.5225 18.3659ZM6.81746 8.14329C8.54556 7.2961 10.5047 7.04175 12.3917 7.42063C12.7978 7.50219 13.0611 7.89832 12.9796 8.30442C12.8979 8.71026 12.5027 8.97277 12.0968 8.89134C10.5332 8.57734 8.90955 8.78797 7.47761 9.48997C6.04566 10.192 4.88521 11.3468 4.17586 12.7751C3.46652 14.2035 3.24777 15.8262 3.55379 17.3913C3.85985 18.9562 4.67339 20.3765 5.86824 21.4324C6.1786 21.7066 6.20782 22.1805 5.93367 22.4909C5.6594 22.8013 5.18547 22.8306 4.87508 22.5564C3.43285 21.2819 2.45142 19.5673 2.08211 17.6784C1.71285 15.7896 1.97614 13.8319 2.83211 12.1081C3.68822 10.3843 5.08923 8.99059 6.81746 8.14329Z" />
    <path fill-rule="evenodd" clip-rule="evenodd" d="M28.5303 3.46967C28.2374 3.17678 27.7626 3.17678 27.4697 3.46967L3.46967 27.4697C3.17678 27.7626 3.17678 28.2374 3.46967 28.5303C3.76256 28.8232 4.23744 28.8232 4.53033 28.5303L28.5303 4.53033C28.8232 4.23744 28.8232 3.76256 28.5303 3.46967Z"/>
    <path d="M26.0515 9.49923C26.325 9.18818 26.7991 9.1583 27.1101 9.43184C28.5571 10.7045 29.544 12.4191 29.9167 14.3098C30.2894 16.2004 30.0274 18.1613 29.1716 19.8879C28.3158 21.6145 26.9136 23.0103 25.1833 23.8586C23.4531 24.7068 21.4912 24.9602 19.6023 24.5793C19.1962 24.4974 18.9335 24.1016 19.0154 23.6955C19.0974 23.2897 19.4932 23.0268 19.8992 23.1086C21.4642 23.4241 23.0896 23.2147 24.5232 22.5119C25.9568 21.809 27.1188 20.6525 27.8279 19.2219C28.5369 17.7913 28.7538 16.1663 28.4451 14.5998C28.1362 13.0333 27.3188 11.6123 26.1199 10.5578C25.8088 10.2843 25.778 9.81027 26.0515 9.49923ZM19.6638 7.41231C20.0704 7.33335 20.4638 7.59944 20.5427 8.00606C20.6215 8.41255 20.3564 8.806 19.9499 8.88497C19.0122 9.06706 18.1132 9.43402 17.3083 9.97091C15.9802 10.8569 14.9815 12.1566 14.4675 13.6682C14.3342 14.0603 13.9085 14.2701 13.5163 14.1369C13.1243 14.0036 12.9145 13.5778 13.0476 13.1857C13.6679 11.3612 14.8731 9.79223 16.4763 8.72286C17.4477 8.07491 18.5322 7.63207 19.6638 7.41231Z" />
</svg>
