<svg viewBox="0 0 32 32" xmlns="http://www.w3.org/2000/svg">
<path d="M6.81721 8.1428C8.54532 7.29561 10.5045 7.04126 12.3914 7.42015C12.7975 7.5017 13.0609 7.89783 12.9793 8.30394C12.8976 8.70977 12.5024 8.97228 12.0965 8.89085C10.533 8.57685 8.9093 8.78748 7.47737 9.48948C6.04541 10.1915 4.88496 11.3463 4.17561 12.7746C3.46627 14.203 3.24753 15.8257 3.55354 17.3908C3.8596 18.9557 4.67315 20.376 5.868 21.4319C7.06303 22.4878 8.57305 23.1206 10.1639 23.2317C11.7548 23.3427 13.3386 22.9259 14.6688 22.0461C15.9987 21.1664 17.0019 19.8727 17.5223 18.3655C18.0427 16.858 18.0508 15.2203 17.5467 13.7073C17.4161 13.3145 17.6286 12.89 18.0213 12.759C18.4143 12.6281 18.8396 12.8406 18.9705 13.2336C19.5788 15.0596 19.5683 17.0354 18.9403 18.8547C18.3122 20.674 17.1012 22.2353 15.4959 23.2971C13.8906 24.3589 11.9795 24.8617 10.0594 24.7278C8.13943 24.5937 6.3171 23.8303 4.87483 22.5559C3.43261 21.2814 2.45117 19.5668 2.08186 17.678C1.71261 15.7891 1.9759 13.8314 2.83186 12.1076C3.68797 10.3838 5.08899 8.9901 6.81721 8.1428Z" />
<path d="M16.4765 8.7225C18.0796 7.65317 19.9912 7.1432 21.914 7.27133C23.8367 7.39951 25.6633 8.1589 27.1103 9.43149C28.5573 10.7041 29.5442 12.4187 29.9169 14.3094C30.2896 16.2001 30.0276 18.1609 29.1718 19.8875C28.316 21.6142 26.9138 23.0099 25.1835 23.8582C23.4533 24.7065 21.4915 24.9598 19.6025 24.5789C19.1966 24.4971 18.9339 24.102 19.0156 23.6961C19.0974 23.2901 19.4933 23.0274 19.8993 23.1092C21.4644 23.4247 23.0898 23.2143 24.5234 22.5116C25.9571 21.8087 27.119 20.6522 27.8281 19.2215C28.5371 17.7909 28.7541 16.166 28.4452 14.5995C28.1364 13.0329 27.319 11.6119 26.12 10.5575C24.9211 9.50306 23.4075 8.87366 21.8144 8.76742C20.2212 8.66126 18.6368 9.0845 17.3085 9.97055C15.9804 10.8566 14.9817 12.1562 14.4677 13.6678C13.9537 15.1796 13.9537 16.8188 14.4667 18.3309C14.5998 18.7231 14.3892 19.149 13.997 19.2821C13.6049 19.4151 13.179 19.2054 13.0458 18.8133C12.4267 16.9884 12.4275 15.0099 13.0478 13.1854C13.6681 11.3609 14.8733 9.79187 16.4765 8.7225Z" />
</svg>
