<svg viewBox="0 0 32 32" xmlns="http://www.w3.org/2000/svg">
  <g clip-path="url(#clip0_15_8390)">
    <path
      d="M3.25 13.333C3.25004 12.009 3.51088 10.6979 4.01758 9.47461C4.52431 8.25125 5.2668 7.13945 6.20312 6.20312C7.13945 5.2668 8.25125 4.52431 9.47461 4.01758C10.6979 3.51088 12.009 3.25004 13.333 3.25C14.2374 3.25 15.1364 3.37175 16.0049 3.61035C16.4041 3.72019 16.639 4.13289 16.5293 4.53223C16.4196 4.93159 16.0068 5.16628 15.6074 5.05664C14.8681 4.85353 14.1029 4.75 13.333 4.75C12.206 4.75004 11.0901 4.97206 10.0488 5.40332C9.00745 5.83467 8.06071 6.46664 7.26367 7.26367C6.46664 8.06071 5.83467 9.00745 5.40332 10.0488C4.97206 11.0901 4.75004 12.206 4.75 13.333C4.75 14.4602 4.97197 15.5768 5.40332 16.6182C5.83461 17.6594 6.46681 18.6054 7.26367 19.4023C8.06071 20.1994 9.00745 20.8323 10.0488 21.2637C11.09 21.6949 12.206 21.9169 13.333 21.917C14.4602 21.917 15.5768 21.695 16.6182 21.2637C17.6595 20.8323 18.6053 20.1994 19.4023 19.4023C20.1994 18.6053 20.8323 17.6595 21.2637 16.6182C21.3359 16.4437 21.4024 16.2672 21.4629 16.0889C21.5958 15.6967 22.0209 15.4864 22.4131 15.6191C22.8054 15.7521 23.0158 16.178 22.8828 16.5703C22.8118 16.7798 22.7343 16.9875 22.6494 17.1924C22.1427 18.4157 21.3992 19.5266 20.4629 20.4629C19.5266 21.3992 18.4157 22.1427 17.1924 22.6494C15.969 23.1561 14.6572 23.417 13.333 23.417C12.009 23.4169 10.6978 23.1561 9.47461 22.6494C8.25124 22.1427 7.13945 21.3992 6.20312 20.4629C5.26703 19.5267 4.52425 18.4155 4.01758 17.1924C3.51084 15.969 3.25 14.6572 3.25 13.333Z"
    />
    <path
      d="M18.1592 6.54688C18.1592 5.89603 18.5117 5.30019 19.0752 4.98145L22.2607 3.10254L22.2803 3.0918C22.5536 2.94117 22.8608 2.86237 23.1729 2.8623C23.4071 2.8623 23.639 2.90634 23.8555 2.99219L24.0664 3.0918L24.085 3.10254L27.2715 4.98145C27.3124 5.00559 27.35 5.03398 27.3848 5.06445C27.6009 5.2151 27.7826 5.41132 27.915 5.64062C28.0741 5.91611 28.1573 6.22884 28.1562 6.54688V9.98535C28.1562 10.6278 27.8115 11.2164 27.2598 11.5381L27.2607 11.5391L24.0742 13.5547C24.0612 13.5629 24.0477 13.5707 24.0342 13.5781C23.7656 13.7256 23.4636 13.8027 23.1572 13.8027C22.851 13.8027 22.5497 13.7255 22.2812 13.5781C22.2677 13.5707 22.2543 13.5629 22.2412 13.5547L19.0547 11.5391H19.0537C18.7895 11.3852 18.5686 11.1666 18.4121 10.9033C18.2473 10.6261 18.1598 10.3098 18.1592 9.9873V6.54688ZM19.6592 9.98438L19.6699 10.0635C19.677 10.0891 19.6875 10.1137 19.7012 10.1367C19.7287 10.1829 19.7682 10.2213 19.8154 10.2471C19.8294 10.2547 19.843 10.263 19.8564 10.2715L23.0098 12.2666C23.0554 12.2903 23.1058 12.3027 23.1572 12.3027C23.2086 12.3027 23.2592 12.2901 23.3047 12.2666L26.459 10.2715L26.498 10.248C26.5979 10.1931 26.6562 10.0912 26.6562 9.98535V6.54297C26.6566 6.48967 26.6428 6.43679 26.6162 6.39062C26.5895 6.34441 26.5503 6.30568 26.5039 6.2793C26.4667 6.25811 26.4317 6.23444 26.3994 6.20801L23.3418 4.40625L23.2607 4.37305C23.2323 4.36571 23.2025 4.3623 23.1729 4.3623C23.1152 4.36237 23.0586 4.37702 23.0078 4.4043L19.8369 6.27344C19.8305 6.27724 19.8239 6.28155 19.8174 6.28516C19.7172 6.34025 19.6592 6.44138 19.6592 6.54688V9.98438Z"
    />
    <path
      d="M23.8232 8.33203C23.8232 8.15541 23.7528 7.98622 23.6279 7.86133C23.503 7.73649 23.3338 7.66602 23.1572 7.66602C22.9806 7.66605 22.8114 7.73643 22.6865 7.86133C22.5616 7.98622 22.4912 8.15541 22.4912 8.33203C22.4912 8.50864 22.5617 8.67782 22.6865 8.80273C22.8114 8.92763 22.9806 8.99801 23.1572 8.99805C23.3339 8.99805 23.503 8.92766 23.6279 8.80273C23.7529 8.67781 23.8232 8.50871 23.8232 8.33203ZM25.3232 8.33203C25.3232 8.90653 25.0957 9.45802 24.6895 9.86426C24.2832 10.2705 23.7317 10.498 23.1572 10.498C22.5829 10.498 22.0321 10.2702 21.626 9.86426C21.2197 9.45802 20.9912 8.90653 20.9912 8.33203C20.9912 7.75758 21.2198 7.20698 21.626 6.80078C22.0322 6.39458 22.5828 6.16605 23.1572 6.16602C23.7317 6.16602 24.2832 6.39455 24.6895 6.80078C25.0954 7.20695 25.3232 7.75775 25.3232 8.33203Z"
    />
    <path
      d="M19.4697 19.4697C19.7626 19.1768 20.2373 19.1768 20.5302 19.4697L28.5302 27.4697C28.8231 27.7626 28.8231 28.2373 28.5302 28.5302C28.2373 28.8231 27.7626 28.8231 27.4697 28.5302L19.4697 20.5302C19.1768 20.2373 19.1768 19.7626 19.4697 19.4697Z"
    />
  </g>
  <defs>
    <clipPath id="clip0_15_8390">
      <rect width="32" height="32" />
    </clipPath>
  </defs>
</svg>
