<svg viewBox="0 0 24 24" xmlns="http://www.w3.org/2000/svg">
  <g clip-path="url(#clip0_13_8128)">
    <path
      d="M2.4375 9.99976C2.43753 9.00672 2.63316 8.02341 3.01318 7.10596C3.39323 6.18844 3.9501 5.35458 4.65234 4.65234C5.35458 3.9501 6.18844 3.39323 7.10596 3.01318C8.02341 2.63316 9.00672 2.43753 9.99976 2.4375C10.6781 2.4375 11.3523 2.52881 12.0037 2.70776C12.3031 2.79014 12.4793 3.09967 12.397 3.39917C12.3147 3.69869 12.0051 3.87471 11.7056 3.79248C11.1511 3.64015 10.5772 3.5625 9.99976 3.5625C9.1545 3.56253 8.31754 3.72904 7.53662 4.05249C6.75559 4.376 6.04553 4.84998 5.44775 5.44775C4.84998 6.04553 4.376 6.75559 4.05249 7.53662C3.72904 8.31754 3.56253 9.1545 3.5625 9.99976C3.5625 10.8451 3.72898 11.6826 4.05249 12.4636C4.37596 13.2445 4.85011 13.954 5.44775 14.5518C6.04553 15.1495 6.75559 15.6242 7.53662 15.9478C8.31752 16.2712 9.15453 16.4377 9.99976 16.4377C10.8451 16.4377 11.6826 16.2713 12.4636 15.9478C13.2447 15.6242 13.954 15.1495 14.5518 14.5518C15.1495 13.954 15.6242 13.2447 15.9478 12.4636C16.0019 12.3328 16.0518 12.2004 16.0972 12.0667C16.1969 11.7725 16.5157 11.6148 16.8098 11.7144C17.104 11.8141 17.2618 12.1335 17.1621 12.4277C17.1089 12.5848 17.0507 12.7406 16.9871 12.8943C16.607 13.8118 16.0494 14.645 15.3472 15.3472C14.645 16.0494 13.8118 16.607 12.8943 16.9871C11.9768 17.3671 10.9929 17.5627 9.99976 17.5627C9.00675 17.5627 8.02338 17.3671 7.10596 16.9871C6.18843 16.607 5.35459 16.0494 4.65234 15.3472C3.95027 14.645 3.39319 13.8116 3.01318 12.8943C2.63313 11.9768 2.4375 10.9929 2.4375 9.99976Z"
    />
    <path
      d="M13.6191 4.91089C13.6191 4.42276 13.8835 3.97587 14.3062 3.73682L16.6953 2.32764L16.71 2.31958C16.915 2.20661 17.1453 2.14751 17.3794 2.14746C17.5551 2.14746 17.729 2.18048 17.8914 2.24487L18.0496 2.31958L18.0635 2.32764L20.4534 3.73682C20.4841 3.75493 20.5123 3.77622 20.5383 3.79907C20.7004 3.91206 20.8367 4.05922 20.936 4.2312C21.0553 4.43782 21.1178 4.67236 21.1169 4.91089V7.48975C21.1169 7.97162 20.8584 8.41301 20.4446 8.6543L20.4453 8.65503L18.0554 10.1667C18.0457 10.1729 18.0355 10.1788 18.0254 10.1843C17.824 10.2949 17.5975 10.3528 17.3677 10.3528C17.138 10.3527 16.912 10.2949 16.7107 10.1843C16.7005 10.1787 16.6905 10.1729 16.6807 10.1667L14.2908 8.65503H14.29C14.0919 8.53965 13.9262 8.37565 13.8088 8.17822C13.6853 7.9703 13.6196 7.73309 13.6191 7.49121V4.91089ZM14.7441 7.48901L14.7522 7.54834C14.7575 7.56753 14.7654 7.58599 14.7756 7.60327C14.7962 7.63794 14.8259 7.66668 14.8613 7.68604C14.8718 7.69175 14.882 7.69798 14.8921 7.70435L17.2571 9.20068C17.2913 9.21845 17.3291 9.22773 17.3677 9.22778C17.4062 9.22778 17.4441 9.21833 17.4783 9.20068L19.844 7.70435L19.8733 7.68677C19.9482 7.64559 19.9919 7.56915 19.9919 7.48975V4.90796C19.9922 4.86799 19.9819 4.82833 19.9619 4.7937C19.9419 4.75904 19.9125 4.72999 19.8777 4.71021C19.8498 4.69432 19.8235 4.67656 19.7993 4.65674L17.5061 3.30542L17.4453 3.28052C17.424 3.27501 17.4016 3.27246 17.3794 3.27246C17.3361 3.27251 17.2937 3.28349 17.2556 3.30396L14.8774 4.70581C14.8726 4.70866 14.8677 4.7119 14.8628 4.7146C14.7876 4.75592 14.7441 4.83177 14.7441 4.91089V7.48901Z"
    />
    <path
      d="M17.8677 6.24951C17.8676 6.11704 17.8149 5.99016 17.7212 5.89648C17.6275 5.80285 17.5006 5.75 17.3682 5.75C17.2357 5.75003 17.1088 5.80281 17.0151 5.89648C16.9215 5.99016 16.8687 6.11704 16.8687 6.24951C16.8687 6.38197 16.9215 6.50885 17.0151 6.60254C17.1088 6.69621 17.2357 6.749 17.3682 6.74902C17.5007 6.74902 17.6275 6.69624 17.7212 6.60254C17.8149 6.50884 17.8677 6.38202 17.8677 6.24951ZM18.9927 6.24951C18.9927 6.68039 18.822 7.09401 18.5173 7.39868C18.2127 7.70336 17.799 7.87402 17.3682 7.87402C16.9375 7.874 16.5244 7.70317 16.2197 7.39868C15.9151 7.09401 15.7437 6.68039 15.7437 6.24951C15.7437 5.81867 15.9151 5.40572 16.2197 5.10107C16.5244 4.79642 16.9373 4.62503 17.3682 4.625C17.799 4.625 18.2127 4.7964 18.5173 5.10107C18.8218 5.4057 18.9926 5.8188 18.9927 6.24951Z"
    />
    <path
      d="M14.6023 14.6023C14.8219 14.3826 15.178 14.3826 15.3977 14.6023L21.3977 20.6023C21.6173 20.8219 21.6173 21.178 21.3977 21.3977C21.178 21.6173 20.8219 21.6173 20.6023 21.3977L14.6023 15.3977C14.3826 15.178 14.3826 14.8219 14.6023 14.6023Z"
    />
  </g>
  <defs>
    <clipPath id="clip0_13_8128">
      <rect width="24" height="24" />
    </clipPath>
  </defs>
</svg>
