<svg viewBox="0 0 24 24" xmlns="http://www.w3.org/2000/svg">
  <g clip-path="url(#clip0_13_8136)">
    <path
      d="M20.6024 2.60219C20.8221 2.38264 21.1782 2.38256 21.3978 2.60219C21.6174 2.82183 21.6174 3.17796 21.3978 3.3976L10.3976 14.3978C10.178 14.6174 9.82183 14.6174 9.60219 14.3978C9.38256 14.1782 9.38264 13.8221 9.60219 13.6024L20.6024 2.60219Z"
    />
    <path
      d="M20.8088 2.47099C21.0139 2.39693 21.2435 2.44791 21.3977 2.6021C21.5519 2.75631 21.6029 2.98584 21.5288 3.19096L19.0913 9.94096C18.9857 10.233 18.6635 10.3841 18.3713 10.2786C18.0793 10.173 17.9282 9.85075 18.0337 9.55864L20.064 3.9351L3.26367 10.0025L10.2517 13.4969L10.3279 13.543C10.3999 13.5947 10.459 13.6627 10.5 13.7422L11.0552 14.8211C11.1973 15.0973 11.089 15.437 10.8127 15.5791C10.5365 15.7212 10.1976 15.6122 10.0554 15.336L9.58447 14.4212L2.74878 11.003C2.56277 10.9138 2.40481 10.7746 2.29321 10.6009C2.17816 10.4216 2.1167 10.2126 2.1167 9.99956C2.11675 9.78662 2.1782 9.57819 2.29321 9.39897L2.33862 9.33379C2.44976 9.18517 2.59615 9.06575 2.76562 8.98808C2.77976 8.98161 2.79421 8.97579 2.80884 8.9705L20.8088 2.47099Z"
    />
    <path
      d="M21.1132 14.9639L19.4089 14.5072L18.9559 16.198C18.8755 16.4981 18.567 16.6762 18.267 16.5958C17.9669 16.5154 17.7888 16.2069 17.8692 15.9069L18.4679 13.6727C18.5483 13.3726 18.8567 13.1945 19.1568 13.2749L21.4044 13.8772C21.7043 13.9577 21.8825 14.2661 21.8021 14.5661C21.7217 14.866 21.4131 15.044 21.1132 14.9639Z"
    />
    <path
      d="M12.9265 16.6465C13.0115 15.9375 13.2734 15.2611 13.6878 14.6796C14.1022 14.0982 14.656 13.6303 15.2983 13.3186C15.5778 13.183 15.9148 13.2998 16.0504 13.5793C16.1857 13.8586 16.0692 14.1951 15.79 14.3307C15.317 14.5601 14.909 14.9049 14.6039 15.333C14.2989 15.761 14.1058 16.2586 14.0432 16.7804C13.9806 17.3024 14.0503 17.832 14.2456 18.3201C14.4408 18.808 14.7556 19.239 15.1608 19.5738C15.566 19.9085 16.049 20.1363 16.5651 20.2359C17.0812 20.3355 17.6146 20.3041 18.1153 20.144C18.6159 19.984 19.0682 19.7008 19.4309 19.3205C19.7936 18.9401 20.0549 18.4744 20.191 17.9667C20.5025 16.804 19.8411 15.598 18.8566 14.7824C18.6176 14.5841 18.5841 14.2296 18.7822 13.9905C18.9804 13.7513 19.3355 13.718 19.5748 13.9162C20.7171 14.8627 21.7526 16.4825 21.2769 18.2577C21.0921 18.9473 20.7378 19.58 20.245 20.0967C19.7523 20.6134 19.1377 20.9981 18.4576 21.2154C17.7774 21.4328 17.0536 21.4758 16.3525 21.3406C15.6513 21.2054 14.9952 20.896 14.4446 20.4412C13.894 19.9864 13.4662 19.4008 13.201 18.7378C12.9358 18.0747 12.8415 17.3555 12.9265 16.6465Z"
    />
  </g>
  <defs>
    <clipPath id="clip0_13_8136">
      <rect width="24" height="24" />
    </clipPath>
  </defs>
</svg>
