<svg viewBox="0 0 32 32" xmlns="http://www.w3.org/2000/svg">
  <g clip-path="url(#clip0_1071_5031)">
    <path
      d="M5.81256 4.59968C6.02034 4.5685 6.2325 4.58392 6.43366 4.6446L6.53326 4.67878L6.59284 4.70515L28.3292 15.3262C28.5866 15.452 28.7501 15.7135 28.7501 16.0001C28.75 16.2866 28.5866 16.5481 28.3292 16.6739L6.59284 27.295C6.57331 27.3045 6.55355 27.3136 6.53326 27.3214C6.27056 27.4223 5.98351 27.4432 5.70905 27.3809C5.43467 27.3186 5.1856 27.1752 4.99225 26.9708L4.99127 26.9718C4.80218 26.7721 4.67213 26.524 4.6153 26.255C4.55847 25.9859 4.57683 25.7064 4.66901 25.4473H4.66998L7.87409 16.0001L4.66998 6.55183L4.66901 6.5528C4.57682 6.29378 4.55848 6.0142 4.6153 5.74519L4.67096 5.54792C4.7404 5.35518 4.84938 5.17819 4.99127 5.02839L5.06647 4.95515C5.24758 4.79003 5.46889 4.67375 5.70905 4.61921L5.81256 4.59968ZM9.37701 15.7589C9.43004 15.9151 9.43004 16.085 9.37701 16.2413L6.11237 25.8594L26.2911 16.0001L6.11237 6.13972L9.37701 15.7589Z"
    />
    <path
      d="M27.9996 15.25C28.4138 15.25 28.7496 15.5858 28.7496 16C28.7496 16.4142 28.4138 16.75 27.9996 16.75H8.66663C8.25241 16.75 7.91663 16.4142 7.91663 16C7.91663 15.5858 8.25241 15.25 8.66663 15.25H27.9996Z"
    />
  </g>
  <defs>
    <clipPath id="clip0_1071_5031">
      <rect width="32" height="32" />
    </clipPath>
  </defs>
</svg>
