<svg viewBox="0 0 32 32" xmlns="http://www.w3.org/2000/svg">
  <path
    d="M25.0566 23.6922C25.0566 23.2238 24.8807 22.7835 24.582 22.4656C24.2848 22.1494 23.8921 21.9803 23.4932 21.9803C23.0941 21.9803 22.7006 22.1493 22.4033 22.4656C22.1048 22.7835 21.9297 23.224 21.9297 23.6922C21.9297 24.1604 22.1048 24.6009 22.4033 24.9188C22.7006 25.2351 23.0941 25.4041 23.4932 25.4041C23.8921 25.404 24.2848 25.235 24.582 24.9188C24.8807 24.6009 25.0566 24.1606 25.0566 23.6922ZM14.8808 3.45391C15.1697 3.18203 15.6204 3.18203 15.9092 3.45391C18.4674 5.86217 21.7967 7.10842 25.1904 6.94317L25.3193 6.94805C25.6158 6.9848 25.8673 7.1962 25.9492 7.492C26.6378 9.98559 26.719 12.596 26.2197 15.0887C26.1383 15.4948 25.743 15.7579 25.3369 15.6766C24.931 15.595 24.6677 15.1997 24.749 14.7938C25.1653 12.7156 25.1357 10.5482 24.6455 8.45587C21.2741 8.46904 18.0075 7.24759 15.3945 5.00665C12.7811 7.2477 9.51444 8.46956 6.14257 8.45587C5.7593 10.0917 5.65498 11.7898 5.8369 13.4686C6.03985 15.3411 6.59439 17.1495 7.46581 18.7859C8.33732 20.4224 9.50741 21.8534 10.9043 22.994C12.301 24.1344 13.8966 24.9618 15.5947 25.4305C15.994 25.5407 16.2284 25.9541 16.1182 26.3533C16.0079 26.7526 15.5946 26.987 15.1953 26.8768C13.2922 26.3515 11.5109 25.4247 9.95604 24.1551C8.40129 22.8856 7.10531 21.2988 6.14257 19.491C5.17994 17.6834 4.569 15.6907 4.34569 13.6307C4.12241 11.5705 4.29085 9.4827 4.84081 7.492C4.93438 7.15412 5.24939 6.92626 5.5996 6.94317C8.99323 7.10841 12.3227 5.86212 14.8808 3.45391ZM26.5566 23.6922C26.5566 24.0063 26.5117 24.3167 26.4267 24.6141L27.3926 25.2068C27.7453 25.4235 27.856 25.8852 27.6396 26.2381C27.4229 26.5911 26.9604 26.7019 26.6074 26.4852L25.6933 25.9246C25.687 25.9315 25.6812 25.9392 25.6748 25.9461C25.2808 26.3653 24.785 26.661 24.2432 26.8045V27.9998C24.2432 28.4139 23.9073 28.7497 23.4932 28.7498C23.0789 28.7498 22.7432 28.414 22.7432 27.9998V26.8055C22.201 26.662 21.7047 26.3655 21.3105 25.9461C21.3039 25.939 21.2976 25.9317 21.291 25.9246L20.3799 26.4852C20.0269 26.7019 19.5643 26.5911 19.3476 26.2381C19.1312 25.8851 19.2418 25.4235 19.5947 25.2068L20.5586 24.615C20.4735 24.3174 20.4297 24.0066 20.4297 23.6922C20.4297 23.3775 20.4733 23.0662 20.5586 22.7684L19.5947 22.1775C19.2418 21.9609 19.1313 21.4993 19.3476 21.1463C19.5643 20.7933 20.0269 20.6825 20.3799 20.8992L21.291 21.4588C21.2974 21.4519 21.3041 21.4452 21.3105 21.4383C21.7047 21.0189 22.2009 20.7214 22.7432 20.5779V19.3846C22.7432 18.9704 23.0789 18.6346 23.4932 18.6346C23.9073 18.6347 24.2432 18.9704 24.2432 19.3846V20.5789C24.7851 20.7224 25.2808 21.019 25.6748 21.4383C25.6811 21.445 25.6871 21.452 25.6933 21.4588L26.6064 20.8992C26.9592 20.6826 27.4208 20.7927 27.6377 21.1453C27.8545 21.4982 27.7445 21.9607 27.3916 22.1775L26.4267 22.7693C26.5119 23.067 26.5566 23.3778 26.5566 23.6922Z"
  />
</svg>
