<svg viewBox="0 0 32 32" xmlns="http://www.w3.org/2000/svg">
  <path
    d="M23.6962 28.0002V27.9875C23.6963 27.5734 24.0321 27.2376 24.4462 27.2375C24.8604 27.2375 25.1962 27.5733 25.1962 27.9875V28.0002C25.1962 28.4144 24.8605 28.7502 24.4462 28.7502C24.0321 28.7501 23.6962 28.4144 23.6962 28.0002ZM15.1123 3.3547C15.3862 3.19252 15.7399 3.21971 15.9873 3.43575C18.8282 5.91683 22.5383 7.20961 26.331 7.03829L26.458 7.04317C26.7493 7.07951 26.998 7.28546 27.0839 7.57442C27.7685 9.87758 27.9126 12.2796 27.5312 14.6037C27.4641 15.0125 27.0776 15.2899 26.6689 15.2229C26.2604 15.1557 25.9838 14.7701 26.0507 14.3615C26.3655 12.4439 26.2831 10.4672 25.7959 8.55196C22.0454 8.5826 18.4009 7.31823 15.4931 4.97677C12.5851 7.31807 8.94097 8.58295 5.19039 8.55196C4.76175 10.2351 4.64391 11.9822 4.84566 13.7092C5.0695 15.6251 5.6818 17.4777 6.64547 19.1565C7.60914 20.8351 8.90511 22.3061 10.457 23.4816C11.9573 24.6181 13.6673 25.4546 15.4912 25.9475C16.7444 25.6087 17.9359 25.1127 19.038 24.4748C19.3964 24.2675 19.8549 24.3901 20.0625 24.7483C20.2699 25.1067 20.1475 25.5661 19.789 25.7736C18.5154 26.5108 17.1347 27.0783 15.6806 27.4514C15.5585 27.4827 15.4297 27.4827 15.3076 27.4514C13.2205 26.9169 11.2633 25.9734 9.55172 24.677C7.84004 23.3804 6.40915 21.7569 5.34468 19.9025C4.28024 18.0482 3.60387 16.0013 3.3564 13.883C3.10894 11.7648 3.29513 9.61892 3.90426 7.57345C4.0026 7.24353 4.31326 7.02275 4.65718 7.03829C8.4499 7.20952 12.16 5.91689 15.0009 3.43575L15.1123 3.3547ZM23.8183 18.4631C24.4522 18.3379 25.108 18.4009 25.7031 18.6418L25.9541 18.7561L25.957 18.757C26.6143 19.0928 27.1401 19.6383 27.4492 20.3068C27.7583 20.9756 27.8323 21.7282 27.6572 22.4436C27.4821 23.1588 27.0691 23.7936 26.4873 24.2473C25.9056 24.7007 25.1877 24.948 24.4492 24.9504C24.035 24.9517 23.6976 24.6166 23.6962 24.2024C23.695 23.7882 24.0301 23.4517 24.4443 23.4504C24.852 23.4491 25.2464 23.3124 25.5644 23.0647C25.8824 22.8168 26.1059 22.4721 26.2002 22.0871C26.2944 21.7023 26.2547 21.2967 26.0878 20.9358C25.9213 20.5757 25.6368 20.2783 25.2773 20.094V20.0949C24.9182 19.9133 24.5061 19.8564 24.1093 19.9348C23.7126 20.0131 23.3566 20.2217 23.0976 20.5236C22.828 20.838 22.3544 20.8741 22.04 20.6047C21.7256 20.3351 21.6893 19.8615 21.9589 19.5471C22.4386 18.9877 23.0941 18.6062 23.8183 18.4631Z"
  />
</svg>
