<svg viewBox="0 0 24 24" xmlns="http://www.w3.org/2000/svg">
  <g clip-path="url(#clip0_13_8134)">
    <path
      d="M20.4375 5.00024C20.4375 4.619 20.2859 4.25323 20.0164 3.98364C19.7468 3.71406 19.381 3.5625 18.9998 3.5625H5.00024C4.619 3.5625 4.25323 3.71406 3.98364 3.98364C3.71406 4.25323 3.5625 4.619 3.5625 5.00024V18.9998C3.5625 19.381 3.71406 19.7468 3.98364 20.0164C4.25323 20.2859 4.619 20.4375 5.00024 20.4375H18.9998C19.381 20.4375 19.7468 20.2859 20.0164 20.0164C20.2859 19.7468 20.4375 19.381 20.4375 18.9998V5.00024ZM21.5625 18.9998C21.5625 19.6794 21.2923 20.3312 20.8118 20.8118C20.3312 21.2923 19.6794 21.5625 18.9998 21.5625H5.00024C4.32063 21.5625 3.66879 21.2923 3.18823 20.8118C2.70767 20.3312 2.4375 19.6794 2.4375 18.9998V5.00024C2.4375 4.32063 2.70767 3.66879 3.18823 3.18823C3.66879 2.70767 4.32063 2.4375 5.00024 2.4375H18.9998C19.6794 2.4375 20.3312 2.70767 20.8118 3.18823C21.2923 3.66879 21.5625 4.32063 21.5625 5.00024V18.9998Z"
    />
    <path
      d="M21 9.4375C21.3107 9.4375 21.5625 9.68934 21.5625 10C21.5625 10.3107 21.3107 10.5625 21 10.5625H3C2.68934 10.5625 2.4375 10.3107 2.4375 10C2.4375 9.68934 2.68934 9.4375 3 9.4375H21Z"
    />
    <path
      d="M9.4375 21V3C9.4375 2.68934 9.68934 2.4375 10 2.4375C10.3107 2.4375 10.5625 2.68934 10.5625 3V21C10.5625 21.3107 10.3107 21.5625 10 21.5625C9.68934 21.5625 9.4375 21.3107 9.4375 21Z"
    />
  </g>
  <defs>
    <clipPath id="clip0_13_8134">
      <rect width="24" height="24" />
    </clipPath>
  </defs>
</svg>
