<svg viewBox="0 0 32 32" xmlns="http://www.w3.org/2000/svg">
  <g clip-path="url(#clip0_15_8396)">
    <path
      d="M27.25 6.66699C27.25 6.15866 27.0479 5.67097 26.6885 5.31152C26.329 4.95208 25.8413 4.75 25.333 4.75H6.66699C6.15866 4.75 5.67097 4.95208 5.31152 5.31152C4.95208 5.67097 4.75 6.15866 4.75 6.66699V25.333C4.75 25.8413 4.95208 26.329 5.31152 26.6885C5.67097 27.0479 6.15866 27.25 6.66699 27.25H25.333C25.8413 27.25 26.329 27.0479 26.6885 26.6885C27.0479 26.329 27.25 25.8413 27.25 25.333V6.66699ZM28.75 25.333C28.75 26.2392 28.3898 27.1083 27.749 27.749C27.1083 28.3898 26.2392 28.75 25.333 28.75H6.66699C5.76084 28.75 4.89173 28.3898 4.25098 27.749C3.61023 27.1083 3.25 26.2392 3.25 25.333V6.66699C3.25 5.76084 3.61023 4.89173 4.25098 4.25098C4.89173 3.61023 5.76084 3.25 6.66699 3.25H25.333C26.2392 3.25 27.1083 3.61023 27.749 4.25098C28.3898 4.89173 28.75 5.76084 28.75 6.66699V25.333Z"
    />
    <path
      d="M28 12.583C28.4142 12.583 28.75 12.9188 28.75 13.333C28.75 13.7472 28.4142 14.083 28 14.083H4C3.58579 14.083 3.25 13.7472 3.25 13.333C3.25 12.9188 3.58579 12.583 4 12.583H28Z"
    />
    <path
      d="M12.5835 28V4C12.5835 3.58579 12.9193 3.25 13.3335 3.25C13.7477 3.25 14.0835 3.58579 14.0835 4V28C14.0835 28.4142 13.7477 28.75 13.3335 28.75C12.9193 28.75 12.5835 28.4142 12.5835 28Z"
    />
  </g>
  <defs>
    <clipPath id="clip0_15_8396">
      <rect width="32" height="32" />
    </clipPath>
  </defs>
</svg>
