<svg viewBox="0 0 24 24" xmlns="http://www.w3.org/2000/svg">
  <path
    fill-rule="evenodd"
    clip-rule="evenodd"
    d="M10.8951 10.8951C11.1882 10.6021 11.5856 10.4375 12 10.4375C12.4144 10.4375 12.8118 10.6021 13.1049 10.8951C13.3979 11.1882 13.5625 11.5856 13.5625 12C13.5625 12.4144 13.3979 12.8118 13.1049 13.1049C12.8118 13.3979 12.4144 13.5625 12 13.5625C11.5856 13.5625 11.1882 13.3979 10.8951 13.1049C10.6021 12.8118 10.4375 12.4144 10.4375 12C10.4375 11.5856 10.6021 11.1882 10.8951 10.8951ZM12 11.5625C11.884 11.5625 11.7727 11.6086 11.6906 11.6906C11.6086 11.7727 11.5625 11.884 11.5625 12C11.5625 12.116 11.6086 12.2273 11.6906 12.3094C11.7727 12.3914 11.884 12.4375 12 12.4375C12.116 12.4375 12.2273 12.3914 12.3094 12.3094C12.3914 12.2273 12.4375 12.116 12.4375 12C12.4375 11.884 12.3914 11.7727 12.3094 11.6906C12.2273 11.6086 12.116 11.5625 12 11.5625Z"
  />
  <path
    fill-rule="evenodd"
    clip-rule="evenodd"
    d="M8.90964 7.37495C9.82439 6.76373 10.8998 6.4375 12 6.4375C12.3107 6.4375 12.5625 6.68934 12.5625 7C12.5625 7.31066 12.3107 7.5625 12 7.5625C11.1223 7.5625 10.2644 7.82275 9.53466 8.31035C8.80492 8.79795 8.23615 9.491 7.90029 10.3018C7.56442 11.1127 7.47655 12.0049 7.64777 12.8657C7.81899 13.7265 8.24162 14.5172 8.86222 15.1378C9.48281 15.7584 10.2735 16.181 11.1343 16.3522C11.9951 16.5235 12.8873 16.4356 13.6982 16.0997C14.509 15.7639 15.2021 15.1951 15.6896 14.4653C16.1772 13.7356 16.4375 12.8777 16.4375 12C16.4375 11.6893 16.6893 11.4375 17 11.4375C17.3107 11.4375 17.5625 11.6893 17.5625 12C17.5625 13.1002 17.2363 14.1756 16.6251 15.0904C16.0138 16.0051 15.1451 16.7181 14.1287 17.1391C13.1123 17.5601 11.9938 17.6703 10.9148 17.4556C9.83579 17.241 8.84465 16.7112 8.06672 15.9333C7.28879 15.1554 6.75901 14.1642 6.54438 13.0852C6.32975 12.0062 6.43991 10.8877 6.86092 9.87132C7.28194 8.85491 7.99489 7.98617 8.90964 7.37495Z"
  />
  <path
    fill-rule="evenodd"
    clip-rule="evenodd"
    d="M7.36855 3.63108C9.1031 2.67176 11.0929 2.27516 13.0627 2.49615C13.3714 2.53078 13.5936 2.80913 13.559 3.11785C13.5243 3.42658 13.246 3.64877 12.9373 3.61413C11.1992 3.41914 9.44351 3.76908 7.91302 4.61555C6.38254 5.46201 5.15292 6.76315 4.39425 8.339C3.63558 9.91485 3.38536 11.6875 3.67821 13.4118C3.97105 15.1361 4.79248 16.7267 6.02887 17.9637C7.26527 19.2008 8.85552 20.023 10.5796 20.3167C12.3038 20.6104 14.0766 20.3611 15.6528 19.6032C17.229 18.8453 18.5308 17.6164 19.378 16.0863C20.2253 14.5563 20.5761 12.8007 20.382 11.0626C20.3475 10.7538 20.5698 10.4756 20.8786 10.4411C21.1873 10.4066 21.4655 10.629 21.5 10.9377C21.72 12.9076 21.3224 14.8972 20.3622 16.6313C19.402 18.3654 17.9267 19.7582 16.1403 20.6171C14.3539 21.476 12.3447 21.7586 10.3907 21.4257C8.43671 21.0929 6.63443 20.161 5.23318 18.759C3.83193 17.3571 2.90098 15.5543 2.56909 13.6002C2.2372 11.646 2.52078 9.63696 3.3806 7.851C4.24043 6.06504 5.634 4.5904 7.36855 3.63108Z"
  />
  <path
    fill-rule="evenodd"
    clip-rule="evenodd"
    d="M6.02276 18.5837C6.27102 18.7705 6.32088 19.1231 6.13412 19.3714L3.44954 22.94C3.26278 23.1883 2.91014 23.2381 2.66188 23.0514C2.41362 22.8646 2.36377 22.512 2.55052 22.2637L5.2351 18.6951C5.42186 18.4468 5.77451 18.397 6.02276 18.5837Z"
  />
  <path
    fill-rule="evenodd"
    clip-rule="evenodd"
    d="M17.9772 18.5837C17.729 18.7705 17.6791 19.1231 17.8659 19.3714L20.5505 22.94C20.7372 23.1883 21.0899 23.2381 21.3381 23.0514C21.5864 22.8646 21.6362 22.512 21.4495 22.2637L18.7649 18.6951C18.5781 18.4468 18.2255 18.397 17.9772 18.5837Z"
  />
  <path
    fill-rule="evenodd"
    clip-rule="evenodd"
    d="M18.2153 2.48033C18.4255 2.5674 18.5625 2.77251 18.5625 3.00002V5.43752H21C21.2275 5.43752 21.4326 5.57457 21.5197 5.78476C21.6067 5.99495 21.5586 6.23689 21.3977 6.39776L18.3977 9.39776C18.2923 9.50325 18.1492 9.56252 18 9.56252H15C14.6893 9.56252 14.4375 9.31068 14.4375 9.00002V6.00002C14.4375 5.85083 14.4968 5.70776 14.6023 5.60227L17.6023 2.60227C17.7631 2.4414 18.0051 2.39327 18.2153 2.48033ZM15.5625 6.23301V8.43752H17.767L19.642 6.56252H18C17.6893 6.56252 17.4375 6.31068 17.4375 6.00002V4.35801L15.5625 6.23301Z"
  />
  <path
    fill-rule="evenodd"
    clip-rule="evenodd"
    d="M15.3977 8.60225C15.6174 8.82192 15.6174 9.17808 15.3977 9.39775L12.3977 12.3977C12.1781 12.6174 11.8219 12.6174 11.6023 12.3977C11.3826 12.1781 11.3826 11.8219 11.6023 11.6023L14.6023 8.60225C14.8219 8.38258 15.1781 8.38258 15.3977 8.60225Z"
  />
</svg>
