<svg viewBox="0 0 32 32" xmlns="http://www.w3.org/2000/svg">
  <path
    fill-rule="evenodd"
    clip-rule="evenodd"
    d="M14.5267 14.5272C14.9174 14.1365 15.4473 13.917 15.9998 13.917C16.5524 13.917 17.0823 14.1365 17.473 14.5272C17.8637 14.9179 18.0832 15.4478 18.0832 16.0003C18.0832 16.5529 17.8637 17.0828 17.473 17.4735C17.0823 17.8642 16.5524 18.0837 15.9998 18.0837C15.4473 18.0837 14.9174 17.8642 14.5267 17.4735C14.136 17.0828 13.9165 16.5529 13.9165 16.0003C13.9165 15.4478 14.136 14.9179 14.5267 14.5272ZM15.9998 15.417C15.8451 15.417 15.6968 15.4785 15.5874 15.5878C15.478 15.6972 15.4165 15.8456 15.4165 16.0003C15.4165 16.155 15.478 16.3034 15.5874 16.4128C15.6968 16.5222 15.8451 16.5837 15.9998 16.5837C16.1545 16.5837 16.3029 16.5222 16.4123 16.4128C16.5217 16.3034 16.5832 16.155 16.5832 16.0003C16.5832 15.8456 16.5217 15.6972 16.4123 15.5878C16.3029 15.4785 16.1545 15.417 15.9998 15.417Z"
  />
  <path
    fill-rule="evenodd"
    clip-rule="evenodd"
    d="M11.8797 9.83294C13.0994 9.01799 14.5333 8.58301 16.0002 8.58301C16.4144 8.58301 16.7502 8.91879 16.7502 9.33301C16.7502 9.74722 16.4144 10.083 16.0002 10.083C14.83 10.083 13.686 10.43 12.713 11.0801C11.7401 11.7303 10.9817 12.6543 10.5339 13.7355C10.0861 14.8166 9.96889 16.0062 10.1972 17.154C10.4255 18.3017 10.989 19.3559 11.8165 20.1834C12.6439 21.0109 13.6982 21.5744 14.8459 21.8027C15.9936 22.031 17.1832 21.9138 18.2644 21.466C19.3455 21.0181 20.2696 20.2598 20.9197 19.2868C21.5698 18.3138 21.9168 17.1699 21.9168 15.9997C21.9168 15.5855 22.2526 15.2497 22.6668 15.2497C23.081 15.2497 23.4168 15.5855 23.4168 15.9997C23.4168 17.4666 22.9819 18.9005 22.1669 20.1202C21.3519 21.3398 20.1936 22.2904 18.8384 22.8518C17.4832 23.4131 15.9919 23.56 14.5532 23.2738C13.1146 22.9877 11.793 22.2813 10.7558 21.2441C9.71855 20.2068 9.01218 18.8853 8.72601 17.4466C8.43983 16.0079 8.58671 14.5167 9.14806 13.1614C9.70941 11.8062 10.66 10.6479 11.8797 9.83294Z"
  />
  <path
    fill-rule="evenodd"
    clip-rule="evenodd"
    d="M9.82489 4.84079C12.1376 3.56169 14.7907 3.0329 17.4171 3.32755C17.8287 3.37373 18.125 3.74486 18.0788 4.15649C18.0326 4.56812 17.6615 4.86437 17.2499 4.81819C14.9324 4.55821 12.5915 5.02479 10.5509 6.15341C8.51022 7.28202 6.87072 9.01689 5.85916 11.118C4.8476 13.2192 4.51398 15.5827 4.90444 17.8817C5.2949 20.1808 6.39014 22.3017 8.03866 23.951C9.68719 25.6004 11.8075 26.6967 14.1064 27.0883C16.4052 27.4799 18.7689 27.1475 20.8706 26.137C22.9722 25.1265 24.7079 23.4879 25.8375 21.4478C26.9672 19.4077 27.4349 17.067 27.1761 14.7494C27.1301 14.3378 27.4266 13.9668 27.8382 13.9208C28.2499 13.8749 28.6209 14.1713 28.6668 14.583C28.9602 17.2095 28.43 19.8623 27.1498 22.1744C25.8695 24.4865 23.9024 26.3436 21.5205 27.4888C19.1387 28.6341 16.4598 29.0108 13.8545 28.567C11.2491 28.1232 8.84606 26.8807 6.97774 25.0114C5.10941 23.1421 3.86813 20.7385 3.42561 18.1329C2.98309 15.5273 3.3612 12.8486 4.50763 10.4673C5.65407 8.08606 7.51216 6.11989 9.82489 4.84079Z"
  />
  <path
    fill-rule="evenodd"
    clip-rule="evenodd"
    d="M8.03035 24.7777C8.36136 25.0267 8.42783 25.4969 8.17883 25.8279L4.59939 30.586C4.35038 30.917 3.88018 30.9835 3.54917 30.7345C3.21816 30.4855 3.15169 30.0153 3.4007 29.6843L6.98013 24.9261C7.22914 24.5951 7.69934 24.5286 8.03035 24.7777Z"
  />
  <path
    fill-rule="evenodd"
    clip-rule="evenodd"
    d="M23.9696 24.7777C23.6386 25.0267 23.5722 25.4969 23.8212 25.8279L27.4006 30.586C27.6496 30.917 28.1198 30.9835 28.4508 30.7345C28.7818 30.4855 28.8483 30.0153 28.5993 29.6843L25.0199 24.9261C24.7709 24.5951 24.3007 24.5286 23.9696 24.7777Z"
  />
  <path
    fill-rule="evenodd"
    clip-rule="evenodd"
    d="M24.287 3.30711C24.5673 3.4232 24.75 3.69668 24.75 4.00002V7.25002H28C28.3033 7.25002 28.5768 7.43275 28.6929 7.71301C28.809 7.99327 28.7448 8.31585 28.5303 8.53035L24.5303 12.5304C24.3897 12.671 24.1989 12.75 24 12.75H20C19.5858 12.75 19.25 12.4142 19.25 12V8.00002C19.25 7.80111 19.329 7.61034 19.4697 7.46969L23.4697 3.46969C23.6842 3.25519 24.0068 3.19103 24.287 3.30711ZM20.75 8.31068V11.25H23.6893L26.1893 8.75002H24C23.5858 8.75002 23.25 8.41424 23.25 8.00002V5.81068L20.75 8.31068Z"
  />
  <path
    fill-rule="evenodd"
    clip-rule="evenodd"
    d="M20.5303 11.4697C20.8232 11.7626 20.8232 12.2374 20.5303 12.5303L16.5303 16.5303C16.2374 16.8232 15.7626 16.8232 15.4697 16.5303C15.1768 16.2374 15.1768 15.7626 15.4697 15.4697L19.4697 11.4697C19.7626 11.1768 20.2374 11.1768 20.5303 11.4697Z"
  />
</svg>
