<svg viewBox="0 0 32 32" xmlns="http://www.w3.org/2000/svg">
  <path
    d="M12.25 17.5C12.25 17.3011 12.1709 17.1104 12.0303 16.9697C11.8896 16.8291 11.6989 16.75 11.5 16.75H5.5C5.30109 16.75 5.11038 16.8291 4.96973 16.9697C4.82907 17.1104 4.75 17.3011 4.75 17.5V26.5C4.75 26.6989 4.82907 26.8896 4.96973 27.0303C5.11038 27.1709 5.30109 27.25 5.5 27.25H11.5C11.6989 27.25 11.8896 27.1709 12.0303 27.0303C12.1709 26.8896 12.25 26.6989 12.25 26.5V17.5ZM28 27.25C28.4142 27.25 28.75 27.5858 28.75 28C28.75 28.4142 28.4142 28.75 28 28.75H19C18.5858 28.75 18.25 28.4142 18.25 28C18.25 27.5858 18.5858 27.25 19 27.25H28ZM28 21.25C28.4142 21.25 28.75 21.5858 28.75 22C28.75 22.4142 28.4142 22.75 28 22.75H19C18.5858 22.75 18.25 22.4142 18.25 22C18.25 21.5858 18.5858 21.25 19 21.25H28ZM28 15.25C28.4142 15.25 28.75 15.5858 28.75 16C28.75 16.4142 28.4142 16.75 28 16.75H19C18.5858 16.75 18.25 16.4142 18.25 16C18.25 15.5858 18.5858 15.25 19 15.25H28ZM27.25 5.5C27.25 5.30109 27.1709 5.11038 27.0303 4.96973C26.8896 4.82907 26.6989 4.75 26.5 4.75H5.5C5.30109 4.75 5.11038 4.82907 4.96973 4.96973C4.82907 5.11038 4.75 5.30109 4.75 5.5V8.5C4.75 8.69891 4.82907 8.88962 4.96973 9.03027C5.11038 9.17093 5.30109 9.25 5.5 9.25H26.5C26.6989 9.25 26.8896 9.17093 27.0303 9.03027C27.1709 8.88962 27.25 8.69891 27.25 8.5V5.5ZM13.75 26.5C13.75 27.0967 13.5128 27.6689 13.0908 28.0908C12.6689 28.5128 12.0967 28.75 11.5 28.75H5.5C4.90326 28.75 4.33114 28.5128 3.90918 28.0908C3.48722 27.6689 3.25 27.0967 3.25 26.5V17.5C3.25 16.9033 3.48722 16.3311 3.90918 15.9092C4.33114 15.4872 4.90326 15.25 5.5 15.25H11.5C12.0967 15.25 12.6689 15.4872 13.0908 15.9092C13.5128 16.3311 13.75 16.9033 13.75 17.5V26.5ZM28.75 8.5C28.75 9.09674 28.5128 9.66886 28.0908 10.0908C27.6689 10.5128 27.0967 10.75 26.5 10.75H5.5C4.90326 10.75 4.33114 10.5128 3.90918 10.0908C3.48722 9.66886 3.25 9.09674 3.25 8.5V5.5C3.25 4.90326 3.48722 4.33114 3.90918 3.90918C4.33114 3.48722 4.90326 3.25 5.5 3.25H26.5C27.0967 3.25 27.6689 3.48722 28.0908 3.90918C28.5128 4.33114 28.75 4.90326 28.75 5.5V8.5Z"
  />
</svg>
