<svg viewBox="0 0 32 32" xmlns="http://www.w3.org/2000/svg">
  <path
    d="M18.8027 3.46965C19.0956 3.17676 19.5704 3.17681 19.8633 3.46965L27.5303 11.1357C27.8232 11.4285 27.8231 11.9033 27.5303 12.1962C27.2374 12.4891 26.7626 12.4891 26.4697 12.1962L25.7471 11.4745L10.7627 26.4609C10.3541 26.8694 9.86876 27.1938 9.33496 27.415C8.8012 27.636 8.22911 27.7498 7.65137 27.7499C6.48424 27.7501 5.36448 27.287 4.53906 26.4618C3.71364 25.6367 3.25014 24.5166 3.25 23.3495C3.24998 22.1826 3.71396 21.0634 4.53906 20.2382L19.5234 5.2509L18.8027 4.5302C18.5099 4.23732 18.5099 3.76253 18.8027 3.46965ZM24.4443 18.582C24.6515 18.582 24.8494 18.6682 24.9912 18.8193L26.9082 20.8642L26.9238 20.8808C27.3445 21.3578 27.6182 21.9462 27.7129 22.5751C27.8075 23.2041 27.7187 23.8469 27.457 24.4267C27.1953 25.0065 26.7717 25.4986 26.2373 25.8437C25.7029 26.1887 25.0804 26.372 24.4443 26.372C23.8083 26.372 23.1857 26.1887 22.6514 25.8437C22.117 25.4986 21.6934 25.0065 21.4316 24.4267C21.1699 23.8469 21.0811 23.2041 21.1758 22.5751C21.2704 21.9462 21.5442 21.3578 21.9648 20.8808L21.9805 20.8642L23.8975 18.8193L23.9531 18.7656C24.0888 18.6479 24.2631 18.582 24.4443 18.582ZM23.083 21.8798C22.8569 22.139 22.7104 22.4585 22.6592 22.7988C22.6076 23.1422 22.656 23.493 22.7988 23.8095C22.9418 24.1262 23.1729 24.3954 23.4648 24.5839C23.7567 24.7723 24.0969 24.872 24.4443 24.872C24.7918 24.872 25.132 24.7723 25.4238 24.5839C25.7157 24.3954 25.9469 24.1262 26.0898 23.8095C26.2327 23.493 26.2811 23.1422 26.2295 22.7988C26.1778 22.4553 26.0286 22.1335 25.7988 21.873V21.872L24.4443 20.4286L23.083 21.8798ZM10.8701 16.0273H19.0742L24.6865 10.414L20.584 6.31145L10.8701 16.0273ZM4.75 23.3495C4.7501 24.1186 5.05572 24.8565 5.59961 25.4003C6.14368 25.9442 6.88201 26.25 7.65137 26.2499C8.03224 26.2498 8.40986 26.175 8.76172 26.0292C9.11345 25.8834 9.43294 25.6695 9.70215 25.4003L17.5742 17.5273H9.37109L5.59961 21.2988C5.05574 21.8427 4.74998 22.5804 4.75 23.3495Z"
  />
</svg>
