<svg viewBox="0 0 24 24" xmlns="http://www.w3.org/2000/svg">
  <g clip-path="url(#clip0_13_8122)">
    <path
      d="M18.2092 3.21289C18.2092 2.90223 18.461 2.65039 18.7717 2.65039C19.0823 2.65049 19.3342 2.90229 19.3342 3.21289V6.35205L20.6225 5.06372C20.8421 4.84424 21.1983 4.84435 21.4179 5.06372C21.6376 5.28338 21.6376 5.64018 21.4179 5.85986L19.1694 8.1084C19.0639 8.21385 18.9208 8.27315 18.7717 8.27319C18.6225 8.2732 18.4795 8.21389 18.374 8.1084L16.1247 5.85986C15.905 5.64019 15.905 5.28339 16.1247 5.06372C16.3443 4.84429 16.7005 4.84429 16.9201 5.06372L18.2092 6.35278V3.21289Z"
    />
    <path
      d="M4.66426 3.21289C4.66426 2.90223 4.9161 2.65039 5.22676 2.65039C5.53734 2.65049 5.78926 2.90229 5.78926 3.21289V6.35205L7.07759 5.06372C7.29718 4.84424 7.65334 4.84435 7.873 5.06372C8.09268 5.28338 8.09267 5.64018 7.873 5.85986L5.62447 8.1084C5.51902 8.21385 5.37589 8.27315 5.22676 8.27319C5.07758 8.2732 4.93455 8.21389 4.82906 8.1084L2.57979 5.85986C2.36012 5.64019 2.36012 5.28339 2.57979 5.06372C2.79942 4.84429 3.15558 4.84429 3.3752 5.06372L4.66426 6.35278V3.21289Z"
    />
    <path
      d="M13.7354 11.5974C13.7354 11.1373 13.5524 10.696 13.2271 10.3706C12.9017 10.0452 12.4604 9.86231 12.0002 9.8623C11.5401 9.8623 11.0988 10.0452 10.7734 10.3706C10.448 10.696 10.2651 11.1372 10.2651 11.5974C10.2651 12.0576 10.4481 12.4988 10.7734 12.8242C11.0988 13.1496 11.5401 13.3325 12.0002 13.3325C12.4604 13.3325 12.9017 13.1496 13.2271 12.8242C13.5524 12.4988 13.7353 12.0576 13.7354 11.5974ZM14.8604 11.5974C14.8603 12.3559 14.5588 13.0833 14.0225 13.6196C13.4861 14.156 12.7588 14.4575 12.0002 14.4575C11.2417 14.4575 10.5144 14.156 9.97803 13.6196C9.44167 13.0833 9.14014 12.3559 9.14014 11.5974C9.14014 10.8389 9.44166 10.1116 9.97803 9.5752C10.5144 9.03883 11.2417 8.7373 12.0002 8.7373C12.7588 8.73731 13.4861 9.03883 14.0225 9.5752C14.5588 10.1116 14.8604 10.8389 14.8604 11.5974Z"
    />
    <path
      d="M16.0327 20.7878V19.6394C16.0327 19.1793 15.8498 18.738 15.5244 18.4126C15.199 18.0872 14.7577 17.9043 14.2976 17.9043H9.70239C9.24222 17.9043 8.80098 18.0872 8.47559 18.4126C8.1502 18.738 7.96729 19.1792 7.96729 19.6394V20.7878C7.96729 21.0985 7.71545 21.3503 7.40479 21.3503C7.09412 21.3503 6.84229 21.0985 6.84229 20.7878V19.6394C6.84229 18.8809 7.14381 18.1536 7.68018 17.6172C8.21654 17.0808 8.94385 16.7793 9.70239 16.7793H14.2976C15.0561 16.7793 15.7835 17.0808 16.3198 17.6172C16.8562 18.1536 17.1577 18.8809 17.1577 19.6394V20.7878C17.1577 21.0985 16.9058 21.3503 16.5952 21.3503C16.2846 21.3503 16.0327 21.0985 16.0327 20.7878Z"
    />
    <path
      d="M19.8699 12.5029C19.8699 12.2171 19.7563 11.9426 19.5542 11.7405C19.3521 11.5385 19.0782 11.4249 18.7925 11.4248C18.5066 11.4248 18.2322 11.5383 18.03 11.7405C17.8279 11.9426 17.7144 12.2171 17.7144 12.5029C17.7144 12.7887 17.828 13.0626 18.03 13.2646C18.2322 13.4668 18.5066 13.5803 18.7925 13.5803C19.0783 13.5803 19.3521 13.4667 19.5542 13.2646C19.7563 13.0626 19.8698 12.7887 19.8699 12.5029ZM20.9949 12.5029C20.9948 13.0871 20.7627 13.647 20.3496 14.0601C19.9365 14.4731 19.3766 14.7053 18.7925 14.7053C18.2082 14.7053 17.6477 14.4732 17.2346 14.0601C16.8216 13.647 16.5894 13.087 16.5894 12.5029C16.5894 11.9187 16.8215 11.3582 17.2346 10.9451C17.6477 10.5319 18.2082 10.2998 18.7925 10.2998C19.3766 10.2999 19.9366 10.5321 20.3496 10.9451C20.7627 11.3582 20.9949 11.9187 20.9949 12.5029Z"
    />
    <path
      d="M21.51 19.0645V18.2441C21.51 17.9583 21.3965 17.6838 21.1943 17.4817C20.9923 17.2797 20.7183 17.1661 20.4326 17.166H18.792C18.4813 17.166 18.2295 16.9142 18.2295 16.6035C18.2295 16.2929 18.4813 16.041 18.792 16.041H20.4326C21.0167 16.0411 21.5767 16.2733 21.9897 16.6863C22.4029 17.0994 22.635 17.6599 22.635 18.2441V19.0645C22.6348 19.375 22.3831 19.627 22.0725 19.627C21.7621 19.6268 21.5102 19.3749 21.51 19.0645Z"
    />
    <path
      d="M6.28589 12.5029C6.28589 12.2171 6.17236 11.9426 5.97021 11.7405C5.76814 11.5385 5.49423 11.4249 5.2085 11.4248C4.92262 11.4248 4.64819 11.5383 4.44604 11.7405C4.2439 11.9426 4.13037 12.2171 4.13037 12.5029C4.13043 12.7887 4.24404 13.0626 4.44604 13.2646C4.64819 13.4668 4.92262 13.5803 5.2085 13.5803C5.49429 13.5803 5.76812 13.4667 5.97021 13.2646C6.17231 13.0626 6.28583 12.7887 6.28589 12.5029ZM7.41089 12.5029C7.41083 13.0871 7.1787 13.647 6.76562 14.0601C6.35255 14.4731 5.79266 14.7053 5.2085 14.7053C4.62425 14.7053 4.06376 14.4732 3.65063 14.0601C3.23765 13.647 3.00543 13.087 3.00537 12.5029C3.00537 11.9187 3.23751 11.3582 3.65063 10.9451C4.06376 10.5319 4.62425 10.2998 5.2085 10.2998C5.79259 10.2999 6.35257 10.5321 6.76562 10.9451C7.17875 11.3582 7.41089 11.9187 7.41089 12.5029Z"
    />
    <path
      d="M1.36475 19.0645V18.2441C1.36475 17.6599 1.59689 17.0994 2.01001 16.6863C2.42313 16.2732 2.98363 16.041 3.56787 16.041H5.20776C5.51842 16.041 5.77026 16.2929 5.77026 16.6035C5.77026 16.9142 5.51842 17.166 5.20776 17.166H3.56787C3.28199 17.166 3.00757 17.2795 2.80542 17.4817C2.60327 17.6838 2.48975 17.9583 2.48975 18.2441V19.0645C2.48956 19.375 2.23779 19.627 1.92725 19.627C1.6167 19.627 1.36493 19.375 1.36475 19.0645Z"
    />
  </g>
  <defs>
    <clipPath id="clip0_13_8122">
      <rect width="24" height="24" />
    </clipPath>
  </defs>
</svg>
