<svg viewBox="0 0 32 32" xmlns="http://www.w3.org/2000/svg">
  <g clip-path="url(#clip0_15_8405)">
    <path
      d="M17.9165 17.334C17.9165 16.8257 17.7144 16.338 17.355 15.9785C16.9956 15.6192 16.5086 15.4171 16.0005 15.417C15.4922 15.417 15.0045 15.6191 14.645 15.9785C14.2856 16.338 14.0835 16.8257 14.0835 17.334C14.0836 17.8421 14.2858 18.3291 14.645 18.6885C15.0045 19.0479 15.4922 19.25 16.0005 19.25C16.5087 19.2499 16.9956 19.0478 17.355 18.6885C17.7143 18.3291 17.9164 17.8422 17.9165 17.334ZM19.4165 17.334C19.4164 18.24 19.0572 19.1093 18.4165 19.75C17.7758 20.3907 16.9065 20.7499 16.0005 20.75C15.0945 20.75 14.2252 20.3905 13.5845 19.75C12.9438 19.1093 12.5836 18.24 12.5835 17.334C12.5835 16.4278 12.9437 15.5587 13.5845 14.918C14.2252 14.2772 15.0943 13.917 16.0005 13.917C16.9065 13.9171 17.7758 14.2773 18.4165 14.918C19.057 15.5587 19.4165 16.428 19.4165 17.334Z"
    />
    <path
      d="M24.583 6.66699C24.583 6.15866 24.3809 5.67097 24.0215 5.31152C23.6621 4.95226 23.1751 4.75009 22.667 4.75C22.1587 4.75 21.671 4.95208 21.3115 5.31152C20.9521 5.67097 20.75 6.15866 20.75 6.66699C20.7501 7.17513 20.9523 7.66213 21.3115 8.02148C21.671 8.38093 22.1587 8.58301 22.667 8.58301C23.1752 8.58292 23.6621 8.38085 24.0215 8.02148C24.3809 7.66212 24.5829 7.17521 24.583 6.66699ZM26.083 6.66699C26.0829 7.57303 25.7237 8.44234 25.083 9.08301C24.4423 9.72368 23.573 10.0829 22.667 10.083C21.761 10.083 20.8917 9.72355 20.251 9.08301C19.6103 8.44234 19.2501 7.57303 19.25 6.66699C19.25 5.76084 19.6102 4.89173 20.251 4.25098C20.8917 3.61023 21.7608 3.25 22.667 3.25C23.573 3.25009 24.4423 3.6103 25.083 4.25098C25.7236 4.89169 26.083 5.76099 26.083 6.66699Z"
    />
    <path
      d="M27.2495 17.333V16C27.2495 15.4917 27.0474 15.004 26.688 14.6445C26.3286 14.2853 25.8416 14.0831 25.3335 14.083H22.6665C22.2523 14.083 21.9165 13.7472 21.9165 13.333C21.9165 12.9188 22.2523 12.583 22.6665 12.583H25.3335C26.2395 12.5831 27.1088 12.9433 27.7495 13.584C28.3901 14.2247 28.7495 15.094 28.7495 16V17.333C28.7495 17.7472 28.4137 18.083 27.9995 18.083C27.5854 18.0828 27.2495 17.7471 27.2495 17.333Z"
    />
    <path
      d="M11.2495 6.66699C11.2495 6.15866 11.0474 5.67097 10.688 5.31152C10.3286 4.95226 9.84163 4.75009 9.3335 4.75C8.82516 4.75 8.33747 4.95208 7.97803 5.31152C7.61858 5.67097 7.4165 6.15866 7.4165 6.66699C7.41659 7.17513 7.61876 7.66213 7.97803 8.02148C8.33747 8.38093 8.82516 8.58301 9.3335 8.58301C9.84171 8.58292 10.3286 8.38085 10.688 8.02148C11.0474 7.66212 11.2494 7.17521 11.2495 6.66699ZM12.7495 6.66699C12.7494 7.57303 12.3902 8.44234 11.7495 9.08301C11.1088 9.72368 10.2395 10.0829 9.3335 10.083C8.42749 10.083 7.5582 9.72355 6.91748 9.08301C6.27681 8.44234 5.91659 7.57303 5.9165 6.66699C5.9165 5.76084 6.27673 4.89173 6.91748 4.25098C7.55823 3.61023 8.42734 3.25 9.3335 3.25C10.2395 3.25009 11.1088 3.6103 11.7495 4.25098C12.3901 4.89169 12.7495 5.76099 12.7495 6.66699Z"
    />
    <path
      d="M3.25 17.334V16.001C3.25 15.0948 3.61023 14.2257 4.25098 13.585C4.89173 12.9442 5.76084 12.584 6.66699 12.584H9.33301C9.74722 12.584 10.083 12.9198 10.083 13.334C10.083 13.7482 9.74722 14.084 9.33301 14.084H6.66699C6.15866 14.084 5.67097 14.2861 5.31152 14.6455C4.95208 15.005 4.75 15.4926 4.75 16.001V17.334C4.75 17.7482 4.41421 18.084 4 18.084C3.58579 18.084 3.25 17.7482 3.25 17.334Z"
    />
    <path
      d="M9.9165 28V26.667C9.9165 25.7608 10.2767 24.8917 10.9175 24.251C11.5582 23.6102 12.4273 23.25 13.3335 23.25H15.9995C16.4137 23.25 16.7495 23.5858 16.7495 24C16.7495 24.4142 16.4137 24.75 15.9995 24.75H13.3335C12.8252 24.75 12.3375 24.9521 11.978 25.3115C11.6186 25.671 11.4165 26.1587 11.4165 26.667V28C11.4165 28.4142 11.0807 28.75 10.6665 28.75C10.2523 28.75 9.9165 28.4142 9.9165 28Z"
    />
    <path
      d="M24.7088 20.917C24.9386 20.5725 25.4043 20.4793 25.7489 20.709C26.0933 20.9388 26.1865 21.4045 25.9569 21.749L24.0672 24.583H27.9989C28.2755 24.583 28.5295 24.7356 28.66 24.9795C28.7905 25.2234 28.7763 25.5189 28.6229 25.749L25.9569 29.749C25.7272 30.0936 25.2615 30.1866 24.9168 29.9571C24.5722 29.7273 24.4791 29.2617 24.7088 28.917L26.5975 26.083H22.6659C22.3893 26.083 22.1352 25.9304 22.0047 25.6865C21.8744 25.4427 21.8885 25.1471 22.0418 24.917L24.7088 20.917Z"
    />
  </g>
  <defs>
    <clipPath id="clip0_15_8405">
      <rect width="32" height="32" />
    </clipPath>
  </defs>
</svg>
