<svg viewBox="0 0 24 24" xmlns="http://www.w3.org/2000/svg">
  <g clip-path="url(#clip0_13_8143)">
    <path
      d="M13.4373 13.0002C13.4373 12.619 13.2857 12.2532 13.0161 11.9836C12.7466 11.7142 12.3813 11.5626 12.0002 11.5625C11.619 11.5625 11.2532 11.7141 10.9836 11.9836C10.7141 12.2532 10.5625 12.619 10.5625 13.0002C10.5626 13.3813 10.7142 13.7466 10.9836 14.0161C11.2532 14.2857 11.619 14.4373 12.0002 14.4373C12.3814 14.4372 12.7466 14.2856 13.0161 14.0161C13.2856 13.7466 13.4372 13.3814 13.4373 13.0002ZM14.5623 13.0002C14.5622 13.6798 14.2928 14.3318 13.8123 14.8123C13.3318 15.2928 12.6798 15.5622 12.0002 15.5623C11.3207 15.5623 10.6688 15.2927 10.1882 14.8123C9.70773 14.3318 9.43756 13.6798 9.4375 13.0002C9.4375 12.3206 9.70767 11.6688 10.1882 11.1882C10.6688 10.7077 11.3206 10.4375 12.0002 10.4375C12.6798 10.4376 13.3318 10.7077 13.8123 11.1882C14.2927 11.6688 14.5623 12.3207 14.5623 13.0002Z"
    />
    <path
      d="M18.4373 5.00024C18.4373 4.619 18.2857 4.25323 18.0161 3.98364C17.7466 3.71419 17.3813 3.56256 17.0002 3.5625C16.619 3.5625 16.2532 3.71406 15.9836 3.98364C15.7141 4.25323 15.5625 4.619 15.5625 5.00024C15.5626 5.38135 15.7142 5.7466 15.9836 6.01611C16.2532 6.2857 16.619 6.43726 17.0002 6.43726C17.3814 6.43719 17.7466 6.28564 18.0161 6.01611C18.2856 5.74659 18.4372 5.3814 18.4373 5.00024ZM19.5623 5.00024C19.5622 5.67977 19.2928 6.33175 18.8123 6.81226C18.3318 7.29276 17.6798 7.56219 17.0002 7.56226C16.3207 7.56226 15.6688 7.29267 15.1882 6.81226C14.7077 6.33175 14.4376 5.67977 14.4375 5.00024C14.4375 4.32063 14.7077 3.66879 15.1882 3.18823C15.6688 2.70767 16.3206 2.4375 17.0002 2.4375C17.6798 2.43756 18.3318 2.70773 18.8123 3.18823C19.2927 3.66877 19.5623 4.32074 19.5623 5.00024Z"
    />
    <path
      d="M20.4373 13V12.0002C20.4373 11.619 20.2857 11.2532 20.0161 10.9836C19.7466 10.7142 19.3813 10.5626 19.0002 10.5625H17C16.6893 10.5625 16.4375 10.3107 16.4375 10C16.4375 9.68934 16.6893 9.4375 17 9.4375H19.0002C19.6798 9.43756 20.3318 9.70773 20.8123 10.1882C21.2927 10.6688 21.5623 11.3207 21.5623 12.0002V13C21.5623 13.3107 21.3104 13.5625 20.9998 13.5625C20.6892 13.5624 20.4373 13.3106 20.4373 13Z"
    />
    <path
      d="M8.43726 5.00024C8.43726 4.619 8.2857 4.25323 8.01611 3.98364C7.7466 3.71419 7.38135 3.56256 7.00024 3.5625C6.619 3.5625 6.25323 3.71406 5.98364 3.98364C5.71406 4.25323 5.5625 4.619 5.5625 5.00024C5.56256 5.38135 5.71419 5.7466 5.98364 6.01611C6.25323 6.2857 6.619 6.43726 7.00024 6.43726C7.3814 6.43719 7.74659 6.28564 8.01611 6.01611C8.28564 5.74659 8.43719 5.3814 8.43726 5.00024ZM9.56226 5.00024C9.56219 5.67977 9.29276 6.33175 8.81226 6.81226C8.33175 7.29276 7.67977 7.56219 7.00024 7.56226C6.32074 7.56226 5.66877 7.29267 5.18823 6.81226C4.70773 6.33175 4.43756 5.67977 4.4375 5.00024C4.4375 4.32063 4.70767 3.66879 5.18823 3.18823C5.66879 2.70767 6.32063 2.4375 7.00024 2.4375C7.67977 2.43756 8.33175 2.70773 8.81226 3.18823C9.29266 3.66877 9.56226 4.32074 9.56226 5.00024Z"
    />
    <path
      d="M2.4375 13V12.0002C2.4375 11.3206 2.70767 10.6688 3.18823 10.1882C3.66879 9.70767 4.32063 9.4375 5.00024 9.4375H6.99976C7.31042 9.4375 7.56226 9.68934 7.56226 10C7.56226 10.3107 7.31042 10.5625 6.99976 10.5625H5.00024C4.619 10.5625 4.25323 10.7141 3.98364 10.9836C3.71406 11.2532 3.5625 11.619 3.5625 12.0002V13C3.5625 13.3107 3.31066 13.5625 3 13.5625C2.68934 13.5625 2.4375 13.3107 2.4375 13Z"
    />
    <path
      d="M7.4375 21V20.0002C7.4375 19.3206 7.70767 18.6688 8.18823 18.1882C8.66879 17.7077 9.32063 17.4375 10.0002 17.4375H11.9998C12.3104 17.4375 12.5623 17.6893 12.5623 18C12.5623 18.3107 12.3104 18.5625 11.9998 18.5625H10.0002C9.619 18.5625 9.25323 18.7141 8.98364 18.9836C8.71406 19.2532 8.5625 19.619 8.5625 20.0002V21C8.5625 21.3107 8.31066 21.5625 8 21.5625C7.68934 21.5625 7.4375 21.3107 7.4375 21Z"
    />
    <path
      d="M18.5316 15.688C18.704 15.4296 19.0532 15.3597 19.3117 15.532C19.57 15.7043 19.6399 16.0536 19.4677 16.312L18.0504 18.4375H20.9992C21.2066 18.4375 21.3971 18.552 21.495 18.7349C21.5928 18.9178 21.5822 19.1394 21.4672 19.312L19.4677 22.312C19.2954 22.5705 18.9461 22.6402 18.6876 22.468C18.4291 22.2957 18.3593 21.9465 18.5316 21.688L19.9481 19.5625H16.9994C16.792 19.5625 16.6014 19.4481 16.5036 19.2652C16.4058 19.0823 16.4163 18.8606 16.5314 18.688L18.5316 15.688Z"
    />
  </g>
  <defs>
    <clipPath id="clip0_13_8143">
      <rect width="24" height="24" />
    </clipPath>
  </defs>
</svg>
