<svg viewBox="0 0 32 32" xmlns="http://www.w3.org/2000/svg">
  <g clip-path="url(#clip0_15_8384)">
    <path
      d="M24.2788 4.2832C24.2788 3.86899 24.6145 3.5332 25.0288 3.5332C25.4429 3.53334 25.7788 3.86907 25.7788 4.2832V8.46875L27.4965 6.75098C27.7893 6.45833 28.2642 6.45849 28.5571 6.75098C28.85 7.04386 28.85 7.51959 28.5571 7.8125L25.559 10.8105C25.4184 10.9512 25.2276 11.0302 25.0288 11.0303C24.8298 11.0303 24.6391 10.9512 24.4985 10.8105L21.4995 7.8125C21.2066 7.51961 21.2066 7.04387 21.4995 6.75098C21.7923 6.45841 22.2672 6.45841 22.56 6.75098L24.2788 8.46973V4.2832Z"
    />
    <path
      d="M6.21918 4.2832C6.21918 3.86899 6.55497 3.5332 6.96918 3.5332C7.38328 3.53334 7.71918 3.86907 7.71918 4.2832V8.46875L9.43695 6.75098C9.72973 6.45833 10.2046 6.45849 10.4975 6.75098C10.7904 7.04386 10.7904 7.51959 10.4975 7.8125L7.49945 10.8105C7.35886 10.9512 7.16802 11.0302 6.96918 11.0303C6.77026 11.0303 6.57956 10.9512 6.43891 10.8105L3.43988 7.8125C3.14699 7.51961 3.14699 7.04387 3.43988 6.75098C3.73272 6.45841 4.2076 6.45841 4.50043 6.75098L6.21918 8.46973V4.2832Z"
    />
    <path
      d="M18.314 15.4629C18.314 14.8493 18.0701 14.261 17.6362 13.8271C17.2024 13.3933 16.614 13.1494 16.0005 13.1494C15.3869 13.1494 14.7986 13.3933 14.3647 13.8271C13.9309 14.261 13.687 14.8493 13.687 15.4629C13.687 16.0764 13.9309 16.6648 14.3647 17.0986C14.7986 17.5325 15.3869 17.7764 16.0005 17.7764C16.614 17.7764 17.2024 17.5325 17.6362 17.0986C18.0701 16.6648 18.314 16.0764 18.314 15.4629ZM19.814 15.4629C19.814 16.4743 19.4119 17.444 18.6968 18.1592C17.9816 18.8743 17.0119 19.2764 16.0005 19.2764C14.9891 19.2764 14.0194 18.8743 13.3042 18.1592C12.589 17.444 12.187 16.4743 12.187 15.4629C12.187 14.4515 12.589 13.4818 13.3042 12.7666C14.0194 12.0514 14.9891 11.6494 16.0005 11.6494C17.0119 11.6494 17.9816 12.0515 18.6968 12.7666C19.4119 13.4818 19.814 14.4515 19.814 15.4629Z"
    />
    <path
      d="M21.377 27.7168V26.1855C21.377 25.572 21.133 24.9837 20.6992 24.5498C20.2654 24.116 19.677 23.8721 19.0635 23.8721H12.9365C12.323 23.8721 11.7346 24.116 11.3008 24.5498C10.8669 24.9837 10.623 25.572 10.623 26.1855V27.7168C10.623 28.131 10.2873 28.4668 9.87305 28.4668C9.45883 28.4668 9.12305 28.131 9.12305 27.7168V26.1855C9.12305 25.1742 9.52508 24.2044 10.2402 23.4893C10.9554 22.7741 11.9251 22.3721 12.9365 22.3721H19.0635C20.0748 22.3721 21.0446 22.7741 21.7598 23.4893C22.4749 24.2044 22.877 25.1742 22.877 26.1855V27.7168C22.877 28.131 22.5411 28.4667 22.127 28.4668C21.7127 28.4668 21.377 28.131 21.377 27.7168Z"
    />
    <path
      d="M26.4932 16.6709C26.4932 16.2897 26.3418 15.9238 26.0723 15.6543C25.8028 15.385 25.4376 15.2335 25.0566 15.2334C24.6755 15.2334 24.3096 15.3848 24.04 15.6543C23.7705 15.9238 23.6191 16.2897 23.6191 16.6709C23.6192 17.0519 23.7707 17.4171 24.04 17.6865C24.3096 17.9561 24.6755 18.1074 25.0566 18.1074C25.4377 18.1073 25.8028 17.956 26.0723 17.6865C26.3417 17.4171 26.4931 17.052 26.4932 16.6709ZM27.9932 16.6709C27.9931 17.4498 27.6836 18.1963 27.1328 18.7471C26.5821 19.2978 25.8355 19.6073 25.0566 19.6074C24.2776 19.6074 23.5303 19.2979 22.9795 18.7471C22.4288 18.1963 22.1192 17.4497 22.1191 16.6709C22.1191 15.8919 22.4287 15.1446 22.9795 14.5938C23.5303 14.0429 24.2776 13.7334 25.0566 13.7334C25.8354 13.7335 26.5821 14.0431 27.1328 14.5938C27.6836 15.1446 27.9932 15.8919 27.9932 16.6709Z"
    />
    <path
      d="M28.6797 25.4199V24.3262C28.6797 23.945 28.5283 23.5791 28.2588 23.3096C27.9893 23.0402 27.6241 22.8888 27.2432 22.8887H25.0557C24.6415 22.8887 24.3057 22.5529 24.3057 22.1387C24.3057 21.7245 24.6415 21.3887 25.0557 21.3887H27.2432C28.022 21.3888 28.7686 21.6984 29.3193 22.249C29.8702 22.7999 30.1797 23.5472 30.1797 24.3262V25.4199C30.1794 25.8339 29.8438 26.1699 29.4297 26.1699C29.0158 26.1697 28.6799 25.8338 28.6797 25.4199Z"
    />
    <path
      d="M8.38135 16.6709C8.38135 16.2897 8.22998 15.9238 7.96045 15.6543C7.69101 15.385 7.3258 15.2335 6.94482 15.2334C6.56365 15.2334 6.19775 15.3848 5.92822 15.6543C5.6587 15.9238 5.50732 16.2897 5.50732 16.6709C5.5074 17.0519 5.65888 17.4171 5.92822 17.6865C6.19775 17.9561 6.56365 18.1074 6.94482 18.1074C7.32589 18.1073 7.69099 17.956 7.96045 17.6865C8.22991 17.4171 8.38127 17.052 8.38135 16.6709ZM9.88135 16.6709C9.88127 17.4498 9.57176 18.1963 9.021 18.7471C8.47023 19.2978 7.72371 19.6073 6.94482 19.6074C6.16583 19.6074 5.41851 19.2979 4.86768 18.7471C4.31703 18.1963 4.0074 17.4497 4.00732 16.6709C4.00732 15.8919 4.31684 15.1446 4.86768 14.5938C5.41851 14.0429 6.16583 13.7334 6.94482 13.7334C7.72362 13.7335 8.47025 14.0431 9.021 14.5938C9.57183 15.1446 9.88135 15.8919 9.88135 16.6709Z"
    />
    <path
      d="M1.81982 25.4199V24.3262C1.81982 23.5472 2.12934 22.7999 2.68018 22.249C3.23101 21.6982 3.97833 21.3887 4.75732 21.3887H6.94385C7.35806 21.3887 7.69385 21.7245 7.69385 22.1387C7.69385 22.5529 7.35806 22.8887 6.94385 22.8887H4.75732C4.37616 22.8887 4.01025 23.04 3.74072 23.3096C3.47119 23.5791 3.31982 23.945 3.31982 24.3262V25.4199C3.31958 25.8339 2.98389 26.1699 2.56982 26.1699C2.15576 26.1699 1.82007 25.8339 1.81982 25.4199Z"
    />
  </g>
  <defs>
    <clipPath id="clip0_15_8384">
      <rect width="32" height="32" />
    </clipPath>
  </defs>
</svg>
