<svg viewBox="0 0 32 32" xmlns="http://www.w3.org/2000/svg">
  <path
    d="M15.6455 8.75098C16.0103 8.55486 16.465 8.69187 16.6611 9.05664L20.3232 15.8701C21.0556 15.5797 21.869 15.4268 22.668 15.4268L23.0156 15.4365C23.8257 15.4837 24.6197 15.6944 25.3496 16.0576C26.1835 16.4726 26.9111 17.0761 27.4785 17.8193C28.0459 18.5626 28.4382 19.4266 28.625 20.3457C28.8118 21.2648 28.7885 22.2152 28.5576 23.124C28.3267 24.0328 27.8937 24.8765 27.291 25.5908C26.6883 26.3052 25.9321 26.8719 25.0791 27.2451C24.2259 27.6184 23.2989 27.789 22.3701 27.7432C21.4413 27.6973 20.5357 27.4358 19.7226 26.9805C19.3613 26.7781 19.2323 26.3213 19.4346 25.96C19.6369 25.5987 20.0937 25.4697 20.4551 25.6719C21.0668 26.0145 21.7476 26.2097 22.4443 26.2441C23.1409 26.2785 23.8364 26.1516 24.4775 25.8711C25.1187 25.5906 25.689 25.1639 26.1445 24.624C26.6001 24.0841 26.9291 23.4449 27.1045 22.7549C27.2798 22.0648 27.2971 21.3426 27.1553 20.6445C27.0134 19.9466 26.7161 19.2915 26.2871 18.7295C25.8579 18.1674 25.3078 17.7125 24.6806 17.4004C24.0537 17.0885 23.3652 16.927 22.668 16.9268C21.8464 16.9268 21.0175 17.1398 20.3701 17.5059C20.1946 17.6051 19.9866 17.6292 19.793 17.5732C19.5992 17.5172 19.4363 17.3856 19.3408 17.208L15.3398 9.7666C15.144 9.40183 15.2808 8.94705 15.6455 8.75098ZM6.09862 16.3691C6.44816 16.1469 6.91251 16.2501 7.13475 16.5996C7.35664 16.949 7.25352 17.4125 6.90428 17.6348C6.22872 18.0643 5.67383 18.6663 5.29588 19.3818C4.918 20.0974 4.73027 20.9011 4.75194 21.7139C4.77365 22.5266 5.00359 23.3192 5.41893 24.0127C5.83438 24.7062 6.4209 25.2763 7.11815 25.668C7.81529 26.0595 8.60016 26.2599 9.39549 26.249C10.1908 26.2381 10.9706 26.017 11.6572 25.6064C12.3438 25.1958 12.9136 24.609 13.3105 23.9043C13.7075 23.1995 13.9169 22.4011 13.917 21.5879C13.9172 21.1739 14.253 20.8381 14.667 20.8379H22.668C23.082 20.838 23.4178 21.1739 23.418 21.5879C23.418 22.0021 23.0821 22.3378 22.668 22.3379H15.3711C15.2732 23.1457 15.019 23.9289 14.6181 24.6406C14.0942 25.571 13.3391 26.348 12.4267 26.8936C11.5144 27.4391 10.4765 27.7345 9.416 27.749C8.35545 27.7635 7.30952 27.4971 6.3828 26.9766C5.45634 26.4562 4.68138 25.6998 4.1328 24.7842C3.58421 23.8685 3.28052 22.8236 3.25194 21.7539C3.22342 20.6843 3.47101 19.6249 3.96971 18.6807C4.46841 17.7366 5.20172 16.9395 6.09862 16.3691ZM20.584 9.41211C20.584 8.17225 20.0991 6.98477 19.2383 6.11133C18.3778 5.23831 17.213 4.75006 16.001 4.75C14.7889 4.75 13.6241 5.23839 12.7637 6.11133C11.9028 6.98477 11.417 8.17224 11.417 9.41211C11.4171 11.1937 12.3106 12.7106 13.7012 13.4932C14.0573 13.6935 14.1876 14.1421 13.9941 14.502L9.99413 21.9434C9.79799 22.3081 9.34331 22.4451 8.9785 22.249C8.61377 22.0529 8.47696 21.5982 8.67284 21.2334L12.3467 14.3965C10.8272 13.2668 9.91708 11.4421 9.91698 9.41211C9.91698 7.7814 10.5556 6.21496 11.6953 5.05859C12.8353 3.90193 14.384 3.25 16.001 3.25C17.6179 3.25006 19.1666 3.90191 20.3066 5.05859C21.4462 6.21495 22.084 7.78145 22.084 9.41211C22.0838 9.82616 21.7481 10.1621 21.334 10.1621C20.9201 10.1619 20.5842 9.82602 20.584 9.41211Z"
  />
</svg>
