<svg viewBox="0 0 32 32" xmlns="http://www.w3.org/2000/svg">
  <g clip-path="url(#clip0_15_8391)">
    <path
      d="M15.2505 13.333V12C15.2505 11.4917 15.0484 11.004 14.689 10.6445C14.3295 10.2851 13.8418 10.083 13.3335 10.083H12.0005C11.0945 10.083 10.2252 9.72355 9.58447 9.08301C8.9438 8.44234 8.58358 7.57303 8.5835 6.66699V6C8.5835 5.58579 8.91928 5.25 9.3335 5.25C9.74771 5.25 10.0835 5.58579 10.0835 6V6.66699C10.0836 7.17513 10.2858 7.66213 10.645 8.02148C11.0045 8.38093 11.4922 8.58301 12.0005 8.58301H13.3335C14.2397 8.58301 15.1088 8.94324 15.7495 9.58398C16.3903 10.2247 16.7505 11.0938 16.7505 12V13.333C16.7505 13.8413 16.9526 14.329 17.312 14.6885C17.6714 15.0477 18.1584 15.2499 18.6665 15.25C19.1748 15.25 19.6625 15.0479 20.022 14.6885C20.3814 14.329 20.5835 13.8413 20.5835 13.333C20.5836 12.427 20.9438 11.5577 21.5845 10.917C22.2252 10.2764 23.0945 9.91699 24.0005 9.91699H26.6665C27.0807 9.91699 27.4165 10.2528 27.4165 10.667C27.4163 11.0811 27.0806 11.417 26.6665 11.417H24.0005C23.4922 11.417 23.0045 11.6191 22.645 11.9785C22.2858 12.3379 22.0836 12.8249 22.0835 13.333C22.0835 14.2392 21.7233 15.1083 21.0825 15.749C20.4418 16.3898 19.5727 16.75 18.6665 16.75C17.7605 16.7499 16.8912 16.3897 16.2505 15.749C15.6099 15.1083 15.2505 14.239 15.2505 13.333Z"
    />
    <path
      d="M13.917 27.667V23.333C13.9169 23.0016 13.7851 22.6836 13.5508 22.4492C13.3164 22.2149 12.9984 22.0831 12.667 22.083C11.9376 22.083 11.2374 21.794 10.7217 21.2783C10.206 20.7626 9.91699 20.0624 9.91699 19.333V18.667C9.91699 18.1587 9.71481 17.671 9.35547 17.3115C8.99602 16.9521 8.50833 16.75 8 16.75H4C3.58579 16.75 3.25 16.4142 3.25 16C3.25 15.5858 3.58579 15.25 4 15.25H8C8.90616 15.25 9.77527 15.6102 10.416 16.251C11.0567 16.8917 11.417 17.7609 11.417 18.667V19.333C11.417 19.6645 11.5488 19.9824 11.7832 20.2168C12.0176 20.4512 12.3355 20.583 12.667 20.583C13.3962 20.5831 14.0957 20.873 14.6113 21.3887C15.127 21.9043 15.4169 22.6038 15.417 23.333V27.667C15.4168 28.0809 15.0809 28.4168 14.667 28.417C14.2529 28.417 13.9172 28.0811 13.917 27.667Z"
    />
    <path
      d="M19.25 27.333V22.667C19.25 21.7608 19.6102 20.8917 20.251 20.251C20.8917 19.6102 21.7608 19.25 22.667 19.25H27.333C27.7472 19.25 28.083 19.5858 28.083 20C28.083 20.4142 27.7472 20.75 27.333 20.75H22.667C22.1587 20.75 21.671 20.9521 21.3115 21.3115C20.9521 21.671 20.75 22.1587 20.75 22.667V27.333C20.75 27.7472 20.4142 28.083 20 28.083C19.5858 28.083 19.25 27.7472 19.25 27.333Z"
    />
    <path
      d="M27.25 16C27.25 14.5226 26.9589 13.0592 26.3936 11.6943C25.8282 10.3296 24.9996 9.08947 23.9551 8.04492C22.9105 7.00037 21.6704 6.17181 20.3057 5.60645C18.9408 5.04108 17.4774 4.75 16 4.75C14.5226 4.75 13.0592 5.04108 11.6943 5.60645C10.3296 6.17181 9.08947 7.00037 8.04492 8.04492C7.00037 9.08947 6.17181 10.3296 5.60645 11.6943C5.04108 13.0592 4.75 14.5226 4.75 16C4.75 17.4774 5.04108 18.9408 5.60645 20.3057C6.17181 21.6704 7.00037 22.9105 8.04492 23.9551C9.08947 24.9996 10.3296 25.8282 11.6943 26.3936C13.0592 26.9589 14.5226 27.25 16 27.25C17.4774 27.25 18.9408 26.9589 20.3057 26.3936C21.6704 25.8282 22.9105 24.9996 23.9551 23.9551C24.9996 22.9105 25.8282 21.6704 26.3936 20.3057C26.9589 18.9408 27.25 17.4774 27.25 16ZM28.75 16C28.75 17.6743 28.42 19.3321 27.7793 20.8789C27.1385 22.4258 26.1996 23.8317 25.0156 25.0156C23.8317 26.1996 22.4258 27.1385 20.8789 27.7793C19.3321 28.42 17.6743 28.75 16 28.75C14.3257 28.75 12.6679 28.42 11.1211 27.7793C9.57419 27.1385 8.16832 26.1996 6.98438 25.0156C5.80043 23.8317 4.86145 22.4258 4.2207 20.8789C3.58001 19.3321 3.25 17.6743 3.25 16C3.25 14.3257 3.58001 12.6679 4.2207 11.1211C4.86145 9.57419 5.80043 8.16832 6.98438 6.98438C8.16832 5.80043 9.57419 4.86145 11.1211 4.2207C12.6679 3.58001 14.3257 3.25 16 3.25C17.6743 3.25 19.3321 3.58001 20.8789 4.2207C22.4258 4.86145 23.8317 5.80043 25.0156 6.98438C26.1996 8.16832 27.1385 9.57419 27.7793 11.1211C28.42 12.6679 28.75 14.3257 28.75 16Z"
    />
  </g>
  <defs>
    <clipPath id="clip0_15_8391">
      <rect width="32" height="32" />
    </clipPath>
  </defs>
</svg>
