<svg viewBox="0 0 24 24" xmlns="http://www.w3.org/2000/svg">
  <g clip-path="url(#clip0_13_8129)">
    <path
      d="M11.4377 9.99976V9C11.4377 8.61875 11.2862 8.25298 11.0166 7.9834C10.747 7.71381 10.3812 7.56226 10 7.56226H9.00024C8.32074 7.56226 7.66877 7.29267 7.18823 6.81226C6.70773 6.33175 6.43756 5.67977 6.4375 5.00024V4.5C6.4375 4.18934 6.68934 3.9375 7 3.9375C7.31066 3.9375 7.5625 4.18934 7.5625 4.5V5.00024C7.56256 5.38135 7.71419 5.7466 7.98364 6.01611C8.25323 6.2857 8.619 6.43726 9.00024 6.43726H10C10.6796 6.43726 11.3314 6.70743 11.812 7.18799C12.2926 7.66855 12.5627 8.32038 12.5627 9V9.99976C12.5627 10.381 12.7143 10.7468 12.9839 11.0164C13.2534 11.2858 13.6187 11.4374 13.9998 11.4375C14.381 11.4375 14.7468 11.2859 15.0164 11.0164C15.2859 10.7468 15.4375 10.381 15.4375 9.99976C15.4376 9.32023 15.7077 8.66825 16.1882 8.18774C16.6688 7.70734 17.3207 7.43774 18.0002 7.43774H19.9998C20.3104 7.43774 20.5623 7.68958 20.5623 8.00024C20.5621 8.31079 20.3103 8.56274 19.9998 8.56274H18.0002C17.619 8.56274 17.2532 8.7143 16.9836 8.98389C16.7142 9.2534 16.5626 9.61865 16.5625 9.99976C16.5625 10.6794 16.2923 11.3312 15.8118 11.8118C15.3312 12.2923 14.6794 12.5625 13.9998 12.5625C13.3202 12.5624 12.6682 12.2923 12.1877 11.8118C11.7073 11.3312 11.4377 10.6793 11.4377 9.99976Z"
    />
    <path
      d="M10.4377 20.7502V17.4998C10.4377 17.2512 10.3388 17.0127 10.1631 16.8369C9.98733 16.6612 9.7488 16.5623 9.50024 16.5623C8.95324 16.5623 8.42805 16.3455 8.04126 15.9587C7.65447 15.5719 7.43774 15.0468 7.43774 14.4998V14.0002C7.43774 13.6191 7.28611 13.2532 7.0166 12.9836C6.74702 12.7141 6.38125 12.5625 6 12.5625H3C2.68934 12.5625 2.4375 12.3107 2.4375 12C2.4375 11.6893 2.68934 11.4375 3 11.4375H6C6.67962 11.4375 7.33145 11.7077 7.81201 12.1882C8.2925 12.6688 8.56274 13.3207 8.56274 14.0002V14.4998C8.56274 14.7484 8.66159 14.9868 8.8374 15.1626C9.01322 15.3384 9.2516 15.4373 9.50024 15.4373C10.0472 15.4373 10.5718 15.6548 10.9585 16.0415C11.3452 16.4282 11.5627 16.9528 11.5627 17.4998V20.7502C11.5626 21.0607 11.3107 21.3126 11.0002 21.3127C10.6897 21.3127 10.4379 21.0608 10.4377 20.7502Z"
    />
    <path
      d="M14.4375 20.4998V17.0002C14.4375 16.3206 14.7077 15.6688 15.1882 15.1882C15.6688 14.7077 16.3206 14.4375 17.0002 14.4375H20.4998C20.8104 14.4375 21.0623 14.6893 21.0623 15C21.0623 15.3107 20.8104 15.5625 20.4998 15.5625H17.0002C16.619 15.5625 16.2532 15.7141 15.9836 15.9836C15.7141 16.2532 15.5625 16.619 15.5625 17.0002V20.4998C15.5625 20.8104 15.3107 21.0623 15 21.0623C14.6893 21.0623 14.4375 20.8104 14.4375 20.4998Z"
    />
    <path
      d="M20.4375 12C20.4375 10.892 20.2192 9.79444 19.7952 8.77075C19.3711 7.7472 18.7497 6.8171 17.9663 6.03369C17.1829 5.25028 16.2528 4.62886 15.2292 4.20483C14.2056 3.78081 13.108 3.5625 12 3.5625C10.892 3.5625 9.79444 3.78081 8.77075 4.20483C7.7472 4.62886 6.8171 5.25028 6.03369 6.03369C5.25028 6.8171 4.62885 7.7472 4.20483 8.77075C3.78081 9.79444 3.5625 10.892 3.5625 12C3.5625 13.108 3.78081 14.2056 4.20483 15.2292C4.62885 16.2528 5.25028 17.1829 6.03369 17.9663C6.8171 18.7497 7.7472 19.3711 8.77075 19.7952C9.79444 20.2192 10.892 20.4375 12 20.4375C13.108 20.4375 14.2056 20.2192 15.2292 19.7952C16.2528 19.3711 17.1829 18.7497 17.9663 17.9663C18.7497 17.1829 19.3711 16.2528 19.7952 15.2292C20.2192 14.2056 20.4375 13.108 20.4375 12ZM21.5625 12C21.5625 13.2557 21.315 14.499 20.8345 15.6592C20.3539 16.8194 19.6497 17.8738 18.7617 18.7617C17.8738 19.6497 16.8194 20.3539 15.6592 20.8345C14.499 21.315 13.2557 21.5625 12 21.5625C10.7443 21.5625 9.50095 21.315 8.34082 20.8345C7.18064 20.3539 6.12624 19.6497 5.23828 18.7617C4.35032 17.8738 3.64609 16.8194 3.16553 15.6592C2.68501 14.499 2.4375 13.2557 2.4375 12C2.4375 10.7443 2.68501 9.50095 3.16553 8.34082C3.64609 7.18064 4.35032 6.12624 5.23828 5.23828C6.12624 4.35032 7.18064 3.64609 8.34082 3.16553C9.50095 2.68501 10.7443 2.4375 12 2.4375C13.2557 2.4375 14.499 2.68501 15.6592 3.16553C16.8194 3.64609 17.8738 4.35032 18.7617 5.23828C19.6497 6.12624 20.3539 7.18064 20.8345 8.34082C21.315 9.50095 21.5625 10.7443 21.5625 12Z"
    />
  </g>
  <defs>
    <clipPath id="clip0_13_8129">
      <rect width="24" height="24" />
    </clipPath>
  </defs>
</svg>
