<svg viewBox="0 0 32 32" xmlns="http://www.w3.org/2000/svg">
  <g clip-path="url(#clip0_1071_16766)">
    <path
      d="M5.91666 6.66699C5.91666 5.76084 6.27689 4.89173 6.91764 4.25098C7.55839 3.61023 8.4275 3.25 9.33365 3.25H18.6667C18.8656 3.25 19.0563 3.32908 19.1969 3.46973L25.8639 10.1367C26.0044 10.2773 26.0837 10.4682 26.0837 10.667V25.333C26.0837 26.2391 25.7233 27.1083 25.0827 27.749C24.4419 28.3898 23.5728 28.75 22.6667 28.75H21.3337C20.9194 28.75 20.5837 28.4142 20.5837 28C20.5837 27.5858 20.9194 27.25 21.3337 27.25H22.6667C23.175 27.25 23.6627 27.0479 24.0221 26.6885C24.3815 26.329 24.5837 25.8413 24.5837 25.333V10.9775L18.3561 4.75H9.33365C8.82532 4.75 8.33763 4.95208 7.97818 5.31152C7.61874 5.67097 7.41666 6.15866 7.41666 6.66699V25.334C7.41616 25.6707 7.50443 26.0021 7.67252 26.2939C7.84071 26.5858 8.08301 26.8286 8.37467 26.9971C8.73339 27.2042 8.85619 27.6628 8.64908 28.0215C8.44196 28.3802 7.98337 28.503 7.62467 28.2959C7.10469 27.9956 6.67256 27.5632 6.37271 27.043C6.07299 26.5227 5.91578 25.9324 5.91666 25.332V6.66699Z"
    />
    <path
      d="M16.583 25.3335C16.583 24.8252 16.3809 24.3375 16.0215 23.978C15.6621 23.6188 15.1751 23.4166 14.667 23.4165C14.1587 23.4165 13.671 23.6186 13.3115 23.978C12.9521 24.3375 12.75 24.8252 12.75 25.3335V27.9995C12.75 28.1542 12.8115 28.3032 12.9209 28.4126C13.0302 28.5218 13.1785 28.5834 13.333 28.5835H16C16.1546 28.5835 16.3027 28.5218 16.4121 28.4126C16.5215 28.3032 16.583 28.1542 16.583 27.9995V25.3335ZM18.083 27.9995C18.083 28.552 17.8634 29.0824 17.4727 29.4731C17.082 29.8636 16.5524 30.0835 16 30.0835H13.333C12.7807 30.0834 12.251 29.8637 11.8604 29.4731C11.4697 29.0824 11.25 28.552 11.25 27.9995V25.3335C11.25 24.4273 11.6102 23.5582 12.251 22.9175C12.8917 22.2767 13.7608 21.9165 14.667 21.9165C15.573 21.9166 16.4423 22.2768 17.083 22.9175C17.7236 23.5582 18.083 24.4275 18.083 25.3335V27.9995Z"
    />
    <path
      d="M14.6663 5.9165C15.0805 5.9165 15.4163 6.25229 15.4163 6.6665C15.4163 7.08072 15.0805 7.4165 14.6663 7.4165H13.3333C12.9191 7.4165 12.5833 7.08072 12.5833 6.6665C12.5833 6.25229 12.9191 5.9165 13.3333 5.9165H14.6663Z"
    />
    <path
      d="M17.333 8.5835C17.7472 8.5835 18.083 8.91928 18.083 9.3335C18.083 9.74771 17.7472 10.0835 17.333 10.0835H16C15.5858 10.0835 15.25 9.74771 15.25 9.3335C15.25 8.91928 15.5858 8.5835 16 8.5835H17.333Z"
    />
    <path
      d="M14.6663 11.25C15.0805 11.25 15.4163 11.5858 15.4163 12C15.4163 12.4142 15.0805 12.75 14.6663 12.75H13.3333C12.9191 12.75 12.5833 12.4142 12.5833 12C12.5833 11.5858 12.9191 11.25 13.3333 11.25H14.6663Z"
    />
    <path
      d="M17.333 13.9165C17.7472 13.9165 18.083 14.2523 18.083 14.6665C18.083 15.0807 17.7472 15.4165 17.333 15.4165H16C15.5858 15.4165 15.25 15.0807 15.25 14.6665C15.25 14.2523 15.5858 13.9165 16 13.9165H17.333Z"
    />
    <path
      d="M14.6663 16.5835C15.0805 16.5835 15.4163 16.9193 15.4163 17.3335C15.4163 17.7477 15.0805 18.0835 14.6663 18.0835H13.3333C12.9191 18.0835 12.5833 17.7477 12.5833 17.3335C12.5833 16.9193 12.9191 16.5835 13.3333 16.5835H14.6663Z"
    />
    <path
      d="M17.333 19.25C17.7472 19.25 18.083 19.5858 18.083 20C18.083 20.4142 17.7472 20.75 17.333 20.75H16C15.5858 20.75 15.25 20.4142 15.25 20C15.25 19.5858 15.5858 19.25 16 19.25H17.333Z"
    />
  </g>
  <defs>
    <clipPath id="clip0_1071_16766">
      <rect width="32" height="32" />
    </clipPath>
  </defs>
</svg>
